SplineFontDB: 3.2
FontName: CMUSerifMono-Italic
FullName: CMU Serif Mono Italic
FamilyName: CMU Serif Mono
Weight: Regular
Copyright: An edit of CMU Serif Italic and some AMS glyphs to be compatible with JuliaMono
Version: 0.044; ttfautohint (v1.8.4)
ItalicAngle: -9
UnderlinePosition: -250
UnderlineWidth: 100
Ascent: 1600
Descent: 400
InvalidEm: 0
sfntRevision: 0x00000b43
LayerCount: 2
Layer: 0 1 "Back" 1
Layer: 1 1 "Fore" 0
XUID: [1021 821 -1512940191 1964]
StyleMap: 0x0001
FSType: 0
OS2Version: 4
OS2_WeightWidthSlopeOnly: 0
OS2_UseTypoMetrics: 1
CreationTime: 1643970042
ModificationTime: 1658081813
PfmFamily: 17
TTFWeight: 400
TTFWidth: 5
LineGap: 0
VLineGap: 0
Panose: 2 11 6 9 6 3 0 2 0 4
OS2TypoAscent: 1900
OS2TypoAOffset: 0
OS2TypoDescent: -480
OS2TypoDOffset: 0
OS2TypoLinegap: 0
OS2WinAscent: 2400
OS2WinAOffset: 0
OS2WinDescent: 600
OS2WinDOffset: 0
HheadAscent: 1900
HheadAOffset: 0
HheadDescent: -480
HheadDOffset: 0
OS2SubXSize: 1300
OS2SubYSize: 1200
OS2SubXOff: 0
OS2SubYOff: 150
OS2SupXSize: 1300
OS2SupYSize: 1200
OS2SupXOff: 0
OS2SupYOff: 700
OS2StrikeYSize: 100
OS2StrikeYPos: 1100
OS2CapHeight: 1450
OS2XHeight: 1100
OS2Vendor: 'UKWN'
OS2CodePages: 602801bf.00000000
OS2UnicodeRanges: e501ffff.fac5ffff.0f04e877.05c0a06c
Lookup: 1 0 0 "'aalt' Access All Alternates lookup 0" { "'aalt' Access All Alternates lookup 0 subtable"  } ['aalt' ('DFLT' <'dflt' > 'cyrl' <'BGR ' 'SRB ' 'dflt' > 'hebr' <'IWR ' 'dflt' > 'latn' <'AZE ' 'CAT ' 'CRT ' 'KAZ ' 'MOL ' 'NLD ' 'ROM ' 'TAT ' 'TRK ' 'dflt' > ) ]
Lookup: 3 0 0 "'aalt' Access All Alternates lookup 1" { "'aalt' Access All Alternates lookup 1 subtable"  } ['aalt' ('DFLT' <'dflt' > 'cyrl' <'BGR ' 'SRB ' 'dflt' > 'hebr' <'IWR ' 'dflt' > 'latn' <'AZE ' 'CAT ' 'CRT ' 'KAZ ' 'MOL ' 'NLD ' 'ROM ' 'TAT ' 'TRK ' 'dflt' > ) ]

StartChar: A
Encoding: 65 65 0
Width: 1200
VWidth: 2048
GlyphClass: 2
Flags: W
LayerCount: 2
Fore
SplineSet
-37.640625 30.943359375 m 4,0,1
 -37.640625 59.751953125 -37.640625 59.751953125 -15.365234375 66.154296875 c 132,-1,2
 6.9091796875 72.5556640625 6.9091796875 72.5556640625 40.0751953125 73.623046875 c 132,-1,3
 73.240234375 74.6904296875 73.240234375 74.6904296875 126.205078125 117.370117188 c 132,-1,4
 179.169921875 160.049804688 179.169921875 160.049804688 227.6796875 246.4765625 c 6,5,-1
 890.979492188 1505.53613281 l 6,6,7
 892.959960938 1507.67089844 892.959960938 1507.67089844 897.909179688 1518.87402344 c 132,-1,8
 902.859375 1530.078125 902.859375 1530.078125 907.809570312 1535.41308594 c 132,-1,9
 912.759765625 1540.74804688 912.759765625 1540.74804688 920.184570312 1549.28417969 c 132,-1,10
 927.609375 1557.8203125 927.609375 1557.8203125 936.520507812 1561.02050781 c 132,-1,11
 945.4296875 1564.22167969 945.4296875 1564.22167969 955.330078125 1564.22167969 c 4,12,13
 963.25 1564.22167969 963.25 1564.22167969 969.684570312 1563.15527344 c 132,-1,14
 976.120117188 1562.08789062 976.120117188 1562.08789062 980.080078125 1556.75292969 c 132,-1,15
 984.040039062 1551.41796875 984.040039062 1551.41796875 986.020507812 1549.28417969 c 132,-1,16
 988 1547.15039062 988 1547.15039062 989.979492188 1538.61425781 c 132,-1,17
 991.959960938 1530.078125 991.959960938 1530.078125 991.959960938 1527.94433594 c 132,-1,18
 991.959960938 1525.80957031 991.959960938 1525.80957031 993.940429688 1514.07324219 c 6,19,-1
 993.940429688 1503.40332031 l 5,20,-1
 1081.05957031 146.178710938 l 6,21,22
 1083.04003906 96.0302734375 1083.04003906 96.0302734375 1103.33496094 83.2255859375 c 132,-1,23
 1123.62988281 70.421875 1123.62988281 70.421875 1186.99023438 67.220703125 c 4,24,25
 1241.44042969 67.220703125 1241.44042969 67.220703125 1241.44042969 37.3447265625 c 4,26,27
 1241.44042969 0 1241.44042969 0 1200.84960938 0 c 4,28,29
 1190.95019531 0 1190.95019531 0 1128.08496094 3.201171875 c 132,-1,30
 1065.22070312 6.4013671875 1065.22070312 6.4013671875 991.959960938 6.4013671875 c 4,31,32
 922.659179688 6.4013671875 922.659179688 6.4013671875 871.1796875 5.3349609375 c 132,-1,33
 819.700195312 4.2685546875 819.700195312 4.2685546875 794.455078125 2.1337890625 c 132,-1,34
 769.209960938 0 769.209960938 0 765.25 0 c 4,35,36
 734.559570312 0 734.559570312 0 734.559570312 30.943359375 c 4,37,38
 734.559570312 52.283203125 734.559570312 52.283203125 750.895507812 61.3525390625 c 132,-1,39
 767.229492188 70.421875 767.229492188 70.421875 790.495117188 68.8212890625 c 132,-1,40
 813.759765625 67.220703125 813.759765625 67.220703125 843.955078125 74.15625 c 132,-1,41
 874.150390625 81.091796875 874.150390625 81.091796875 896.919921875 100.298828125 c 4,42,43
 912.759765625 115.235351562 912.759765625 115.235351562 912.759765625 160.049804688 c 4,44,45
 912.759765625 172.854492188 912.759765625 172.854492188 909.790039062 212.333007812 c 132,-1,46
 906.8203125 251.811523438 906.8203125 251.811523438 901.870117188 333.4375 c 132,-1,47
 896.919921875 415.063476562 896.919921875 415.063476562 890.979492188 502.556640625 c 5,48,-1
 428.650390625 502.556640625 l 5,49,50
 410.830078125 467.345703125 410.830078125 467.345703125 389.049804688 426.799804688 c 132,-1,51
 367.270507812 386.25390625 367.270507812 386.25390625 354.400390625 362.247070312 c 132,-1,52
 341.530273438 338.239257812 341.530273438 338.239257812 326.184570312 309.962890625 c 132,-1,53
 310.840820312 281.688476562 310.840820312 281.688476562 302.919921875 265.149414062 c 132,-1,54
 295 248.610351562 295 248.610351562 285.595703125 230.471679688 c 132,-1,55
 276.190429688 212.333007812 276.190429688 212.333007812 272.229492188 201.12890625 c 132,-1,56
 268.270507812 189.92578125 268.270507812 189.92578125 263.3203125 178.189453125 c 132,-1,57
 258.370117188 166.451171875 258.370117188 166.451171875 257.379882812 158.44921875 c 132,-1,58
 256.390625 150.446289062 256.390625 150.446289062 256.390625 141.911132812 c 4,59,60
 256.390625 110.96875 256.390625 110.96875 273.715820312 93.8955078125 c 132,-1,61
 291.040039062 76.82421875 291.040039062 76.82421875 312.325195312 74.6904296875 c 132,-1,62
 333.609375 72.5556640625 333.609375 72.5556640625 350.440429688 64.5537109375 c 132,-1,63
 367.270507812 56.55078125 367.270507812 56.55078125 367.270507812 41.61328125 c 4,64,65
 367.270507812 0 367.270507812 0 326.6796875 0 c 4,66,67
 320.740234375 0 320.740234375 0 297.474609375 2.1337890625 c 132,-1,68
 274.209960938 4.2685546875 274.209960938 4.2685546875 233.620117188 5.3349609375 c 132,-1,69
 193.030273438 6.4013671875 193.030273438 6.4013671875 146.5 6.4013671875 c 4,70,71
 107.890625 6.4013671875 107.890625 6.4013671875 60.3701171875 3.201171875 c 132,-1,72
 12.849609375 0 12.849609375 0 6.9091796875 0 c 4,73,74
 -37.640625 0 -37.640625 0 -37.640625 30.943359375 c 4,0,1
465.280273438 567.64453125 m 5,75,-1
 887.020507812 567.64453125 l 5,76,-1
 842.470703125 1282.53417969 l 5,77,-1
 465.280273438 567.64453125 l 5,75,-1
EndSplineSet
Substitution2: "Single Substitution lookup 63 subtable" ordfeminine
Substitution2: "'fwid' Full Widths lookup 32 subtable" uniFF21
Substitution2: "'c2sc' Capitals to Small Capitals lookup 26 subtable" a.sc
AlternateSubs2: "'aalt' Access All Alternates lookup 1 subtable" ordfeminine a.sc uniFF21
EndChar

StartChar: B
Encoding: 66 66 1
Width: 1200
VWidth: 2048
GlyphClass: 2
Flags: W
LayerCount: 2
Fore
SplineSet
-9.599609375 27.5 m 4,0,1
 -9.599609375 57.2001953125 -9.599609375 57.2001953125 1.400390625 63.25 c 132,-1,2
 12.400390625 69.2998046875 12.400390625 69.2998046875 38.7998046875 69.2998046875 c 4,3,4
 126.799804688 69.2998046875 126.799804688 69.2998046875 151.440429688 86.349609375 c 132,-1,5
 176.080078125 103.400390625 176.080078125 103.400390625 186.640625 165 c 6,6,-1
 430.400390625 1388.20019531 l 6,7,8
 437.440429688 1420.09960938 437.440429688 1420.09960938 437.440429688 1430 c 4,9,10
 437.440429688 1455.29980469 437.440429688 1455.29980469 412.359375 1461.90039062 c 132,-1,11
 387.280273438 1468.5 387.280273438 1468.5 332.720703125 1468.5 c 4,12,13
 312.479492188 1468.5 312.479492188 1468.5 304.559570312 1469.59960938 c 132,-1,14
 296.640625 1470.70019531 296.640625 1470.70019531 290.479492188 1476.75 c 132,-1,15
 284.3203125 1482.79980469 284.3203125 1482.79980469 284.3203125 1496 c 4,16,17
 284.3203125 1525.70019531 284.3203125 1525.70019531 295.3203125 1532.29980469 c 132,-1,18
 306.3203125 1538.90039062 306.3203125 1538.90039062 332.720703125 1538.90039062 c 6,19,-1
 893.280273438 1538.90039062 l 6,20,21
 1034.08007812 1538.90039062 1034.08007812 1538.90039062 1115.04003906 1449.79980469 c 132,-1,22
 1196 1360.70019531 1196 1360.70019531 1196 1232 c 4,23,24
 1196 1096.70019531 1196 1096.70019531 1098.75976562 972.950195312 c 132,-1,25
 1001.52050781 849.200195312 1001.52050781 849.200195312 843.120117188 804.099609375 c 5,26,27
 949.599609375 788.700195312 949.599609375 788.700195312 1021.3203125 707.299804688 c 132,-1,28
 1093.04003906 625.900390625 1093.04003906 625.900390625 1093.04003906 493.900390625 c 4,29,30
 1093.04003906 311.299804688 1093.04003906 311.299804688 954.440429688 155.650390625 c 132,-1,31
 815.840820312 0 815.840820312 0 630.159179688 0 c 6,32,-1
 35.2802734375 0 l 6,33,34
 17.6796875 0 17.6796875 0 10.2001953125 1.099609375 c 132,-1,35
 2.720703125 2.2001953125 2.720703125 2.2001953125 -3.4404296875 8.25 c 132,-1,36
 -9.599609375 14.2998046875 -9.599609375 14.2998046875 -9.599609375 27.5 c 4,0,1
311.599609375 92.400390625 m 132,-1,38
 311.599609375 83.599609375 311.599609375 83.599609375 313.359375 79.2001953125 c 132,-1,39
 315.120117188 74.7998046875 315.120117188 74.7998046875 327.440429688 72.0498046875 c 132,-1,40
 339.759765625 69.2998046875 339.759765625 69.2998046875 367.040039062 69.2998046875 c 6,41,-1
 590.559570312 69.2998046875 l 6,42,43
 733.120117188 69.2998046875 733.120117188 69.2998046875 833 210.099609375 c 132,-1,44
 932.879882812 350.900390625 932.879882812 350.900390625 932.879882812 522.5 c 4,45,46
 932.879882812 556.599609375 932.879882812 556.599609375 927.599609375 589.049804688 c 132,-1,47
 922.3203125 621.5 922.3203125 621.5 906.919921875 668.799804688 c 132,-1,48
 891.520507812 716.099609375 891.520507812 716.099609375 851.919921875 745.799804688 c 132,-1,49
 812.3203125 775.5 812.3203125 775.5 754.240234375 775.5 c 6,50,-1
 444.479492188 775.5 l 5,51,-1
 318.640625 141.900390625 l 6,52,53
 318.640625 139.700195312 318.640625 139.700195312 315.120117188 120.450195312 c 132,-1,37
 311.599609375 101.200195312 311.599609375 101.200195312 311.599609375 92.400390625 c 132,-1,38
455.919921875 825 m 5,54,-1
 693.520507812 825 l 6,55,56
 839.599609375 825 839.599609375 825 938.599609375 958.650390625 c 132,-1,57
 1037.59960938 1092.29980469 1037.59960938 1092.29980469 1037.59960938 1246.29980469 c 4,58,59
 1037.59960938 1280.40039062 1037.59960938 1280.40039062 1032.3203125 1311.75 c 132,-1,60
 1027.04003906 1343.09960938 1027.04003906 1343.09960938 1010.75976562 1382.15039062 c 132,-1,61
 994.479492188 1421.20019531 994.479492188 1421.20019531 957.520507812 1444.84960938 c 132,-1,62
 920.559570312 1468.5 920.559570312 1468.5 867.759765625 1468.5 c 6,63,-1
 655.6796875 1468.5 l 6,64,65
 609.040039062 1468.5 609.040039062 1468.5 593.640625 1457.5 c 132,-1,66
 578.240234375 1446.5 578.240234375 1446.5 566.799804688 1388.20019531 c 6,67,-1
 455.919921875 825 l 5,54,-1
EndSplineSet
Validated: 513
Substitution2: "'fwid' Full Widths lookup 32 subtable" uniFF22
Substitution2: "'c2sc' Capitals to Small Capitals lookup 26 subtable" b.sc
AlternateSubs2: "'aalt' Access All Alternates lookup 1 subtable" b.sc uniFF22
EndChar

StartChar: C
Encoding: 67 67 2
Width: 1200
VWidth: 2048
GlyphClass: 2
Flags: W
LayerCount: 2
Fore
SplineSet
-2.2001953125 535.633789062 m 4,0,1
 -2.2001953125 784.245117188 -2.2001953125 784.245117188 112.099609375 1020.5859375 c 132,-1,2
 226.400390625 1256.92578125 226.400390625 1256.92578125 407.299804688 1398.83691406 c 132,-1,3
 588.200195312 1540.74804688 588.200195312 1540.74804688 773.599609375 1540.74804688 c 4,4,5
 954.5 1540.74804688 954.5 1540.74804688 1052.59960938 1355.08984375 c 5,6,-1
 1168.70019531 1516.20703125 l 6,7,8
 1184.90039062 1540.74804688 1184.90039062 1540.74804688 1197.5 1540.74804688 c 4,9,10
 1218.20019531 1540.74804688 1218.20019531 1540.74804688 1218.20019531 1518.34082031 c 4,11,12
 1218.20019531 1505.53613281 1218.20019531 1505.53613281 1214.59960938 1488.46484375 c 6,13,-1
 1102.09960938 957.099609375 l 6,14,15
 1096.70019531 930.423828125 1096.70019531 930.423828125 1091.29980469 924.021484375 c 132,-1,16
 1085.90039062 917.620117188 1085.90039062 917.620117188 1068.79980469 917.620117188 c 4,17,18
 1040.90039062 917.620117188 1040.90039062 917.620117188 1040.90039062 940.026367188 c 4,19,20
 1040.90039062 942.161132812 1040.90039062 942.161132812 1042.70019531 964.034179688 c 132,-1,21
 1044.5 985.908203125 1044.5 985.908203125 1047.65039062 1017.38378906 c 132,-1,22
 1050.79980469 1048.86035156 1050.79980469 1048.86035156 1050.79980469 1073.40136719 c 4,23,24
 1050.79980469 1237.71972656 1050.79980469 1237.71972656 986.900390625 1355.08984375 c 132,-1,25
 923 1472.45996094 923 1472.45996094 788.900390625 1472.45996094 c 4,26,27
 678.200195312 1472.45996094 678.200195312 1472.45996094 560.299804688 1395.10253906 c 132,-1,28
 442.400390625 1317.74511719 442.400390625 1317.74511719 351.5 1171.56542969 c 4,29,30
 253.400390625 1011.515625 253.400390625 1011.515625 205.700195312 799.716796875 c 132,-1,31
 158 587.916992188 158 587.916992188 158 452.408203125 c 4,32,33
 158 235.806640625 158 235.806640625 251.150390625 127.506835938 c 132,-1,34
 344.299804688 19.2060546875 344.299804688 19.2060546875 475.700195312 19.2060546875 c 4,35,36
 610.700195312 19.2060546875 610.700195312 19.2060546875 749.299804688 147.24609375 c 132,-1,37
 887.900390625 275.286132812 887.900390625 275.286132812 952.700195312 529.231445312 c 4,38,39
 958.099609375 546.303710938 958.099609375 546.303710938 982.400390625 546.303710938 c 4,40,41
 1010.29980469 546.303710938 1010.29980469 546.303710938 1010.29980469 524.963867188 c 4,42,43
 1010.29980469 479.083007812 1010.29980469 479.083007812 971.599609375 389.455078125 c 132,-1,44
 932.900390625 299.826171875 932.900390625 299.826171875 866.299804688 200.0625 c 132,-1,45
 799.700195312 100.298828125 799.700195312 100.298828125 687.200195312 26.1416015625 c 132,-1,46
 574.700195312 -48.0146484375 574.700195312 -48.0146484375 449.599609375 -48.0146484375 c 4,47,48
 254.299804688 -48.0146484375 254.299804688 -48.0146484375 126.049804688 111.501953125 c 132,-1,49
 -2.2001953125 271.018554688 -2.2001953125 271.018554688 -2.2001953125 535.633789062 c 4,0,1
EndSplineSet
Substitution2: "'fwid' Full Widths lookup 32 subtable" uniFF23
Substitution2: "'c2sc' Capitals to Small Capitals lookup 26 subtable" c.sc
AlternateSubs2: "'aalt' Access All Alternates lookup 1 subtable" c.sc uniFF23
EndChar

StartChar: D
Encoding: 68 68 3
Width: 1200
VWidth: 2048
GlyphClass: 2
Flags: W
LayerCount: 2
Fore
SplineSet
-58.349609375 27.5 m 4,0,1
 -58.349609375 57.2001953125 -58.349609375 57.2001953125 -47.724609375 63.25 c 132,-1,2
 -37.099609375 69.2998046875 -37.099609375 69.2998046875 -11.599609375 69.2998046875 c 4,3,4
 73.400390625 69.2998046875 73.400390625 69.2998046875 97.2001953125 86.349609375 c 132,-1,5
 121 103.400390625 121 103.400390625 131.200195312 165 c 6,6,-1
 366.650390625 1388.20019531 l 6,7,8
 373.450195312 1420.09960938 373.450195312 1420.09960938 373.450195312 1430 c 4,9,10
 373.450195312 1455.29980469 373.450195312 1455.29980469 349.224609375 1461.90039062 c 132,-1,11
 325 1468.5 325 1468.5 272.299804688 1468.5 c 4,12,13
 252.75 1468.5 252.75 1468.5 245.099609375 1469.59960938 c 132,-1,14
 237.450195312 1470.70019531 237.450195312 1470.70019531 231.5 1476.75 c 132,-1,15
 225.549804688 1482.79980469 225.549804688 1482.79980469 225.549804688 1496 c 4,16,17
 225.549804688 1525.70019531 225.549804688 1525.70019531 235.75 1532.29980469 c 132,-1,18
 245.950195312 1538.90039062 245.950195312 1538.90039062 272.299804688 1538.90039062 c 6,19,-1
 815.450195312 1538.90039062 l 6,20,21
 982.900390625 1538.90039062 982.900390625 1538.90039062 1081.92480469 1385.45019531 c 132,-1,22
 1180.95019531 1232 1180.95019531 1232 1180.95019531 986.700195312 c 4,23,24
 1180.95019531 739.200195312 1180.95019531 739.200195312 1085.32519531 509.299804688 c 132,-1,25
 989.700195312 279.400390625 989.700195312 279.400390625 835.424804688 139.700195312 c 132,-1,26
 681.150390625 0 681.150390625 0 519.650390625 0 c 6,27,-1
 -15 0 l 6,28,29
 -32 0 -32 0 -39.224609375 1.099609375 c 132,-1,30
 -46.4501953125 2.2001953125 -46.4501953125 2.2001953125 -52.400390625 8.25 c 132,-1,31
 -58.349609375 14.2998046875 -58.349609375 14.2998046875 -58.349609375 27.5 c 4,0,1
257 92.400390625 m 132,-1,33
 257 83.599609375 257 83.599609375 258.700195312 79.2001953125 c 132,-1,34
 260.400390625 74.7998046875 260.400390625 74.7998046875 272.299804688 72.0498046875 c 132,-1,35
 284.200195312 69.2998046875 284.200195312 69.2998046875 310.549804688 69.2998046875 c 6,36,-1
 489.900390625 69.2998046875 l 6,37,38
 690.5 69.2998046875 690.5 69.2998046875 838.400390625 292.599609375 c 4,39,40
 936.150390625 441.099609375 936.150390625 441.099609375 986.299804688 684.75 c 132,-1,41
 1036.45019531 928.400390625 1036.45019531 928.400390625 1036.45019531 1072.5 c 4,42,43
 1036.45019531 1277.09960938 1036.45019531 1277.09960938 956.549804688 1372.79980469 c 132,-1,44
 876.650390625 1468.5 876.650390625 1468.5 758.5 1468.5 c 6,45,-1
 589.349609375 1468.5 l 6,46,47
 544.299804688 1468.5 544.299804688 1468.5 529.424804688 1456.40039062 c 132,-1,48
 514.549804688 1444.29980469 514.549804688 1444.29980469 504.349609375 1388.20019531 c 6,49,-1
 263.799804688 141.900390625 l 6,50,51
 263.799804688 139.700195312 263.799804688 139.700195312 260.400390625 120.450195312 c 132,-1,32
 257 101.200195312 257 101.200195312 257 92.400390625 c 132,-1,33
EndSplineSet
Substitution2: "'fwid' Full Widths lookup 32 subtable" uniFF24
Substitution2: "'c2sc' Capitals to Small Capitals lookup 26 subtable" d.sc
AlternateSubs2: "'aalt' Access All Alternates lookup 1 subtable" d.sc uniFF24
EndChar

StartChar: E
Encoding: 69 69 4
Width: 1200
VWidth: 2048
GlyphClass: 2
Flags: W
LayerCount: 2
Fore
SplineSet
-35.2001953125 27.5 m 4,0,1
 -35.2001953125 57.2001953125 -35.2001953125 57.2001953125 -23.9501953125 63.25 c 132,-1,2
 -12.7001953125 69.2998046875 -12.7001953125 69.2998046875 14.2998046875 69.2998046875 c 4,3,4
 104.299804688 69.2998046875 104.299804688 69.2998046875 129.5 86.349609375 c 132,-1,5
 154.700195312 103.400390625 154.700195312 103.400390625 165.5 165 c 6,6,-1
 413 1371.70019531 l 6,7,8
 420.200195312 1405.79980469 420.200195312 1405.79980469 420.200195312 1423.40039062 c 4,9,10
 420.200195312 1436.59960938 420.200195312 1436.59960938 416.599609375 1443.75 c 132,-1,11
 413 1450.90039062 413 1450.90039062 387.799804688 1456.40039062 c 132,-1,12
 362.599609375 1461.90039062 362.599609375 1461.90039062 313.099609375 1461.90039062 c 4,13,14
 290.599609375 1461.90039062 290.599609375 1461.90039062 282.5 1463 c 132,-1,15
 274.400390625 1464.09960938 274.400390625 1464.09960938 269 1470.70019531 c 132,-1,16
 263.599609375 1477.29980469 263.599609375 1477.29980469 263.599609375 1491.59960938 c 4,17,18
 263.599609375 1519.09960938 263.599609375 1519.09960938 274.400390625 1525.70019531 c 132,-1,19
 285.200195312 1532.29980469 285.200195312 1532.29980469 313.099609375 1532.29980469 c 6,20,-1
 1173.5 1532.29980469 l 6,21,22
 1191.5 1532.29980469 1191.5 1532.29980469 1196.90039062 1531.20019531 c 4,23,24
 1204.09960938 1531.20019531 1204.09960938 1531.20019531 1213.09960938 1524.59960938 c 4,25,26
 1220.29980469 1520.20019531 1220.29980469 1520.20019531 1220.29980469 1511.40039062 c 4,27,28
 1220.29980469 1509.20019531 1220.29980469 1509.20019531 1219.40039062 1507 c 4,29,30
 1216.70019531 1496 1216.70019531 1496 1218.5 1472.90039062 c 5,31,-1
 1176.20019531 1074.70019531 l 6,32,33
 1174.40039062 1052.70019531 1174.40039062 1052.70019531 1172.15039062 1043.34960938 c 132,-1,34
 1169.90039062 1034 1169.90039062 1034 1163.59960938 1029.59960938 c 132,-1,35
 1157.29980469 1025.20019531 1157.29980469 1025.20019531 1144.70019531 1025.20019531 c 4,36,37
 1116.79980469 1025.20019531 1116.79980469 1025.20019531 1116.79980469 1051.59960938 c 4,38,39
 1116.79980469 1067 1116.79980469 1067 1120.40039062 1090.09960938 c 4,40,41
 1129.40039062 1180.29980469 1129.40039062 1180.29980469 1129.40039062 1234.20019531 c 4,42,43
 1129.40039062 1360.70019531 1129.40039062 1360.70019531 1079 1411.29980469 c 132,-1,44
 1028.59960938 1461.90039062 1028.59960938 1461.90039062 884.599609375 1461.90039062 c 6,45,-1
 654.200195312 1461.90039062 l 6,46,47
 606.5 1461.90039062 606.5 1461.90039062 591.650390625 1450.90039062 c 132,-1,48
 576.799804688 1439.90039062 576.799804688 1439.90039062 566 1386 c 6,49,-1
 453.5 831.599609375 l 5,50,-1
 602.900390625 831.599609375 l 6,51,52
 711.799804688 831.599609375 711.799804688 831.599609375 753.200195312 874.5 c 132,-1,53
 794.599609375 917.400390625 794.599609375 917.400390625 821.599609375 1040.59960938 c 4,54,55
 832.400390625 1090.09960938 832.400390625 1090.09960938 842.299804688 1092.29980469 c 4,56,57
 847.700195312 1094.5 847.700195312 1094.5 856.700195312 1094.5 c 4,58,59
 886.400390625 1094.5 886.400390625 1094.5 886.400390625 1068.09960938 c 4,60,61
 886.400390625 1059.29980469 886.400390625 1059.29980469 881 1038.40039062 c 6,62,-1
 779.299804688 543.400390625 l 6,63,64
 773.900390625 513.700195312 773.900390625 513.700195312 768.5 506 c 132,-1,65
 763.099609375 498.299804688 763.099609375 498.299804688 746 498.299804688 c 4,66,67
 716.299804688 498.299804688 716.299804688 498.299804688 717.200195312 524.700195312 c 4,68,69
 717.200195312 529.099609375 717.200195312 529.099609375 719 538.450195312 c 132,-1,70
 720.799804688 547.799804688 720.799804688 547.799804688 720.799804688 550 c 4,71,72
 737 624.799804688 737 624.799804688 737 664.400390625 c 4,73,74
 737 716.099609375 737 716.099609375 711.349609375 738.650390625 c 132,-1,75
 685.700195312 761.200195312 685.700195312 761.200195312 598.400390625 761.200195312 c 6,76,-1
 438.200195312 761.200195312 l 5,77,-1
 311.299804688 141.900390625 l 6,78,79
 311.299804688 139.700195312 311.299804688 139.700195312 307.700195312 120.450195312 c 132,-1,80
 304.099609375 101.200195312 304.099609375 101.200195312 304.099609375 92.400390625 c 132,-1,81
 304.099609375 83.599609375 304.099609375 83.599609375 305.900390625 79.2001953125 c 132,-1,82
 307.700195312 74.7998046875 307.700195312 74.7998046875 320.75 72.0498046875 c 132,-1,83
 333.799804688 69.2998046875 333.799804688 69.2998046875 360.799804688 69.2998046875 c 6,84,-1
 585.799804688 69.2998046875 l 6,85,86
 672.200195312 69.2998046875 672.200195312 69.2998046875 737 89.650390625 c 132,-1,87
 801.799804688 110 801.799804688 110 845 139.700195312 c 132,-1,88
 888.200195312 169.400390625 888.200195312 169.400390625 926 233.200195312 c 132,-1,89
 963.799804688 297 963.799804688 297 988.549804688 358.049804688 c 132,-1,90
 1013.29980469 419.099609375 1013.29980469 419.099609375 1050.20019531 526.900390625 c 4,91,92
 1062.79980469 565.400390625 1062.79980469 565.400390625 1068.65039062 573.099609375 c 132,-1,93
 1074.5 580.799804688 1074.5 580.799804688 1088.90039062 580.799804688 c 4,94,95
 1116.79980469 580.799804688 1116.79980469 580.799804688 1116.79980469 556.599609375 c 4,96,97
 1116.79980469 547.799804688 1116.79980469 547.799804688 1109.59960938 529.099609375 c 6,98,-1
 945.799804688 36.2998046875 l 6,99,100
 936.799804688 11 936.799804688 11 929.150390625 5.5 c 132,-1,101
 921.5 0 921.5 0 893.599609375 0 c 6,102,-1
 10.7001953125 0 l 6,103,104
 -7.2998046875 0 -7.2998046875 0 -14.9501953125 1.099609375 c 132,-1,105
 -22.599609375 2.2001953125 -22.599609375 2.2001953125 -28.900390625 8.25 c 132,-1,106
 -35.2001953125 14.2998046875 -35.2001953125 14.2998046875 -35.2001953125 27.5 c 4,0,1
EndSplineSet
Validated: 513
Substitution2: "'fwid' Full Widths lookup 32 subtable" uniFF25
Substitution2: "'c2sc' Capitals to Small Capitals lookup 26 subtable" e.sc
AlternateSubs2: "'aalt' Access All Alternates lookup 1 subtable" e.sc uniFF25
EndChar

StartChar: F
Encoding: 70 70 5
Width: 1200
VWidth: 2048
GlyphClass: 2
Flags: W
LayerCount: 2
Fore
SplineSet
-16.900390625 27.5 m 4,0,1
 -16.900390625 57.2001953125 -16.900390625 57.2001953125 -5.650390625 63.25 c 132,-1,2
 5.599609375 69.2998046875 5.599609375 69.2998046875 32.599609375 69.2998046875 c 4,3,4
 122.599609375 69.2998046875 122.599609375 69.2998046875 147.799804688 86.349609375 c 132,-1,5
 173 103.400390625 173 103.400390625 183.799804688 165 c 6,6,-1
 431.299804688 1371.70019531 l 6,7,8
 438.5 1405.79980469 438.5 1405.79980469 438.5 1423.40039062 c 4,9,10
 438.5 1436.59960938 438.5 1436.59960938 434.900390625 1443.75 c 132,-1,11
 431.299804688 1450.90039062 431.299804688 1450.90039062 406.099609375 1456.40039062 c 132,-1,12
 380.900390625 1461.90039062 380.900390625 1461.90039062 331.400390625 1461.90039062 c 4,13,14
 308.900390625 1461.90039062 308.900390625 1461.90039062 300.799804688 1463 c 132,-1,15
 292.700195312 1464.09960938 292.700195312 1464.09960938 287.299804688 1470.70019531 c 132,-1,16
 281.900390625 1477.29980469 281.900390625 1477.29980469 281.900390625 1491.59960938 c 4,17,18
 281.900390625 1519.09960938 281.900390625 1519.09960938 292.700195312 1525.70019531 c 132,-1,19
 303.5 1532.29980469 303.5 1532.29980469 331.400390625 1532.29980469 c 6,20,-1
 1170.20019531 1532.29980469 l 6,21,22
 1188.20019531 1532.29980469 1188.20019531 1532.29980469 1193.59960938 1531.20019531 c 4,23,24
 1199.90039062 1531.20019531 1199.90039062 1531.20019531 1208.90039062 1524.59960938 c 4,25,26
 1216.09960938 1520.20019531 1216.09960938 1520.20019531 1216.09960938 1511.40039062 c 4,27,28
 1216.09960938 1509.20019531 1216.09960938 1509.20019531 1215.20019531 1507 c 4,29,30
 1212.5 1496 1212.5 1496 1214.29980469 1472.90039062 c 5,31,-1
 1172 1074.70019531 l 6,32,33
 1170.20019531 1052.70019531 1170.20019531 1052.70019531 1168.40039062 1043.34960938 c 132,-1,34
 1166.59960938 1034 1166.59960938 1034 1159.84960938 1029.59960938 c 132,-1,35
 1153.09960938 1025.20019531 1153.09960938 1025.20019531 1140.5 1025.20019531 c 4,36,37
 1112.59960938 1025.20019531 1112.59960938 1025.20019531 1112.59960938 1051.59960938 c 6,38,-1
 1114.40039062 1087.90039062 l 5,39,40
 1125.20019531 1191.29980469 1125.20019531 1191.29980469 1126.09960938 1236.40039062 c 4,41,42
 1126.09960938 1360.70019531 1126.09960938 1360.70019531 1077.95019531 1411.29980469 c 132,-1,43
 1029.79980469 1461.90039062 1029.79980469 1461.90039062 888.5 1461.90039062 c 6,44,-1
 672.5 1461.90039062 l 6,45,46
 624.799804688 1461.90039062 624.799804688 1461.90039062 609.950195312 1450.90039062 c 132,-1,47
 595.099609375 1439.90039062 595.099609375 1439.90039062 584.299804688 1386 c 6,48,-1
 466.400390625 801.900390625 l 5,49,-1
 609.5 801.900390625 l 6,50,51
 718.400390625 801.900390625 718.400390625 801.900390625 758.900390625 845.900390625 c 132,-1,52
 799.400390625 889.900390625 799.400390625 889.900390625 825.5 1018.59960938 c 4,53,54
 832.700195312 1050.5 832.700195312 1050.5 838.099609375 1058.20019531 c 132,-1,55
 843.5 1065.90039062 843.5 1065.90039062 860.599609375 1065.90039062 c 4,56,57
 888.5 1065.90039062 888.5 1065.90039062 888.5 1040.59960938 c 4,58,59
 888.5 1027.40039062 888.5 1027.40039062 884 1009.79980469 c 6,60,-1
 783.200195312 513.700195312 l 6,61,62
 776 481.799804688 776 481.799804688 770.150390625 475.200195312 c 132,-1,63
 764.299804688 468.599609375 764.299804688 468.599609375 748.099609375 468.599609375 c 4,64,65
 720.200195312 468.599609375 720.200195312 468.599609375 720.200195312 496.099609375 c 4,66,67
 720.200195312 504.900390625 720.200195312 504.900390625 725.599609375 526.900390625 c 4,68,69
 740 599.5 740 599.5 740.900390625 638 c 4,70,71
 740.900390625 687.5 740.900390625 687.5 714.799804688 710.049804688 c 132,-1,72
 688.700195312 732.599609375 688.700195312 732.599609375 604.099609375 732.599609375 c 6,73,-1
 451.099609375 732.599609375 l 5,74,-1
 335 165 l 6,75,76
 327.799804688 130.900390625 327.799804688 130.900390625 327.799804688 116.599609375 c 4,77,78
 327.799804688 99 327.799804688 99 332.299804688 91.2998046875 c 132,-1,79
 336.799804688 83.599609375 336.799804688 83.599609375 367.400390625 76.4501953125 c 132,-1,80
 398 69.2998046875 398 69.2998046875 461.900390625 69.2998046875 c 6,81,-1
 480.799804688 69.2998046875 l 6,82,83
 498.799804688 69.2998046875 498.799804688 69.2998046875 506.450195312 68.2001953125 c 132,-1,84
 514.099609375 67.099609375 514.099609375 67.099609375 520.400390625 61.599609375 c 132,-1,85
 526.700195312 56.099609375 526.700195312 56.099609375 526.700195312 42.900390625 c 4,86,87
 526.700195312 0 526.700195312 0 488 0 c 4,88,89
 447.5 0 447.5 0 362 3.2998046875 c 132,-1,90
 276.5 6.599609375 276.5 6.599609375 234.200195312 6.599609375 c 4,91,92
 197.299804688 6.599609375 197.299804688 6.599609375 121.700195312 3.2998046875 c 132,-1,93
 46.099609375 0 46.099609375 0 9.2001953125 0 c 4,94,95
 -16.900390625 0 -16.900390625 0 -16.900390625 27.5 c 4,0,1
EndSplineSet
Validated: 513
Substitution2: "'fwid' Full Widths lookup 32 subtable" uniFF26
Substitution2: "'c2sc' Capitals to Small Capitals lookup 26 subtable" f.sc
AlternateSubs2: "'aalt' Access All Alternates lookup 1 subtable" f.sc uniFF26
EndChar

StartChar: G
Encoding: 71 71 6
Width: 1200
VWidth: 2048
GlyphClass: 2
Flags: W
LayerCount: 2
Fore
SplineSet
0.099609375 552.200195312 m 4,0,1
 0.099609375 808.5 0.099609375 808.5 114.400390625 1052.15039062 c 132,-1,2
 228.700195312 1295.79980469 228.700195312 1295.79980469 409.599609375 1442.09960938 c 132,-1,3
 590.5 1588.40039062 590.5 1588.40039062 775.900390625 1588.40039062 c 4,4,5
 956.799804688 1588.40039062 956.799804688 1588.40039062 1054.90039062 1397 c 5,6,-1
 1171 1563.09960938 l 6,7,8
 1187.20019531 1588.40039062 1187.20019531 1588.40039062 1199.79980469 1588.40039062 c 4,9,10
 1220.5 1588.40039062 1220.5 1588.40039062 1220.5 1565.29980469 c 4,11,12
 1220.5 1552.09960938 1220.5 1552.09960938 1216.90039062 1534.5 c 6,13,-1
 1104.40039062 986.700195312 l 6,14,15
 1099 959.200195312 1099 959.200195312 1093.59960938 952.599609375 c 132,-1,16
 1088.20019531 946 1088.20019531 946 1071.09960938 946 c 4,17,18
 1043.20019531 946 1043.20019531 946 1043.20019531 969.099609375 c 4,19,20
 1043.20019531 971.299804688 1043.20019531 971.299804688 1045 993.849609375 c 132,-1,21
 1046.79980469 1016.40039062 1046.79980469 1016.40039062 1049.95019531 1048.84960938 c 132,-1,22
 1053.09960938 1081.29980469 1053.09960938 1081.29980469 1053.09960938 1106.59960938 c 4,23,24
 1053.09960938 1276 1053.09960938 1276 989.200195312 1397 c 132,-1,25
 925.299804688 1518 925.299804688 1518 791.200195312 1518 c 4,26,27
 680.5 1518 680.5 1518 562.599609375 1438.25 c 132,-1,28
 444.700195312 1358.5 444.700195312 1358.5 353.799804688 1207.79980469 c 4,29,30
 253.900390625 1040.59960938 253.900390625 1040.59960938 207.099609375 823.349609375 c 132,-1,31
 160.299804688 606.099609375 160.299804688 606.099609375 160.299804688 468.599609375 c 4,32,33
 160.299804688 254.099609375 160.299804688 254.099609375 253.450195312 136.950195312 c 132,-1,34
 346.599609375 19.7998046875 346.599609375 19.7998046875 487 19.7998046875 c 4,35,36
 634.599609375 19.7998046875 634.599609375 19.7998046875 737.200195312 135.299804688 c 4,37,38
 777.700195312 180.400390625 777.700195312 180.400390625 791.650390625 222.200195312 c 132,-1,39
 805.599609375 264 805.599609375 264 837.099609375 423.5 c 4,40,41
 851.5 486.200195312 851.5 486.200195312 851.5 500.5 c 4,42,43
 851.5 515.900390625 851.5 515.900390625 845.200195312 523.599609375 c 132,-1,44
 838.900390625 531.299804688 838.900390625 531.299804688 830.799804688 533.5 c 132,-1,45
 822.700195312 535.700195312 822.700195312 535.700195312 798.400390625 541.200195312 c 4,46,47
 750.700195312 545.599609375 750.700195312 545.599609375 719.200195312 545.599609375 c 6,48,-1
 704.799804688 545.599609375 l 6,49,50
 657.099609375 545.599609375 657.099609375 545.599609375 656.200195312 569.799804688 c 4,51,52
 656.200195312 614.900390625 656.200195312 614.900390625 694.900390625 614.900390625 c 132,-1,53
 733.599609375 614.900390625 733.599609375 614.900390625 815.049804688 611.599609375 c 132,-1,54
 896.5 608.299804688 896.5 608.299804688 937 608.299804688 c 4,55,56
 966.700195312 608.299804688 966.700195312 608.299804688 1027.45019531 611.599609375 c 132,-1,57
 1088.20019531 614.900390625 1088.20019531 614.900390625 1115.20019531 614.900390625 c 4,58,59
 1139.5 614.900390625 1139.5 614.900390625 1139.5 585.200195312 c 4,60,61
 1139.5 557.700195312 1139.5 557.700195312 1128.25 551.650390625 c 132,-1,62
 1117 545.599609375 1117 545.599609375 1095.40039062 545.599609375 c 4,63,64
 1056.70019531 545.599609375 1056.70019531 545.599609375 1036.45019531 536.25 c 132,-1,65
 1016.20019531 526.900390625 1016.20019531 526.900390625 1011.25 514.799804688 c 132,-1,66
 1006.29980469 502.700195312 1006.29980469 502.700195312 999.099609375 470.799804688 c 6,67,-1
 910.900390625 40.7001953125 l 6,68,69
 901.900390625 2.2001953125 901.900390625 2.2001953125 888.400390625 2.2001953125 c 4,70,71
 874 2.2001953125 874 2.2001953125 849.25 47.2998046875 c 132,-1,72
 824.5 92.400390625 824.5 92.400390625 811 137.5 c 5,73,74
 765.099609375 64.900390625 765.099609375 64.900390625 667.450195312 7.7001953125 c 132,-1,75
 569.799804688 -49.5 569.799804688 -49.5 453.700195312 -49.5 c 4,76,77
 254.799804688 -49.5 254.799804688 -49.5 127.450195312 116.049804688 c 132,-1,78
 0.099609375 281.599609375 0.099609375 281.599609375 0.099609375 552.200195312 c 4,0,1
EndSplineSet
Validated: 513
Substitution2: "'fwid' Full Widths lookup 32 subtable" uniFF27
Substitution2: "'c2sc' Capitals to Small Capitals lookup 26 subtable" g.sc
AlternateSubs2: "'aalt' Access All Alternates lookup 1 subtable" g.sc uniFF27
EndChar

StartChar: H
Encoding: 72 72 7
Width: 1200
VWidth: 2048
GlyphClass: 2
Flags: W
LayerCount: 2
Fore
SplineSet
-50.5693359375 27.5 m 4,0,1
 -50.5693359375 57.2001953125 -50.5693359375 57.2001953125 -40.4443359375 63.25 c 132,-1,2
 -30.3193359375 69.2998046875 -30.3193359375 69.2998046875 -6.01953125 69.2998046875 c 4,3,4
 74.98046875 69.2998046875 74.98046875 69.2998046875 97.66015625 86.349609375 c 132,-1,5
 120.33984375 103.400390625 120.33984375 103.400390625 130.060546875 165 c 6,6,-1
 354.430664062 1388.20019531 l 6,7,8
 360.91015625 1420.09960938 360.91015625 1420.09960938 360.91015625 1430 c 4,9,10
 360.91015625 1455.29980469 360.91015625 1455.29980469 337.825195312 1461.90039062 c 132,-1,11
 314.739257812 1468.5 314.739257812 1468.5 264.51953125 1468.5 c 4,12,13
 245.889648438 1468.5 245.889648438 1468.5 238.599609375 1469.59960938 c 132,-1,14
 231.310546875 1470.70019531 231.310546875 1470.70019531 225.639648438 1476.75 c 132,-1,15
 219.969726562 1482.79980469 219.969726562 1482.79980469 219.969726562 1496 c 4,16,17
 219.969726562 1538.90039062 219.969726562 1538.90039062 251.560546875 1538.90039062 c 132,-1,18
 283.150390625 1538.90039062 283.150390625 1538.90039062 350.379882812 1535.59960938 c 132,-1,19
 417.610351562 1532.29980469 417.610351562 1532.29980469 450.415039062 1532.29980469 c 132,-1,20
 483.219726562 1532.29980469 483.219726562 1532.29980469 548.830078125 1535.59960938 c 132,-1,21
 614.439453125 1538.90039062 614.439453125 1538.90039062 646.030273438 1538.90039062 c 4,22,23
 669.51953125 1538.90039062 669.51953125 1538.90039062 669.51953125 1509.20019531 c 4,24,25
 669.51953125 1481.70019531 669.51953125 1481.70019531 659.39453125 1475.09960938 c 132,-1,26
 649.26953125 1468.5 649.26953125 1468.5 619.299804688 1468.5 c 4,27,28
 543.16015625 1468.5 543.16015625 1468.5 520.885742188 1452 c 132,-1,29
 498.610351562 1435.5 498.610351562 1435.5 488.889648438 1378.29980469 c 6,30,-1
 389.260742188 836 l 5,31,-1
 843.669921875 836 l 5,32,-1
 944.919921875 1388.20019531 l 6,33,34
 951.400390625 1420.09960938 951.400390625 1420.09960938 951.400390625 1430 c 4,35,36
 951.400390625 1455.29980469 951.400390625 1455.29980469 928.314453125 1461.90039062 c 132,-1,37
 905.23046875 1468.5 905.23046875 1468.5 855.010742188 1468.5 c 4,38,39
 836.379882812 1468.5 836.379882812 1468.5 829.08984375 1469.59960938 c 132,-1,40
 821.799804688 1470.70019531 821.799804688 1470.70019531 816.129882812 1476.75 c 132,-1,41
 810.459960938 1482.79980469 810.459960938 1482.79980469 810.459960938 1496 c 4,42,43
 810.459960938 1538.90039062 810.459960938 1538.90039062 842.049804688 1538.90039062 c 132,-1,44
 873.639648438 1538.90039062 873.639648438 1538.90039062 940.870117188 1535.59960938 c 132,-1,45
 1008.09960938 1532.29980469 1008.09960938 1532.29980469 1041.31054688 1532.29980469 c 132,-1,46
 1074.51953125 1532.29980469 1074.51953125 1532.29980469 1139.72460938 1535.59960938 c 132,-1,47
 1204.93066406 1538.90039062 1204.93066406 1538.90039062 1236.51953125 1538.90039062 c 4,48,49
 1260.01074219 1538.90039062 1260.01074219 1538.90039062 1260.01074219 1509.20019531 c 4,50,51
 1260.01074219 1481.70019531 1260.01074219 1481.70019531 1249.88574219 1475.09960938 c 132,-1,52
 1239.76074219 1468.5 1239.76074219 1468.5 1209.79003906 1468.5 c 4,53,54
 1133.65039062 1468.5 1133.65039062 1468.5 1111.375 1452 c 132,-1,55
 1089.09960938 1435.5 1089.09960938 1435.5 1079.37988281 1378.29980469 c 6,56,-1
 855.010742188 159.5 l 6,57,58
 848.530273438 125.400390625 848.530273438 125.400390625 848.530273438 107.799804688 c 4,59,60
 848.530273438 94.599609375 848.530273438 94.599609375 851.76953125 88 c 132,-1,61
 855.010742188 81.400390625 855.010742188 81.400390625 877.28515625 75.349609375 c 132,-1,62
 899.560546875 69.2998046875 899.560546875 69.2998046875 944.919921875 69.2998046875 c 4,63,64
 965.169921875 69.2998046875 965.169921875 69.2998046875 972.459960938 68.2001953125 c 132,-1,65
 979.75 67.099609375 979.75 67.099609375 984.610351562 60.5 c 132,-1,66
 989.469726562 53.900390625 989.469726562 53.900390625 989.469726562 40.7001953125 c 4,67,68
 989.469726562 0 989.469726562 0 957.879882812 0 c 132,-1,69
 926.290039062 0 926.290039062 0 859.060546875 3.2998046875 c 132,-1,70
 791.830078125 6.599609375 791.830078125 6.599609375 758.620117188 6.599609375 c 132,-1,71
 725.41015625 6.599609375 725.41015625 6.599609375 660.205078125 3.2998046875 c 132,-1,72
 595 0 595 0 563.41015625 0 c 4,73,74
 539.919921875 0 539.919921875 0 539.919921875 27.5 c 4,75,76
 539.919921875 57.2001953125 539.919921875 57.2001953125 550.044921875 63.25 c 132,-1,77
 560.169921875 69.2998046875 560.169921875 69.2998046875 584.469726562 69.2998046875 c 4,78,79
 665.469726562 69.2998046875 665.469726562 69.2998046875 688.150390625 86.349609375 c 132,-1,80
 710.830078125 103.400390625 710.830078125 103.400390625 720.549804688 165 c 6,81,-1
 829.900390625 765.599609375 l 5,82,-1
 375.489257812 765.599609375 l 5,83,-1
 264.51953125 152.900390625 l 6,84,85
 258.040039062 121 258.040039062 121 258.040039062 107.799804688 c 132,-1,86
 258.040039062 94.599609375 258.040039062 94.599609375 261.280273438 88 c 132,-1,87
 264.51953125 81.400390625 264.51953125 81.400390625 286.794921875 75.349609375 c 132,-1,88
 309.0703125 69.2998046875 309.0703125 69.2998046875 354.430664062 69.2998046875 c 4,89,90
 374.680664062 69.2998046875 374.680664062 69.2998046875 381.969726562 68.2001953125 c 132,-1,91
 389.260742188 67.099609375 389.260742188 67.099609375 394.120117188 60.5 c 132,-1,92
 398.98046875 53.900390625 398.98046875 53.900390625 398.98046875 40.7001953125 c 4,93,94
 398.98046875 0 398.98046875 0 367.389648438 0 c 132,-1,95
 335.799804688 0 335.799804688 0 268.5703125 3.2998046875 c 132,-1,96
 201.33984375 6.599609375 201.33984375 6.599609375 168.129882812 6.599609375 c 132,-1,97
 134.919921875 6.599609375 134.919921875 6.599609375 69.71484375 3.2998046875 c 132,-1,98
 4.5107421875 0 4.5107421875 0 -27.080078125 0 c 4,99,100
 -50.5693359375 0 -50.5693359375 0 -50.5693359375 27.5 c 4,0,1
EndSplineSet
Validated: 513
Substitution2: "'fwid' Full Widths lookup 32 subtable" uniFF28
Substitution2: "'c2sc' Capitals to Small Capitals lookup 26 subtable" h.sc
AlternateSubs2: "'aalt' Access All Alternates lookup 1 subtable" h.sc uniFF28
EndChar

StartChar: I
Encoding: 73 73 8
Width: 1200
VWidth: 2048
GlyphClass: 2
Flags: W
LayerCount: 2
Fore
SplineSet
102.700195312 29.7001953125 m 4,0,1
 102.700195312 57.2001953125 102.700195312 57.2001953125 115.900390625 63.25 c 132,-1,2
 129.099609375 69.2998046875 129.099609375 69.2998046875 169.799804688 69.2998046875 c 4,3,4
 279.799804688 69.2998046875 279.799804688 69.2998046875 312.799804688 86.349609375 c 132,-1,5
 345.799804688 103.400390625 345.799804688 103.400390625 359 161.700195312 c 6,6,-1
 665.900390625 1388.20019531 l 6,7,8
 672.5 1408 672.5 1408 672.5 1430 c 4,9,10
 672.5 1455.29980469 672.5 1455.29980469 638.400390625 1461.90039062 c 132,-1,11
 604.299804688 1468.5 604.299804688 1468.5 530.599609375 1468.5 c 4,12,13
 503.099609375 1468.5 503.099609375 1468.5 493.200195312 1469.59960938 c 132,-1,14
 483.299804688 1470.70019531 483.299804688 1470.70019531 476.700195312 1477.84960938 c 132,-1,15
 470.099609375 1485 470.099609375 1485 470.099609375 1498.20019531 c 4,16,17
 470.099609375 1538.90039062 470.099609375 1538.90039062 511.900390625 1538.90039062 c 4,18,19
 559.200195312 1538.90039062 559.200195312 1538.90039062 654.349609375 1535.59960938 c 132,-1,20
 749.5 1532.29980469 749.5 1532.29980469 793.5 1532.29980469 c 4,21,22
 840.799804688 1532.29980469 840.799804688 1532.29980469 933.200195312 1535.59960938 c 132,-1,23
 1025.59960938 1538.90039062 1025.59960938 1538.90039062 1070.70019531 1538.90039062 c 4,24,25
 1102.59960938 1538.90039062 1102.59960938 1538.90039062 1102.59960938 1511.40039062 c 4,26,27
 1102.59960938 1481.70019531 1102.59960938 1481.70019531 1087.75 1475.09960938 c 132,-1,28
 1072.90039062 1468.5 1072.90039062 1468.5 1033.29980469 1468.5 c 4,29,30
 923.299804688 1468.5 923.299804688 1468.5 891.400390625 1452 c 132,-1,31
 859.5 1435.5 859.5 1435.5 846.299804688 1376.09960938 c 6,32,-1
 541.599609375 159.5 l 6,33,34
 532.799804688 125.400390625 532.799804688 125.400390625 532.799804688 110 c 132,-1,35
 532.799804688 94.599609375 532.799804688 94.599609375 537.200195312 88 c 132,-1,36
 541.599609375 81.400390625 541.599609375 81.400390625 574.049804688 75.349609375 c 132,-1,37
 606.5 69.2998046875 606.5 69.2998046875 672.5 69.2998046875 c 4,38,39
 700 69.2998046875 700 69.2998046875 709.900390625 68.2001953125 c 132,-1,40
 719.799804688 67.099609375 719.799804688 67.099609375 727.5 61.599609375 c 132,-1,41
 735.200195312 56.099609375 735.200195312 56.099609375 735.200195312 42.900390625 c 4,42,43
 735.200195312 0 735.200195312 0 690.099609375 0 c 132,-1,44
 645 0 645 0 551.5 3.2998046875 c 132,-1,45
 458 6.599609375 458 6.599609375 410.700195312 6.599609375 c 132,-1,46
 363.400390625 6.599609375 363.400390625 6.599609375 271 3.2998046875 c 132,-1,47
 178.599609375 0 178.599609375 0 133.5 0 c 4,48,49
 102.700195312 0 102.700195312 0 102.700195312 29.7001953125 c 4,0,1
EndSplineSet
Validated: 513
Substitution2: "'fwid' Full Widths lookup 32 subtable" uniFF29
Substitution2: "'c2sc' Capitals to Small Capitals lookup 26 subtable" i.sc
AlternateSubs2: "'aalt' Access All Alternates lookup 1 subtable" i.sc uniFF29
EndChar

StartChar: J
Encoding: 74 74 9
Width: 1200
VWidth: 2048
GlyphClass: 2
Flags: W
LayerCount: 2
Fore
SplineSet
1.2998046875 193.599609375 m 4,0,1
 1.2998046875 243.099609375 1.2998046875 243.099609375 15.599609375 278.299804688 c 132,-1,2
 29.900390625 313.5 29.900390625 313.5 48.0498046875 330 c 132,-1,3
 66.2001953125 346.5 66.2001953125 346.5 89.849609375 355.849609375 c 132,-1,4
 113.5 365.200195312 113.5 365.200195312 123.400390625 366.299804688 c 132,-1,5
 133.299804688 367.400390625 133.299804688 367.400390625 139.900390625 367.400390625 c 4,6,7
 178.400390625 367.400390625 178.400390625 367.400390625 205.349609375 343.75 c 132,-1,8
 232.299804688 320.099609375 232.299804688 320.099609375 232.299804688 279.400390625 c 4,9,10
 232.299804688 232.099609375 232.299804688 232.099609375 195.450195312 189.200195312 c 132,-1,11
 158.599609375 146.299804688 158.599609375 146.299804688 98.099609375 146.299804688 c 4,12,13
 78.2998046875 146.299804688 78.2998046875 146.299804688 72.7998046875 148.5 c 5,14,15
 86 81.400390625 86 81.400390625 139.349609375 40.7001953125 c 132,-1,16
 192.700195312 0 192.700195312 0 262 0 c 4,17,18
 352.200195312 0 352.200195312 0 438 97.900390625 c 132,-1,19
 523.799804688 195.799804688 523.799804688 195.799804688 556.799804688 326.700195312 c 6,20,-1
 818.599609375 1376.09960938 l 6,21,22
 827.400390625 1408 827.400390625 1408 827.400390625 1421.20019531 c 4,23,24
 827.400390625 1443.20019531 827.400390625 1443.20019531 815.299804688 1450.34960938 c 132,-1,25
 803.200195312 1457.5 803.200195312 1457.5 760.299804688 1464.09960938 c 4,26,27
 719.599609375 1468.5 719.599609375 1468.5 655.799804688 1468.5 c 6,28,-1
 629.400390625 1468.5 l 6,29,30
 607.400390625 1468.5 607.400390625 1468.5 598.049804688 1469.59960938 c 132,-1,31
 588.700195312 1470.70019531 588.700195312 1470.70019531 581 1476.75 c 132,-1,32
 573.299804688 1482.79980469 573.299804688 1482.79980469 573.299804688 1496 c 4,33,34
 573.299804688 1538.90039062 573.299804688 1538.90039062 620.599609375 1538.90039062 c 4,35,36
 670.099609375 1538.90039062 670.099609375 1538.90039062 772.400390625 1535.59960938 c 132,-1,37
 874.700195312 1532.29980469 874.700195312 1532.29980469 926.400390625 1532.29980469 c 4,38,39
 964.900390625 1532.29980469 964.900390625 1532.29980469 1043.54980469 1535.59960938 c 132,-1,40
 1122.20019531 1538.90039062 1122.20019531 1538.90039062 1158.5 1538.90039062 c 4,41,42
 1190.40039062 1538.90039062 1190.40039062 1538.90039062 1190.40039062 1511.40039062 c 4,43,44
 1190.40039062 1481.70019531 1190.40039062 1481.70019531 1176.65039062 1475.09960938 c 132,-1,45
 1162.90039062 1468.5 1162.90039062 1468.5 1132.09960938 1468.5 c 4,46,47
 1059.5 1468.5 1059.5 1468.5 1034.75 1453.09960938 c 132,-1,48
 1010 1437.70019531 1010 1437.70019531 999 1388.20019531 c 6,49,-1
 735 324.5 l 6,50,51
 696.5 169.400390625 696.5 169.400390625 560.650390625 59.9501953125 c 132,-1,52
 424.799804688 -49.5 424.799804688 -49.5 266.400390625 -49.5 c 4,53,54
 154.200195312 -49.5 154.200195312 -49.5 77.75 17.0498046875 c 132,-1,55
 1.2998046875 83.599609375 1.2998046875 83.599609375 1.2998046875 193.599609375 c 4,0,1
EndSplineSet
Validated: 513
Substitution2: "'fwid' Full Widths lookup 32 subtable" uniFF2A
Substitution2: "'c2sc' Capitals to Small Capitals lookup 26 subtable" j.sc
AlternateSubs2: "'aalt' Access All Alternates lookup 1 subtable" j.sc uniFF2A
EndChar

StartChar: K
Encoding: 75 75 10
Width: 1200
VWidth: 2048
GlyphClass: 2
Flags: W
LayerCount: 2
Fore
SplineSet
-38.9296875 27.5 m 4,0,1
 -38.9296875 57.2001953125 -38.9296875 57.2001953125 -28.8046875 63.25 c 132,-1,2
 -18.6796875 69.2998046875 -18.6796875 69.2998046875 5.6201171875 69.2998046875 c 4,3,4
 86.6201171875 69.2998046875 86.6201171875 69.2998046875 109.299804688 86.349609375 c 132,-1,5
 131.98046875 103.400390625 131.98046875 103.400390625 141.700195312 165 c 6,6,-1
 366.0703125 1388.20019531 l 6,7,8
 372.549804688 1420.09960938 372.549804688 1420.09960938 372.549804688 1430 c 4,9,10
 372.549804688 1455.29980469 372.549804688 1455.29980469 349.46484375 1461.90039062 c 132,-1,11
 326.379882812 1468.5 326.379882812 1468.5 276.16015625 1468.5 c 4,12,13
 257.530273438 1468.5 257.530273438 1468.5 250.239257812 1469.59960938 c 132,-1,14
 242.950195312 1470.70019531 242.950195312 1470.70019531 237.280273438 1476.75 c 132,-1,15
 231.610351562 1482.79980469 231.610351562 1482.79980469 231.610351562 1496 c 4,16,17
 231.610351562 1538.90039062 231.610351562 1538.90039062 263.200195312 1538.90039062 c 132,-1,18
 294.790039062 1538.90039062 294.790039062 1538.90039062 362.01953125 1535.59960938 c 132,-1,19
 429.25 1532.29980469 429.25 1532.29980469 462.055664062 1532.29980469 c 132,-1,20
 494.860351562 1532.29980469 494.860351562 1532.29980469 560.469726562 1535.59960938 c 132,-1,21
 626.080078125 1538.90039062 626.080078125 1538.90039062 657.669921875 1538.90039062 c 4,22,23
 681.16015625 1538.90039062 681.16015625 1538.90039062 681.16015625 1509.20019531 c 4,24,25
 681.16015625 1481.70019531 681.16015625 1481.70019531 671.03515625 1475.09960938 c 132,-1,26
 660.91015625 1468.5 660.91015625 1468.5 630.939453125 1468.5 c 4,27,28
 554.799804688 1468.5 554.799804688 1468.5 532.525390625 1452 c 132,-1,29
 510.25 1435.5 510.25 1435.5 500.530273438 1378.29980469 c 6,30,-1
 369.310546875 660 l 5,31,-1
 953.3203125 1320 l 6,32,33
 1007.58984375 1379.40039062 1007.58984375 1379.40039062 1007.58984375 1422.29980469 c 4,34,35
 1007.58984375 1464.09960938 1007.58984375 1464.09960938 964.66015625 1468.5 c 4,36,37
 941.169921875 1468.5 941.169921875 1468.5 941.169921875 1496 c 4,38,39
 941.169921875 1538.90039062 941.169921875 1538.90039062 972.760742188 1538.90039062 c 4,40,41
 1001.11035156 1538.90039062 1001.11035156 1538.90039062 1061.04980469 1535.59960938 c 132,-1,42
 1120.98925781 1532.29980469 1120.98925781 1532.29980469 1150.15039062 1532.29980469 c 4,43,44
 1170.40039062 1532.29980469 1170.40039062 1532.29980469 1209.28027344 1535.59960938 c 132,-1,45
 1248.16015625 1538.90039062 1248.16015625 1538.90039062 1265.16992188 1538.90039062 c 4,46,47
 1283.79980469 1538.90039062 1283.79980469 1538.90039062 1282.98925781 1511.40039062 c 4,48,49
 1282.98925781 1472.90039062 1282.98925781 1472.90039062 1253.01953125 1468.5 c 4,50,51
 1145.29003906 1455.29980469 1145.29003906 1455.29980469 993.010742188 1283.70019531 c 6,52,-1
 687.639648438 939.400390625 l 5,53,-1
 904.719726562 157.299804688 l 6,54,55
 919.299804688 105.599609375 919.299804688 105.599609375 939.549804688 89.099609375 c 132,-1,56
 959.799804688 72.599609375 959.799804688 72.599609375 1004.34960938 69.2998046875 c 4,57,58
 1034.3203125 69.2998046875 1034.3203125 69.2998046875 1034.3203125 42.900390625 c 4,59,60
 1034.3203125 0 1034.3203125 0 1005.96972656 0 c 4,61,62
 982.48046875 0 982.48046875 0 931.450195312 3.2998046875 c 132,-1,63
 880.419921875 6.599609375 880.419921875 6.599609375 855.310546875 6.599609375 c 4,64,65
 823.719726562 6.599609375 823.719726562 6.599609375 761.349609375 3.2998046875 c 132,-1,66
 698.98046875 0 698.98046875 0 669.010742188 0 c 4,67,68
 645.51953125 0 645.51953125 0 646.330078125 29.7001953125 c 4,69,70
 646.330078125 70.400390625 646.330078125 70.400390625 677.919921875 69.2998046875 c 4,71,72
 762.16015625 69.2998046875 762.16015625 69.2998046875 762.16015625 144.099609375 c 4,73,74
 762.16015625 155.099609375 762.16015625 155.099609375 752.439453125 189.200195312 c 6,75,-1
 579.91015625 817.299804688 l 5,76,-1
 349.060546875 558.799804688 l 5,77,-1
 291.549804688 234.299804688 l 6,78,79
 269.680664062 128.700195312 269.680664062 128.700195312 269.680664062 107.799804688 c 4,80,81
 269.680664062 94.599609375 269.680664062 94.599609375 272.919921875 88 c 132,-1,82
 276.16015625 81.400390625 276.16015625 81.400390625 298.435546875 75.349609375 c 132,-1,83
 320.709960938 69.2998046875 320.709960938 69.2998046875 366.0703125 69.2998046875 c 4,84,85
 386.3203125 69.2998046875 386.3203125 69.2998046875 393.610351562 68.2001953125 c 132,-1,86
 400.900390625 67.099609375 400.900390625 67.099609375 405.760742188 60.5 c 132,-1,87
 410.620117188 53.900390625 410.620117188 53.900390625 410.620117188 40.7001953125 c 4,88,89
 410.620117188 0 410.620117188 0 379.030273438 0 c 132,-1,90
 347.439453125 0 347.439453125 0 280.209960938 3.2998046875 c 132,-1,91
 212.98046875 6.599609375 212.98046875 6.599609375 179.76953125 6.599609375 c 132,-1,92
 146.560546875 6.599609375 146.560546875 6.599609375 81.35546875 3.2998046875 c 132,-1,93
 16.150390625 0 16.150390625 0 -15.439453125 0 c 4,94,95
 -38.9296875 0 -38.9296875 0 -38.9296875 27.5 c 4,0,1
EndSplineSet
Validated: 513
Substitution2: "'fwid' Full Widths lookup 32 subtable" uniFF2B
Substitution2: "'c2sc' Capitals to Small Capitals lookup 26 subtable" k.sc
AlternateSubs2: "'aalt' Access All Alternates lookup 1 subtable" k.sc uniFF2B
EndChar

StartChar: L
Encoding: 76 76 11
Width: 1200
VWidth: 2048
GlyphClass: 2
Flags: W
LayerCount: 2
Fore
SplineSet
21 27.5 m 4,0,1
 21 57.2001953125 21 57.2001953125 33.5 63.25 c 132,-1,2
 46 69.2998046875 46 69.2998046875 76 69.2998046875 c 4,3,4
 176 69.2998046875 176 69.2998046875 204 86.349609375 c 132,-1,5
 232 103.400390625 232 103.400390625 244 165 c 6,6,-1
 521 1388.20019531 l 6,7,8
 529 1420.09960938 529 1420.09960938 529 1430 c 4,9,10
 529 1455.29980469 529 1455.29980469 500.5 1461.90039062 c 132,-1,11
 472 1468.5 472 1468.5 410 1468.5 c 4,12,13
 387 1468.5 387 1468.5 378 1469.59960938 c 132,-1,14
 369 1470.70019531 369 1470.70019531 362 1476.75 c 132,-1,15
 355 1482.79980469 355 1482.79980469 355 1496 c 4,16,17
 355 1538.90039062 355 1538.90039062 394 1538.90039062 c 4,18,19
 435 1538.90039062 435 1538.90039062 519 1535.59960938 c 132,-1,20
 603 1532.29980469 603 1532.29980469 646 1532.29980469 c 4,21,22
 693 1532.29980469 693 1532.29980469 788 1535.59960938 c 132,-1,23
 883 1538.90039062 883 1538.90039062 928 1538.90039062 c 4,24,25
 959 1538.90039062 959 1538.90039062 959 1511.40039062 c 4,26,27
 959 1481.70019531 959 1481.70019531 946.5 1475.09960938 c 132,-1,28
 934 1468.5 934 1468.5 902 1468.5 c 6,29,-1
 881 1468.5 l 6,30,31
 762 1468.5 762 1468.5 730.5 1449.25 c 132,-1,32
 699 1430 699 1430 685 1367.29980469 c 6,33,-1
 406 141.900390625 l 6,34,35
 406 139.700195312 406 139.700195312 402 120.450195312 c 132,-1,36
 398 101.200195312 398 101.200195312 398 92.400390625 c 132,-1,37
 398 83.599609375 398 83.599609375 400 79.2001953125 c 132,-1,38
 402 74.7998046875 402 74.7998046875 416.5 72.0498046875 c 132,-1,39
 431 69.2998046875 431 69.2998046875 461 69.2998046875 c 6,40,-1
 627 69.2998046875 l 6,41,42
 719 69.2998046875 719 69.2998046875 793 101.200195312 c 132,-1,43
 867 133.099609375 867 133.099609375 912 172.700195312 c 132,-1,44
 957 212.299804688 957 212.299804688 998 285.450195312 c 132,-1,45
 1039 358.599609375 1039 358.599609375 1056.5 404.799804688 c 132,-1,46
 1074 451 1074 451 1100 531.299804688 c 4,47,48
 1112 565.400390625 1112 565.400390625 1117.5 573.099609375 c 132,-1,49
 1123 580.799804688 1123 580.799804688 1141 580.799804688 c 4,50,51
 1172 580.799804688 1172 580.799804688 1172 554.400390625 c 5,52,-1
 1168 541.200195312 l 6,53,54
 1164 528 1164 528 1164 524.700195312 c 6,55,-1
 1008 40.7001953125 l 6,56,57
 998 11 998 11 989.5 5.5 c 132,-1,58
 981 0 981 0 949 0 c 6,59,-1
 72 0 l 6,60,61
 52 0 52 0 43.5 1.099609375 c 132,-1,62
 35 2.2001953125 35 2.2001953125 28 8.25 c 132,-1,63
 21 14.2998046875 21 14.2998046875 21 27.5 c 4,0,1
EndSplineSet
Validated: 513
Substitution2: "'fwid' Full Widths lookup 32 subtable" uniFF2C
Substitution2: "'c2sc' Capitals to Small Capitals lookup 26 subtable" l.sc
AlternateSubs2: "'aalt' Access All Alternates lookup 1 subtable" l.sc uniFF2C
EndChar

StartChar: M
Encoding: 77 77 12
Width: 1200
VWidth: 2048
GlyphClass: 2
Flags: W
LayerCount: 2
Fore
SplineSet
-59.7998046875 27.5 m 4,0,1
 -59.7998046875 70.400390625 -59.7998046875 70.400390625 -31.7197265625 69.2998046875 c 4,2,3
 25.8798828125 73.7001953125 25.8798828125 73.7001953125 61.16015625 106.700195312 c 132,-1,4
 96.439453125 139.700195312 96.439453125 139.700195312 111.560546875 227.700195312 c 6,5,-1
 300.200195312 1388.20019531 l 6,6,7
 305.959960938 1420.09960938 305.959960938 1420.09960938 305.959960938 1430 c 4,8,9
 305.959960938 1455.29980469 305.959960938 1455.29980469 285.439453125 1461.90039062 c 132,-1,10
 264.919921875 1468.5 264.919921875 1468.5 220.280273438 1468.5 c 4,11,12
 203.719726562 1468.5 203.719726562 1468.5 197.239257812 1469.59960938 c 132,-1,13
 190.760742188 1470.70019531 190.760742188 1470.70019531 185.719726562 1476.75 c 132,-1,14
 180.680664062 1482.79980469 180.680664062 1482.79980469 180.680664062 1496 c 4,15,16
 180.680664062 1525.70019531 180.680664062 1525.70019531 189.680664062 1532.29980469 c 132,-1,17
 198.680664062 1538.90039062 198.680664062 1538.90039062 220.280273438 1538.90039062 c 6,18,-1
 416.83984375 1538.90039062 l 6,19,20
 444.919921875 1538.90039062 444.919921875 1538.90039062 450.680664062 1531.75 c 132,-1,21
 456.439453125 1524.59960938 456.439453125 1524.59960938 457.879882812 1489.40039062 c 6,22,-1
 540.680664062 225.5 l 5,23,-1
 1041.79980469 1498.20019531 l 6,24,25
 1053.3203125 1527.90039062 1053.3203125 1527.90039062 1061.59960938 1533.40039062 c 132,-1,26
 1069.87988281 1538.90039062 1069.87988281 1538.90039062 1095.08007812 1538.90039062 c 6,27,-1
 1283.71972656 1538.90039062 l 6,28,29
 1298.12011719 1538.90039062 1298.12011719 1538.90039062 1304.95996094 1537.79980469 c 132,-1,30
 1311.79980469 1536.70019531 1311.79980469 1536.70019531 1316.12011719 1529.54980469 c 132,-1,31
 1320.43945312 1522.40039062 1320.43945312 1522.40039062 1320.43945312 1509.20019531 c 4,32,33
 1320.43945312 1481.70019531 1320.43945312 1481.70019531 1311.79980469 1475.09960938 c 132,-1,34
 1303.16015625 1468.5 1303.16015625 1468.5 1276.51953125 1468.5 c 4,35,36
 1208.83984375 1468.5 1208.83984375 1468.5 1188.68066406 1452 c 132,-1,37
 1168.51953125 1435.5 1168.51953125 1435.5 1159.87988281 1378.29980469 c 6,38,-1
 960.439453125 159.5 l 6,39,40
 954.680664062 125.400390625 954.680664062 125.400390625 954.680664062 107.799804688 c 4,41,42
 954.680664062 94.599609375 954.680664062 94.599609375 957.560546875 88 c 132,-1,43
 960.439453125 81.400390625 960.439453125 81.400390625 980.599609375 75.349609375 c 132,-1,44
 1000.76074219 69.2998046875 1000.76074219 69.2998046875 1040.36035156 69.2998046875 c 4,45,46
 1058.36035156 69.2998046875 1058.36035156 69.2998046875 1064.83984375 68.2001953125 c 132,-1,47
 1071.3203125 67.099609375 1071.3203125 67.099609375 1075.63964844 60.5 c 132,-1,48
 1079.95996094 53.900390625 1079.95996094 53.900390625 1079.95996094 40.7001953125 c 4,49,50
 1079.95996094 0 1079.95996094 0 1051.87988281 0 c 4,51,52
 1025.23925781 0 1025.23925781 0 967.280273438 3.2998046875 c 132,-1,53
 909.3203125 6.599609375 909.3203125 6.599609375 881.239257812 6.599609375 c 132,-1,54
 853.16015625 6.599609375 853.16015625 6.599609375 796.280273438 3.2998046875 c 132,-1,55
 739.400390625 0 739.400390625 0 712.760742188 0 c 4,56,57
 691.879882812 0 691.879882812 0 692.599609375 27.5 c 4,58,59
 692.599609375 57.2001953125 692.599609375 57.2001953125 701.239257812 63.25 c 132,-1,60
 709.879882812 69.2998046875 709.879882812 69.2998046875 732.200195312 69.2998046875 c 4,61,62
 804.200195312 69.2998046875 804.200195312 69.2998046875 824.360351562 86.349609375 c 132,-1,63
 844.51953125 103.400390625 844.51953125 103.400390625 853.16015625 165 c 6,64,-1
 1061.23925781 1439.90039062 l 5,65,-1
 1059.79980469 1439.90039062 l 5,66,-1
 509.719726562 40.7001953125 l 6,67,68
 495.3203125 0 495.3203125 0 474.439453125 0 c 4,69,70
 464.360351562 0 464.360351562 0 458.959960938 6.599609375 c 132,-1,71
 453.560546875 13.2001953125 453.560546875 13.2001953125 452.120117188 21.4501953125 c 132,-1,72
 450.680664062 29.7001953125 450.680664062 29.7001953125 449.239257812 53.900390625 c 6,73,-1
 359.239257812 1419 l 5,74,-1
 357.799804688 1419 l 5,75,-1
 161.239257812 223.299804688 l 6,76,77
 155.48046875 187 155.48046875 187 155.48046875 167.200195312 c 4,78,79
 155.48046875 149.599609375 155.48046875 149.599609375 157.639648438 136.950195312 c 132,-1,80
 159.799804688 124.299804688 159.799804688 124.299804688 167.360351562 108.349609375 c 132,-1,81
 174.919921875 92.400390625 174.919921875 92.400390625 194 82.5 c 132,-1,82
 213.080078125 72.599609375 213.080078125 72.599609375 242.599609375 69.2998046875 c 4,83,84
 270.680664062 69.2998046875 270.680664062 69.2998046875 270.680664062 40.7001953125 c 4,85,86
 270.680664062 0 270.680664062 0 244.040039062 0 c 4,87,88
 221.719726562 0 221.719726562 0 172.400390625 3.2998046875 c 132,-1,89
 123.080078125 6.599609375 123.080078125 6.599609375 99.6806640625 6.599609375 c 132,-1,90
 76.2802734375 6.599609375 76.2802734375 6.599609375 29.1201171875 3.2998046875 c 132,-1,91
 -18.0400390625 0 -18.0400390625 0 -40.3603515625 0 c 4,92,93
 -59.7998046875 0 -59.7998046875 0 -59.7998046875 27.5 c 4,0,1
EndSplineSet
Validated: 513
Substitution2: "'fwid' Full Widths lookup 32 subtable" uniFF2D
Substitution2: "'c2sc' Capitals to Small Capitals lookup 26 subtable" m.sc
AlternateSubs2: "'aalt' Access All Alternates lookup 1 subtable" m.sc uniFF2D
EndChar

StartChar: N
Encoding: 78 78 13
Width: 1200
VWidth: 2048
GlyphClass: 2
Flags: W
LayerCount: 2
Fore
SplineSet
-46.23046875 27.5 m 4,0,1
 -46.23046875 70.400390625 -46.23046875 70.400390625 -14.6396484375 69.2998046875 c 4,2,3
 118.200195312 75.900390625 118.200195312 75.900390625 146.549804688 227.700195312 c 6,4,-1
 365.25 1421.20019531 l 6,5,6
 370.110351562 1443.20019531 370.110351562 1443.20019531 370.110351562 1450.90039062 c 4,7,8
 370.110351562 1468.5 370.110351562 1468.5 268.860351562 1468.5 c 4,9,10
 250.23046875 1468.5 250.23046875 1468.5 242.939453125 1469.59960938 c 132,-1,11
 235.650390625 1470.70019531 235.650390625 1470.70019531 229.98046875 1476.75 c 132,-1,12
 224.310546875 1482.79980469 224.310546875 1482.79980469 224.310546875 1496 c 4,13,14
 224.310546875 1525.70019531 224.310546875 1525.70019531 234.030273438 1532.29980469 c 132,-1,15
 243.75 1538.90039062 243.75 1538.90039062 268.860351562 1538.90039062 c 6,16,-1
 476.219726562 1538.90039062 l 6,17,18
 502.950195312 1538.90039062 502.950195312 1538.90039062 508.620117188 1533.40039062 c 132,-1,19
 514.290039062 1527.90039062 514.290039062 1527.90039062 522.389648438 1500.40039062 c 6,20,-1
 832.620117188 328.900390625 l 5,21,-1
 1015.68066406 1317.79980469 l 6,22,23
 1022.16015625 1354.09960938 1022.16015625 1354.09960938 1022.16015625 1371.70019531 c 4,24,25
 1022.16015625 1464.09960938 1022.16015625 1464.09960938 922.530273438 1468.5 c 4,26,27
 892.560546875 1468.5 892.560546875 1468.5 892.560546875 1496 c 4,28,29
 892.560546875 1538.90039062 892.560546875 1538.90039062 922.530273438 1538.90039062 c 4,30,31
 947.639648438 1538.90039062 947.639648438 1538.90039062 1002.31445312 1535.59960938 c 132,-1,32
 1056.98925781 1532.29980469 1056.98925781 1532.29980469 1083.31445312 1532.29980469 c 132,-1,33
 1109.63964844 1532.29980469 1109.63964844 1532.29980469 1163.91015625 1535.59960938 c 132,-1,34
 1218.18066406 1538.90039062 1218.18066406 1538.90039062 1242.48046875 1538.90039062 c 4,35,36
 1264.34960938 1538.90039062 1264.34960938 1538.90039062 1264.34960938 1509.20019531 c 4,37,38
 1264.34960938 1468.5 1264.34960938 1468.5 1239.23925781 1468.5 c 4,39,40
 1098.29980469 1461.90039062 1098.29980469 1461.90039062 1071.5703125 1315.59960938 c 6,41,-1
 839.91015625 45.099609375 l 6,42,43
 833.430664062 15.400390625 833.430664062 15.400390625 827.35546875 7.7001953125 c 132,-1,44
 821.280273438 0 821.280273438 0 806.700195312 0 c 4,45,46
 790.5 0 790.5 0 785.235351562 5.5 c 132,-1,47
 779.969726562 11 779.969726562 11 773.489257812 38.5 c 6,48,-1
 416.280273438 1382.70019531 l 5,49,-1
 202.439453125 223.299804688 l 6,50,51
 195.959960938 187 195.959960938 187 195.959960938 167.200195312 c 4,52,53
 195.959960938 149.599609375 195.959960938 149.599609375 198.389648438 136.950195312 c 132,-1,54
 200.8203125 124.299804688 200.8203125 124.299804688 209.325195312 108.349609375 c 132,-1,55
 217.830078125 92.400390625 217.830078125 92.400390625 239.294921875 82.5 c 132,-1,56
 260.760742188 72.599609375 260.760742188 72.599609375 293.969726562 69.2998046875 c 4,57,58
 325.560546875 69.2998046875 325.560546875 69.2998046875 325.560546875 40.7001953125 c 4,59,60
 325.560546875 0 325.560546875 0 295.58984375 0 c 4,61,62
 270.48046875 0 270.48046875 0 214.995117188 3.2998046875 c 132,-1,63
 159.510742188 6.599609375 159.510742188 6.599609375 132.780273438 6.599609375 c 132,-1,64
 106.049804688 6.599609375 106.049804688 6.599609375 52.9951171875 3.2998046875 c 132,-1,65
 -0.060546875 0 -0.060546875 0 -24.3603515625 0 c 4,66,67
 -46.23046875 0 -46.23046875 0 -46.23046875 27.5 c 4,0,1
EndSplineSet
Validated: 513
Substitution2: "'fwid' Full Widths lookup 32 subtable" uniFF2E
Substitution2: "'c2sc' Capitals to Small Capitals lookup 26 subtable" n.sc
AlternateSubs2: "'aalt' Access All Alternates lookup 1 subtable" n.sc uniFF2E
EndChar

StartChar: O
Encoding: 79 79 14
Width: 1200
VWidth: 2048
GlyphClass: 2
Flags: W
LayerCount: 2
Fore
SplineSet
7.400390625 531.299804688 m 4,0,1
 7.400390625 785.400390625 7.400390625 785.400390625 117.200195312 1032.34960938 c 132,-1,2
 227 1279.29980469 227 1279.29980469 404.75 1433.84960938 c 132,-1,3
 582.5 1588.40039062 582.5 1588.40039062 767 1588.40039062 c 4,4,5
 947.900390625 1588.40039062 947.900390625 1588.40039062 1067.59960938 1429.45019531 c 132,-1,6
 1187.29980469 1270.5 1187.29980469 1270.5 1187.29980469 999.900390625 c 4,7,8
 1187.29980469 735.900390625 1187.29980469 735.900390625 1075.70019531 490.599609375 c 132,-1,9
 964.099609375 245.299804688 964.099609375 245.299804688 789.049804688 97.900390625 c 132,-1,10
 614 -49.5 614 -49.5 431.299804688 -49.5 c 4,11,12
 243.200195312 -49.5 243.200195312 -49.5 125.299804688 112.75 c 132,-1,13
 7.400390625 275 7.400390625 275 7.400390625 531.299804688 c 4,0,1
173 462 m 4,14,15
 173 259.599609375 173 259.599609375 245.900390625 134.200195312 c 132,-1,16
 318.799804688 8.7998046875 318.799804688 8.7998046875 443.900390625 8.7998046875 c 4,17,18
 551 8.7998046875 551 8.7998046875 665.299804688 108.900390625 c 132,-1,19
 779.599609375 209 779.599609375 209 866 391.599609375 c 4,20,21
 938 542.299804688 938 542.299804688 984.349609375 743.049804688 c 132,-1,22
 1030.70019531 943.799804688 1030.70019531 943.799804688 1030.70019531 1094.5 c 4,23,24
 1030.70019531 1309 1030.70019531 1309 950.599609375 1420.65039062 c 132,-1,25
 870.5 1532.29980469 870.5 1532.29980469 754.400390625 1532.29980469 c 4,26,27
 636.5 1532.29980469 636.5 1532.29980469 519.950195312 1426.15039062 c 132,-1,28
 403.400390625 1320 403.400390625 1320 327.799804688 1156.09960938 c 4,29,30
 243.200195312 975.700195312 243.200195312 975.700195312 208.099609375 778.799804688 c 132,-1,31
 173 581.900390625 173 581.900390625 173 462 c 4,14,15
EndSplineSet
Validated: 513
Substitution2: "Single Substitution lookup 63 subtable" ordmasculine
Substitution2: "'fwid' Full Widths lookup 32 subtable" uniFF2F
Substitution2: "'c2sc' Capitals to Small Capitals lookup 26 subtable" o.sc
AlternateSubs2: "'aalt' Access All Alternates lookup 1 subtable" ordmasculine o.sc uniFF2F
EndChar

StartChar: P
Encoding: 80 80 15
Width: 1200
VWidth: 2048
GlyphClass: 2
Flags: W
LayerCount: 2
Fore
SplineSet
-15.900390625 27.5 m 4,0,1
 -15.900390625 57.2001953125 -15.900390625 57.2001953125 -4.650390625 63.25 c 132,-1,2
 6.599609375 69.2998046875 6.599609375 69.2998046875 33.599609375 69.2998046875 c 4,3,4
 123.599609375 69.2998046875 123.599609375 69.2998046875 148.799804688 86.349609375 c 132,-1,5
 174 103.400390625 174 103.400390625 184.799804688 165 c 6,6,-1
 434.099609375 1388.20019531 l 6,7,8
 441.299804688 1420.09960938 441.299804688 1420.09960938 441.299804688 1430 c 4,9,10
 441.299804688 1455.29980469 441.299804688 1455.29980469 415.650390625 1461.90039062 c 132,-1,11
 390 1468.5 390 1468.5 334.200195312 1468.5 c 4,12,13
 313.5 1468.5 313.5 1468.5 305.400390625 1469.59960938 c 132,-1,14
 297.299804688 1470.70019531 297.299804688 1470.70019531 291 1476.75 c 132,-1,15
 284.700195312 1482.79980469 284.700195312 1482.79980469 284.700195312 1496 c 4,16,17
 284.700195312 1525.70019531 284.700195312 1525.70019531 295.5 1532.29980469 c 132,-1,18
 306.299804688 1538.90039062 306.299804688 1538.90039062 334.200195312 1538.90039062 c 6,19,-1
 887.700195312 1538.90039062 l 6,20,21
 1035.29980469 1538.90039062 1035.29980469 1538.90039062 1124.40039062 1444.29980469 c 132,-1,22
 1213.5 1349.70019531 1213.5 1349.70019531 1213.5 1205.59960938 c 4,23,24
 1213.5 1012 1213.5 1012 1062.29980469 861.849609375 c 132,-1,25
 911.099609375 711.700195312 911.099609375 711.700195312 732.900390625 711.700195312 c 6,26,-1
 446.700195312 711.700195312 l 5,27,-1
 334.200195312 152.900390625 l 6,28,29
 327 121 327 121 327 107.799804688 c 132,-1,30
 327 94.599609375 327 94.599609375 330.599609375 88 c 132,-1,31
 334.200195312 81.400390625 334.200195312 81.400390625 358.950195312 75.349609375 c 132,-1,32
 383.700195312 69.2998046875 383.700195312 69.2998046875 434.099609375 69.2998046875 c 4,33,34
 456.599609375 69.2998046875 456.599609375 69.2998046875 464.700195312 68.2001953125 c 132,-1,35
 472.799804688 67.099609375 472.799804688 67.099609375 478.200195312 60.5 c 132,-1,36
 483.599609375 53.900390625 483.599609375 53.900390625 483.599609375 40.7001953125 c 4,37,38
 483.599609375 0 483.599609375 0 448.5 0 c 132,-1,39
 413.400390625 0 413.400390625 0 338.700195312 3.2998046875 c 132,-1,40
 264 6.599609375 264 6.599609375 227.099609375 6.599609375 c 132,-1,41
 190.200195312 6.599609375 190.200195312 6.599609375 117.75 3.2998046875 c 132,-1,42
 45.2998046875 0 45.2998046875 0 10.2001953125 0 c 4,43,44
 -15.900390625 0 -15.900390625 0 -15.900390625 27.5 c 4,0,1
453.900390625 770 m 5,45,-1
 686.099609375 770 l 6,46,47
 857.099609375 770 857.099609375 770 953.400390625 900.900390625 c 4,48,49
 999.299804688 965.799804688 999.299804688 965.799804688 1025.40039062 1087.90039062 c 132,-1,50
 1051.5 1210 1051.5 1210 1051.5 1266.09960938 c 4,51,52
 1051.5 1369.5 1051.5 1369.5 991.650390625 1419 c 132,-1,53
 931.799804688 1468.5 931.799804688 1468.5 828.299804688 1468.5 c 6,54,-1
 669.900390625 1468.5 l 6,55,56
 620.400390625 1468.5 620.400390625 1468.5 605.549804688 1457.5 c 132,-1,57
 590.700195312 1446.5 590.700195312 1446.5 579.900390625 1388.20019531 c 6,58,-1
 453.900390625 770 l 5,45,-1
EndSplineSet
Validated: 513
Substitution2: "'fwid' Full Widths lookup 32 subtable" uniFF30
Substitution2: "'c2sc' Capitals to Small Capitals lookup 26 subtable" p.sc
AlternateSubs2: "'aalt' Access All Alternates lookup 1 subtable" p.sc uniFF30
EndChar

StartChar: Q
Encoding: 81 81 16
Width: 1200
VWidth: 2048
GlyphClass: 2
Flags: W
LayerCount: 2
Fore
SplineSet
7.7001953125 531.299804688 m 4,0,1
 7.7001953125 785.400390625 7.7001953125 785.400390625 117.5 1032.34960938 c 132,-1,2
 227.299804688 1279.29980469 227.299804688 1279.29980469 405.049804688 1433.84960938 c 132,-1,3
 582.799804688 1588.40039062 582.799804688 1588.40039062 767.299804688 1588.40039062 c 4,4,5
 948.200195312 1588.40039062 948.200195312 1588.40039062 1067.90039062 1429.45019531 c 132,-1,6
 1187.59960938 1270.5 1187.59960938 1270.5 1187.59960938 999.900390625 c 4,7,8
 1187.59960938 696.299804688 1187.59960938 696.299804688 1037.29980469 415.799804688 c 132,-1,9
 887 135.299804688 887 135.299804688 660.200195312 13.2001953125 c 5,10,11
 662 -128.700195312 662 -128.700195312 689.900390625 -177.099609375 c 132,-1,12
 717.799804688 -225.5 717.799804688 -225.5 770.900390625 -225.5 c 4,13,14
 827.599609375 -225.5 827.599609375 -225.5 885.650390625 -169.950195312 c 132,-1,15
 943.700195312 -114.400390625 943.700195312 -114.400390625 973.400390625 -4.400390625 c 4,16,17
 980.599609375 25.2998046875 980.599609375 25.2998046875 995.900390625 25.2998046875 c 4,18,19
 1016.59960938 25.2998046875 1016.59960938 25.2998046875 1015.70019531 -2.2001953125 c 4,20,21
 1015.70019531 -8.7998046875 1015.70019531 -8.7998046875 1006.70019531 -49.5 c 132,-1,22
 997.700195312 -90.2001953125 997.700195312 -90.2001953125 975.650390625 -156.75 c 132,-1,23
 953.599609375 -223.299804688 953.599609375 -223.299804688 922.099609375 -284.900390625 c 132,-1,24
 890.599609375 -346.5 890.599609375 -346.5 837.950195312 -391.599609375 c 132,-1,25
 785.299804688 -436.700195312 785.299804688 -436.700195312 726.799804688 -436.700195312 c 4,26,27
 581 -436.700195312 581 -436.700195312 581 -229.900390625 c 4,28,29
 581 -162.799804688 581 -162.799804688 599.900390625 -15.400390625 c 5,30,31
 517.099609375 -49.5 517.099609375 -49.5 431.599609375 -49.5 c 4,32,33
 243.5 -49.5 243.5 -49.5 125.599609375 112.75 c 132,-1,34
 7.7001953125 275 7.7001953125 275 7.7001953125 531.299804688 c 4,0,1
164.299804688 455.400390625 m 4,35,36
 164.299804688 317.900390625 164.299804688 317.900390625 205.700195312 201.849609375 c 132,-1,37
 247.099609375 85.7998046875 247.099609375 85.7998046875 338 34.099609375 c 5,38,39
 329 63.7998046875 329 63.7998046875 328.099609375 96.7998046875 c 4,40,41
 328.099609375 182.599609375 328.099609375 182.599609375 380.75 257.950195312 c 132,-1,42
 433.400390625 333.299804688 433.400390625 333.299804688 507.200195312 333.299804688 c 4,43,44
 642.200195312 333.299804688 642.200195312 333.299804688 654.799804688 94.599609375 c 5,45,46
 758.299804688 176 758.299804688 176 837.5 315.700195312 c 132,-1,47
 916.700195312 455.400390625 916.700195312 455.400390625 956.299804688 602.799804688 c 132,-1,48
 995.900390625 750.200195312 995.900390625 750.200195312 1014.34960938 871.75 c 132,-1,49
 1032.79980469 993.299804688 1032.79980469 993.299804688 1032.79980469 1081.29980469 c 4,50,51
 1032.79980469 1283.70019531 1032.79980469 1283.70019531 957.200195312 1408 c 132,-1,52
 881.599609375 1532.29980469 881.599609375 1532.29980469 754.700195312 1532.29980469 c 4,53,54
 651.200195312 1532.29980469 651.200195312 1532.29980469 541.400390625 1443.20019531 c 132,-1,55
 431.599609375 1354.09960938 431.599609375 1354.09960938 348.799804688 1199 c 4,56,57
 257 1025.20019531 257 1025.20019531 210.650390625 810.150390625 c 132,-1,58
 164.299804688 595.099609375 164.299804688 595.099609375 164.299804688 455.400390625 c 4,35,36
369.5 96.7998046875 m 4,59,60
 369.5 6.599609375 369.5 6.599609375 444.200195312 6.599609375 c 4,61,62
 521.599609375 6.599609375 521.599609375 6.599609375 607.099609375 58.2998046875 c 5,63,64
 608.900390625 75.900390625 608.900390625 75.900390625 608.900390625 121.549804688 c 132,-1,65
 608.900390625 167.200195312 608.900390625 167.200195312 606.200195312 194.150390625 c 132,-1,66
 603.5 221.099609375 603.5 221.099609375 579.200195312 252.450195312 c 132,-1,67
 554.900390625 283.799804688 554.900390625 283.799804688 509 283.799804688 c 4,68,69
 452.299804688 283.799804688 452.299804688 283.799804688 410.900390625 222.75 c 132,-1,70
 369.5 161.700195312 369.5 161.700195312 369.5 96.7998046875 c 4,59,60
EndSplineSet
Validated: 513
Substitution2: "'fwid' Full Widths lookup 32 subtable" uniFF31
Substitution2: "'c2sc' Capitals to Small Capitals lookup 26 subtable" q.sc
AlternateSubs2: "'aalt' Access All Alternates lookup 1 subtable" q.sc uniFF31
EndChar

StartChar: R
Encoding: 82 82 17
Width: 1200
VWidth: 2048
GlyphClass: 2
Flags: W
LayerCount: 2
Fore
SplineSet
-12.2998046875 27.5 m 4,0,1
 -12.2998046875 57.2001953125 -12.2998046875 57.2001953125 -1.0498046875 63.25 c 132,-1,2
 10.2001953125 69.2998046875 10.2001953125 69.2998046875 37.2001953125 69.2998046875 c 4,3,4
 127.200195312 69.2998046875 127.200195312 69.2998046875 152.400390625 86.349609375 c 132,-1,5
 177.599609375 103.400390625 177.599609375 103.400390625 188.400390625 165 c 6,6,-1
 437.700195312 1388.20019531 l 6,7,8
 444.900390625 1420.09960938 444.900390625 1420.09960938 444.900390625 1430 c 4,9,10
 444.900390625 1455.29980469 444.900390625 1455.29980469 419.25 1461.90039062 c 132,-1,11
 393.599609375 1468.5 393.599609375 1468.5 337.799804688 1468.5 c 4,12,13
 317.099609375 1468.5 317.099609375 1468.5 309 1469.59960938 c 132,-1,14
 300.900390625 1470.70019531 300.900390625 1470.70019531 294.599609375 1476.75 c 132,-1,15
 288.299804688 1482.79980469 288.299804688 1482.79980469 288.299804688 1496 c 4,16,17
 288.299804688 1525.70019531 288.299804688 1525.70019531 299.099609375 1532.29980469 c 132,-1,18
 309.900390625 1538.90039062 309.900390625 1538.90039062 337.799804688 1538.90039062 c 6,19,-1
 824.700195312 1538.90039062 l 6,20,21
 992.099609375 1538.90039062 992.099609375 1538.90039062 1093.34960938 1442.09960938 c 132,-1,22
 1194.59960938 1345.29980469 1194.59960938 1345.29980469 1194.59960938 1205.59960938 c 4,23,24
 1194.59960938 1072.5 1194.59960938 1072.5 1094.25 947.650390625 c 132,-1,25
 993.900390625 822.799804688 993.900390625 822.799804688 807.599609375 763.400390625 c 5,26,27
 879.599609375 731.5 879.599609375 731.5 923.25 663.299804688 c 132,-1,28
 966.900390625 595.099609375 966.900390625 595.099609375 966.900390625 502.700195312 c 4,29,30
 966.900390625 442.200195312 966.900390625 442.200195312 951.599609375 303.599609375 c 4,31,32
 940.799804688 187 940.799804688 187 940.799804688 133.099609375 c 4,33,34
 940.799804688 90.2001953125 940.799804688 90.2001953125 944.400390625 65.4501953125 c 132,-1,35
 948 40.7001953125 948 40.7001953125 961.950195312 20.349609375 c 132,-1,36
 975.900390625 0 975.900390625 0 1001.09960938 0 c 4,37,38
 1045.20019531 0 1045.20019531 0 1083.45019531 52.7998046875 c 132,-1,39
 1121.70019531 105.599609375 1121.70019531 105.599609375 1145.09960938 198 c 4,40,41
 1148.70019531 213.400390625 1148.70019531 213.400390625 1150.5 220.549804688 c 132,-1,42
 1152.29980469 227.700195312 1152.29980469 227.700195312 1159.04980469 232.099609375 c 132,-1,43
 1165.79980469 236.5 1165.79980469 236.5 1176.59960938 236.5 c 4,44,45
 1204.5 236.5 1204.5 236.5 1204.5 206.799804688 c 4,46,47
 1204.5 187 1204.5 187 1186.04980469 132 c 132,-1,48
 1167.59960938 77 1167.59960938 77 1115.84960938 13.75 c 132,-1,49
 1064.09960938 -49.5 1064.09960938 -49.5 993.900390625 -49.5 c 4,50,51
 898.5 -49.5 898.5 -49.5 831.900390625 11.5498046875 c 132,-1,52
 765.299804688 72.599609375 765.299804688 72.599609375 765.299804688 189.200195312 c 4,53,54
 765.299804688 225.5 765.299804688 225.5 793.200195312 369.599609375 c 4,55,56
 824.700195312 522.5 824.700195312 522.5 824.700195312 547.799804688 c 4,57,58
 824.700195312 657.799804688 824.700195312 657.799804688 773.849609375 701.799804688 c 132,-1,59
 723 745.799804688 723 745.799804688 651 745.799804688 c 6,60,-1
 452.099609375 745.799804688 l 5,61,-1
 332.400390625 152.900390625 l 6,62,63
 325.200195312 121 325.200195312 121 325.200195312 107.799804688 c 132,-1,64
 325.200195312 94.599609375 325.200195312 94.599609375 328.799804688 88 c 132,-1,65
 332.400390625 81.400390625 332.400390625 81.400390625 357.150390625 75.349609375 c 132,-1,66
 381.900390625 69.2998046875 381.900390625 69.2998046875 432.299804688 69.2998046875 c 4,67,68
 454.799804688 69.2998046875 454.799804688 69.2998046875 462.900390625 68.2001953125 c 132,-1,69
 471 67.099609375 471 67.099609375 476.400390625 60.5 c 132,-1,70
 481.799804688 53.900390625 481.799804688 53.900390625 481.799804688 40.7001953125 c 4,71,72
 481.799804688 0 481.799804688 0 446.700195312 0 c 4,73,74
 409.799804688 0 409.799804688 0 336 3.2998046875 c 132,-1,75
 262.200195312 6.599609375 262.200195312 6.599609375 227.099609375 6.599609375 c 132,-1,76
 192 6.599609375 192 6.599609375 120.450195312 3.2998046875 c 132,-1,77
 48.900390625 0 48.900390625 0 13.7998046875 0 c 4,78,79
 -12.2998046875 0 -12.2998046875 0 -12.2998046875 27.5 c 4,0,1
462.900390625 795.299804688 m 5,80,-1
 649.200195312 795.299804688 l 6,81,82
 822.900390625 795.299804688 822.900390625 795.299804688 921.900390625 911.900390625 c 4,83,84
 966 965.799804688 966 965.799804688 993 1053.79980469 c 132,-1,85
 1020 1141.79980469 1020 1141.79980469 1024.5 1186.90039062 c 132,-1,86
 1029 1232 1029 1232 1029 1257.29980469 c 4,87,88
 1029 1317.79980469 1029 1317.79980469 1007.84960938 1360.70019531 c 132,-1,89
 986.700195312 1403.59960938 986.700195312 1403.59960938 960.150390625 1423.95019531 c 132,-1,90
 933.599609375 1444.29980469 933.599609375 1444.29980469 885.450195312 1455.29980469 c 132,-1,91
 837.299804688 1466.29980469 837.299804688 1466.29980469 808.950195312 1467.40039062 c 132,-1,92
 780.599609375 1468.5 780.599609375 1468.5 730.200195312 1468.5 c 4,93,94
 636.599609375 1468.5 636.599609375 1468.5 624 1464.09960938 c 4,95,96
 596.099609375 1455.29980469 596.099609375 1455.29980469 583.5 1388.20019531 c 6,97,-1
 462.900390625 795.299804688 l 5,80,-1
EndSplineSet
Validated: 513
Substitution2: "'fwid' Full Widths lookup 32 subtable" uniFF32
Substitution2: "'c2sc' Capitals to Small Capitals lookup 26 subtable" r.sc
AlternateSubs2: "'aalt' Access All Alternates lookup 1 subtable" r.sc uniFF32
EndChar

StartChar: S
Encoding: 83 83 18
Width: 1200
VWidth: 2048
GlyphClass: 2
Flags: W
LayerCount: 2
Fore
SplineSet
24.080078125 -27.5 m 4,0,1
 24.080078125 -23.099609375 24.080078125 -23.099609375 30.01953125 2.2001953125 c 6,2,-1
 134.959960938 473 l 6,3,4
 140.900390625 498.299804688 140.900390625 498.299804688 147.334960938 504.900390625 c 132,-1,5
 153.76953125 511.5 153.76953125 511.5 171.58984375 511.5 c 4,6,7
 202.280273438 511.5 202.280273438 511.5 202.280273438 486.200195312 c 4,8,9
 202.280273438 484 202.280273438 484 201.290039062 479.599609375 c 132,-1,10
 200.299804688 475.200195312 200.299804688 475.200195312 200.299804688 473 c 4,11,12
 184.459960938 408.099609375 184.459960938 408.099609375 183.469726562 335.5 c 4,13,14
 183.469726562 173.799804688 183.469726562 173.799804688 272.075195312 96.7998046875 c 132,-1,15
 360.680664062 19.7998046875 360.680664062 19.7998046875 488.389648438 19.7998046875 c 4,16,17
 620.060546875 19.7998046875 620.060546875 19.7998046875 723.514648438 156.200195312 c 132,-1,18
 826.969726562 292.599609375 826.969726562 292.599609375 826.969726562 451 c 4,19,20
 826.969726562 550 826.969726562 550 782.419921875 612.700195312 c 4,21,22
 757.669921875 642.400390625 757.669921875 642.400390625 732.424804688 654.5 c 132,-1,23
 707.180664062 666.599609375 707.180664062 666.599609375 626 694.099609375 c 6,24,-1
 526.010742188 724.900390625 l 6,25,26
 452.75 746.900390625 452.75 746.900390625 438.889648438 754.599609375 c 4,27,28
 277.51953125 838.200195312 277.51953125 838.200195312 277.51953125 1049.40039062 c 4,29,30
 277.51953125 1249.59960938 277.51953125 1249.59960938 421.0703125 1419 c 132,-1,31
 564.620117188 1588.40039062 564.620117188 1588.40039062 747.275390625 1588.40039062 c 132,-1,32
 929.930664062 1588.40039062 929.930664062 1588.40039062 1011.11035156 1435.5 c 5,33,-1
 1102.18945312 1560.90039062 l 6,34,35
 1121.98925781 1588.40039062 1121.98925781 1588.40039062 1132.87988281 1588.40039062 c 4,36,37
 1154.66015625 1588.40039062 1154.66015625 1588.40039062 1154.66015625 1567.5 c 4,38,39
 1154.66015625 1552.09960938 1154.66015625 1552.09960938 1150.70019531 1534.5 c 6,40,-1
 1045.76074219 1068.09960938 l 6,41,42
 1039.8203125 1040.59960938 1039.8203125 1040.59960938 1033.38574219 1034 c 132,-1,43
 1026.95019531 1027.40039062 1026.95019531 1027.40039062 1009.12988281 1027.40039062 c 4,44,45
 978.439453125 1027.40039062 978.439453125 1027.40039062 978.439453125 1049.40039062 c 6,46,-1
 980.419921875 1081.29980469 l 5,47,48
 990.3203125 1144 990.3203125 1144 990.3203125 1205.59960938 c 4,49,50
 990.3203125 1347.5 990.3203125 1347.5 932.900390625 1436.04980469 c 132,-1,51
 875.48046875 1524.59960938 875.48046875 1524.59960938 743.810546875 1524.59960938 c 4,52,53
 616.099609375 1524.59960938 616.099609375 1524.59960938 515.614257812 1403.04980469 c 132,-1,54
 415.129882812 1281.5 415.129882812 1281.5 415.129882812 1139.59960938 c 4,55,56
 415.129882812 991.099609375 415.129882812 991.099609375 518.08984375 941.599609375 c 4,57,58
 540.860351562 932.799804688 540.860351562 932.799804688 629.959960938 905.299804688 c 4,59,60
 782.419921875 855.799804688 782.419921875 855.799804688 821.525390625 835.450195312 c 132,-1,61
 860.629882812 815.099609375 860.629882812 815.099609375 897.260742188 765.599609375 c 4,62,63
 964.580078125 673.200195312 964.580078125 673.200195312 964.580078125 535.700195312 c 4,64,65
 964.580078125 316.799804688 964.580078125 316.799804688 818.555664062 133.650390625 c 132,-1,66
 672.530273438 -49.5 672.530273438 -49.5 483.439453125 -49.5 c 4,67,68
 268.610351562 -49.5 268.610351562 -49.5 173.5703125 105.599609375 c 5,69,70
 119.120117188 24.2001953125 119.120117188 24.2001953125 78.5302734375 -22 c 4,71,72
 58.73046875 -49.5 58.73046875 -49.5 45.8603515625 -49.5 c 4,73,74
 24.080078125 -49.5 24.080078125 -49.5 24.080078125 -27.5 c 4,0,1
EndSplineSet
Validated: 513
Substitution2: "'fwid' Full Widths lookup 32 subtable" uniFF33
Substitution2: "'c2sc' Capitals to Small Capitals lookup 26 subtable" s.sc
AlternateSubs2: "'aalt' Access All Alternates lookup 1 subtable" s.sc uniFF33
EndChar

StartChar: T
Encoding: 84 84 19
Width: 1200
VWidth: 2048
GlyphClass: 2
Flags: W
LayerCount: 2
Fore
SplineSet
26.7998046875 1042.79980469 m 4,0,1
 26.7998046875 1051.59960938 26.7998046875 1051.59960938 36.7001953125 1081.29980469 c 6,2,-1
 144.700195312 1485 l 6,3,4
 151.900390625 1514.70019531 151.900390625 1514.70019531 160.450195312 1519.65039062 c 132,-1,5
 169 1524.59960938 169 1524.59960938 198.700195312 1524.59960938 c 6,6,-1
 1143.70019531 1524.59960938 l 6,7,8
 1161.70019531 1524.59960938 1161.70019531 1524.59960938 1169.34960938 1523.5 c 132,-1,9
 1177 1522.40039062 1177 1522.40039062 1183.75 1516.90039062 c 132,-1,10
 1190.5 1511.40039062 1190.5 1511.40039062 1190.5 1498.20019531 c 4,11,12
 1190.5 1478.40039062 1190.5 1478.40039062 1188.70019531 1468.5 c 6,13,-1
 1132.90039062 1065.90039062 l 6,14,15
 1129.29980469 1034 1129.29980469 1034 1123.90039062 1026.29980469 c 132,-1,16
 1118.5 1018.59960938 1118.5 1018.59960938 1099.59960938 1018.59960938 c 4,17,18
 1071.70019531 1018.59960938 1071.70019531 1018.59960938 1072.59960938 1047.20019531 c 4,19,20
 1072.59960938 1056 1072.59960938 1056 1076.20019531 1081.29980469 c 4,21,22
 1094.20019531 1214.40039062 1094.20019531 1214.40039062 1094.20019531 1283.70019531 c 4,23,24
 1094.20019531 1389.29980469 1094.20019531 1389.29980469 1049.20019531 1422.29980469 c 132,-1,25
 1004.20019531 1455.29980469 1004.20019531 1455.29980469 860.200195312 1455.29980469 c 4,26,27
 779.200195312 1455.29980469 779.200195312 1455.29980469 764.799804688 1450.90039062 c 4,28,29
 735.099609375 1446.5 735.099609375 1446.5 721.599609375 1376.09960938 c 6,30,-1
 475 165 l 6,31,32
 467.799804688 133.099609375 467.799804688 133.099609375 467.799804688 122.099609375 c 4,33,34
 467.799804688 96.7998046875 467.799804688 96.7998046875 478.599609375 88 c 132,-1,35
 489.400390625 79.2001953125 489.400390625 79.2001953125 528.099609375 74.7998046875 c 4,36,37
 529.900390625 74.7998046875 529.900390625 74.7998046875 546.549804688 73.7001953125 c 132,-1,38
 563.200195312 72.599609375 563.200195312 72.599609375 585.700195312 70.9501953125 c 132,-1,39
 608.200195312 69.2998046875 608.200195312 69.2998046875 620.799804688 69.2998046875 c 6,40,-1
 648.700195312 69.2998046875 l 6,41,42
 694.599609375 69.2998046875 694.599609375 69.2998046875 694.599609375 45.099609375 c 4,43,44
 694.599609375 0 694.599609375 0 655.900390625 0 c 4,45,46
 610 0 610 0 511.900390625 3.2998046875 c 132,-1,47
 413.799804688 6.599609375 413.799804688 6.599609375 366.099609375 6.599609375 c 4,48,49
 320.200195312 6.599609375 320.200195312 6.599609375 224.349609375 3.2998046875 c 132,-1,50
 128.5 0 128.5 0 80.7998046875 0 c 4,51,52
 49.2998046875 0 49.2998046875 0 49.2998046875 27.5 c 4,53,54
 49.2998046875 57.2001953125 49.2998046875 57.2001953125 61.4501953125 63.25 c 132,-1,55
 73.599609375 69.2998046875 73.599609375 69.2998046875 100.599609375 69.2998046875 c 6,56,-1
 130.299804688 69.2998046875 l 6,57,58
 246.400390625 69.2998046875 246.400390625 69.2998046875 279.700195312 88.5498046875 c 132,-1,59
 313 107.799804688 313 107.799804688 325.599609375 171.599609375 c 6,60,-1
 573.099609375 1380.5 l 6,61,62
 580.299804688 1408 580.299804688 1408 580.299804688 1430 c 4,63,64
 580.299804688 1438.79980469 580.299804688 1438.79980469 578.5 1443.75 c 132,-1,65
 576.700195312 1448.70019531 576.700195312 1448.70019531 567.25 1452 c 132,-1,66
 557.799804688 1455.29980469 557.799804688 1455.29980469 538 1455.29980469 c 6,67,-1
 475 1455.29980469 l 6,68,69
 295.900390625 1455.29980469 295.900390625 1455.29980469 229.75 1390.95019531 c 132,-1,70
 163.599609375 1326.59960938 163.599609375 1326.59960938 98.7998046875 1090.09960938 c 4,71,72
 80.7998046875 1031.79980469 80.7998046875 1031.79980469 75.400390625 1025.20019531 c 132,-1,73
 70 1018.59960938 70 1018.59960938 54.7001953125 1018.59960938 c 4,74,75
 26.7998046875 1017.5 26.7998046875 1017.5 26.7998046875 1042.79980469 c 4,0,1
EndSplineSet
Validated: 513
Substitution2: "'fwid' Full Widths lookup 32 subtable" uniFF34
Substitution2: "'c2sc' Capitals to Small Capitals lookup 26 subtable" t.sc
AlternateSubs2: "'aalt' Access All Alternates lookup 1 subtable" t.sc uniFF34
EndChar

StartChar: U
Encoding: 85 85 20
Width: 1200
VWidth: 2048
GlyphClass: 2
Flags: W
LayerCount: 2
Fore
SplineSet
40.2001953125 374 m 4,0,1
 40.2001953125 446.599609375 40.2001953125 446.599609375 54.599609375 518.099609375 c 6,2,-1
 231.900390625 1388.20019531 l 6,3,4
 239.099609375 1420.09960938 239.099609375 1420.09960938 239.099609375 1430 c 4,5,6
 239.099609375 1455.29980469 239.099609375 1455.29980469 213.450195312 1461.90039062 c 132,-1,7
 187.799804688 1468.5 187.799804688 1468.5 132 1468.5 c 4,8,9
 111.299804688 1468.5 111.299804688 1468.5 103.200195312 1469.59960938 c 132,-1,10
 95.099609375 1470.70019531 95.099609375 1470.70019531 88.7998046875 1476.75 c 132,-1,11
 82.5 1482.79980469 82.5 1482.79980469 82.5 1496 c 4,12,13
 82.5 1538.90039062 82.5 1538.90039062 117.599609375 1538.90039062 c 132,-1,14
 152.700195312 1538.90039062 152.700195312 1538.90039062 227.400390625 1535.59960938 c 132,-1,15
 302.099609375 1532.29980469 302.099609375 1532.29980469 338.549804688 1532.29980469 c 132,-1,16
 375 1532.29980469 375 1532.29980469 447.900390625 1535.59960938 c 132,-1,17
 520.799804688 1538.90039062 520.799804688 1538.90039062 555.900390625 1538.90039062 c 4,18,19
 582 1538.90039062 582 1538.90039062 582 1509.20019531 c 4,20,21
 582 1481.70019531 582 1481.70019531 570.75 1475.09960938 c 132,-1,22
 559.5 1468.5 559.5 1468.5 526.200195312 1468.5 c 4,23,24
 441.599609375 1468.5 441.599609375 1468.5 416.849609375 1452 c 132,-1,25
 392.099609375 1435.5 392.099609375 1435.5 381.299804688 1378.29980469 c 6,26,-1
 196.799804688 473 l 6,27,28
 178.799804688 374 178.799804688 374 177.900390625 301.400390625 c 4,29,30
 177.900390625 159.5 177.900390625 159.5 235.950195312 89.650390625 c 132,-1,31
 294 19.7998046875 294 19.7998046875 375 19.7998046875 c 4,32,33
 507.299804688 19.7998046875 507.299804688 19.7998046875 633.75 160.599609375 c 132,-1,34
 760.200195312 301.400390625 760.200195312 301.400390625 803.400390625 515.900390625 c 6,35,-1
 967.200195312 1317.79980469 l 6,36,37
 974.400390625 1354.09960938 974.400390625 1354.09960938 974.400390625 1371.70019531 c 4,38,39
 974.400390625 1464.09960938 974.400390625 1464.09960938 863.700195312 1468.5 c 4,40,41
 830.400390625 1468.5 830.400390625 1468.5 830.400390625 1496 c 4,42,43
 830.400390625 1538.90039062 830.400390625 1538.90039062 863.700195312 1538.90039062 c 4,44,45
 891.599609375 1538.90039062 891.599609375 1538.90039062 951.450195312 1535.59960938 c 132,-1,46
 1011.29980469 1532.29980469 1011.29980469 1532.29980469 1041 1532.29980469 c 132,-1,47
 1070.70019531 1532.29980469 1070.70019531 1532.29980469 1128.75 1535.59960938 c 132,-1,48
 1186.79980469 1538.90039062 1186.79980469 1538.90039062 1213.79980469 1538.90039062 c 4,49,50
 1238.09960938 1538.90039062 1238.09960938 1538.90039062 1238.09960938 1509.20019531 c 4,51,52
 1238.09960938 1468.5 1238.09960938 1468.5 1210.20019531 1468.5 c 4,53,54
 1053.59960938 1461.90039062 1053.59960938 1461.90039062 1023.90039062 1315.59960938 c 6,55,-1
 856.5 490.599609375 l 6,56,57
 816 290.400390625 816 290.400390625 675.150390625 120.450195312 c 132,-1,58
 534.299804688 -49.5 534.299804688 -49.5 367.799804688 -49.5 c 4,59,60
 231 -49.5 231 -49.5 135.599609375 65.4501953125 c 132,-1,61
 40.2001953125 180.400390625 40.2001953125 180.400390625 40.2001953125 374 c 4,0,1
EndSplineSet
Validated: 513
Substitution2: "'fwid' Full Widths lookup 32 subtable" uniFF35
Substitution2: "'c2sc' Capitals to Small Capitals lookup 26 subtable" u.sc
AlternateSubs2: "'aalt' Access All Alternates lookup 1 subtable" u.sc uniFF35
EndChar

StartChar: V
Encoding: 86 86 21
Width: 1200
VWidth: 2048
GlyphClass: 2
Flags: W
LayerCount: 2
Fore
SplineSet
-8.2998046875 1496 m 4,0,1
 -8.2998046875 1538.90039062 -8.2998046875 1538.90039062 25 1538.90039062 c 4,2,3
 54.7001953125 1538.90039062 54.7001953125 1538.90039062 118.150390625 1535.59960938 c 132,-1,4
 181.599609375 1532.29980469 181.599609375 1532.29980469 213.099609375 1532.29980469 c 4,5,6
 248.200195312 1532.29980469 248.200195312 1532.29980469 319.75 1535.59960938 c 132,-1,7
 391.299804688 1538.90039062 391.299804688 1538.90039062 424.599609375 1538.90039062 c 4,8,9
 450.700195312 1538.90039062 450.700195312 1538.90039062 450.700195312 1511.40039062 c 4,10,11
 450.700195312 1481.70019531 450.700195312 1481.70019531 439.450195312 1475.09960938 c 132,-1,12
 428.200195312 1468.5 428.200195312 1468.5 404.799804688 1468.5 c 4,13,14
 288.700195312 1468.5 288.700195312 1468.5 288.700195312 1399.20019531 c 5,15,-1
 382.299804688 218.900390625 l 5,16,-1
 915.099609375 1306.79980469 l 6,17,18
 943 1365.09960938 943 1365.09960938 943 1397 c 4,19,20
 943 1464.09960938 943 1464.09960938 869.200195312 1468.5 c 4,21,22
 839.5 1472.90039062 839.5 1472.90039062 839.5 1496 c 4,23,24
 839.5 1538.90039062 839.5 1538.90039062 872.799804688 1538.90039062 c 4,25,26
 898.900390625 1538.90039062 898.900390625 1538.90039062 956.950195312 1535.59960938 c 132,-1,27
 1015 1532.29980469 1015 1532.29980469 1042 1532.29980469 c 4,28,29
 1066.29980469 1532.29980469 1066.29980469 1532.29980469 1113.09960938 1535.59960938 c 132,-1,30
 1159.90039062 1538.90039062 1159.90039062 1538.90039062 1182.40039062 1538.90039062 c 4,31,32
 1206.70019531 1538.90039062 1206.70019531 1538.90039062 1206.70019531 1513.59960938 c 4,33,34
 1206.70019531 1498.20019531 1206.70019531 1498.20019531 1204 1489.40039062 c 132,-1,35
 1201.29980469 1480.59960938 1201.29980469 1480.59960938 1193.65039062 1475.65039062 c 132,-1,36
 1186 1470.70019531 1186 1470.70019531 1183.29980469 1470.70019531 c 132,-1,37
 1180.59960938 1470.70019531 1180.59960938 1470.70019531 1171.59960938 1468.5 c 4,38,39
 1110.40039062 1461.90039062 1110.40039062 1461.90039062 1062.70019531 1426.15039062 c 132,-1,40
 1015 1390.40039062 1015 1390.40039062 964.599609375 1285.90039062 c 6,41,-1
 332.799804688 -6.599609375 l 6,42,43
 318.400390625 -36.2998046875 318.400390625 -36.2998046875 308.950195312 -42.900390625 c 132,-1,44
 299.5 -49.5 299.5 -49.5 281.5 -49.5 c 4,45,46
 260.799804688 -49.5 260.799804688 -49.5 255.400390625 -39.599609375 c 132,-1,47
 250 -29.7001953125 250 -29.7001953125 246.400390625 4.400390625 c 6,48,-1
 135.700195312 1392.59960938 l 6,49,50
 133.900390625 1426.70019531 133.900390625 1426.70019531 128.049804688 1438.79980469 c 132,-1,51
 122.200195312 1450.90039062 122.200195312 1450.90039062 101.950195312 1459.70019531 c 132,-1,52
 81.7001953125 1468.5 81.7001953125 1468.5 35.7998046875 1468.5 c 4,53,54
 -8.2998046875 1468.5 -8.2998046875 1468.5 -8.2998046875 1496 c 4,0,1
EndSplineSet
Validated: 513
Substitution2: "'fwid' Full Widths lookup 32 subtable" uniFF36
Substitution2: "'c2sc' Capitals to Small Capitals lookup 26 subtable" v.sc
AlternateSubs2: "'aalt' Access All Alternates lookup 1 subtable" v.sc uniFF36
EndChar

StartChar: W
Encoding: 87 87 22
Width: 1200
VWidth: 2048
GlyphClass: 2
Flags: W
LayerCount: 2
Fore
SplineSet
-43.66015625 1496 m 4,0,1
 -43.66015625 1538.90039062 -43.66015625 1538.90039062 -17.01953125 1538.90039062 c 4,2,3
 5.2998046875 1538.90039062 5.2998046875 1538.90039062 54.6201171875 1535.59960938 c 132,-1,4
 103.939453125 1532.29980469 103.939453125 1532.29980469 127.700195312 1532.29980469 c 4,5,6
 154.33984375 1532.29980469 154.33984375 1532.29980469 210.139648438 1535.59960938 c 132,-1,7
 265.939453125 1538.90039062 265.939453125 1538.90039062 294.01953125 1538.90039062 c 4,8,9
 314.900390625 1538.90039062 314.900390625 1538.90039062 314.900390625 1511.40039062 c 4,10,11
 314.900390625 1481.70019531 314.900390625 1481.70019531 305.900390625 1475.09960938 c 132,-1,12
 296.900390625 1468.5 296.900390625 1468.5 277.459960938 1468.5 c 4,13,14
 242.180664062 1468.5 242.180664062 1468.5 220.939453125 1459.70019531 c 132,-1,15
 199.700195312 1450.90039062 199.700195312 1450.90039062 192.139648438 1431.65039062 c 132,-1,16
 184.580078125 1412.40039062 184.580078125 1412.40039062 182.419921875 1400.29980469 c 132,-1,17
 180.260742188 1388.20019531 180.260742188 1388.20019531 181.700195312 1362.90039062 c 6,18,-1
 214.099609375 261.799804688 l 5,19,-1
 558.260742188 1225.40039062 l 6,20,21
 566.900390625 1247.40039062 566.900390625 1247.40039062 566.900390625 1270.5 c 4,22,23
 566.900390625 1384.90039062 566.900390625 1384.90039062 561.139648438 1421.20019531 c 4,24,25
 558.260742188 1448.70019531 558.260742188 1448.70019531 546.379882812 1458.59960938 c 132,-1,26
 534.5 1468.5 534.5 1468.5 489.860351562 1468.5 c 4,27,28
 458.900390625 1468.5 458.900390625 1468.5 458.900390625 1496 c 4,29,30
 458.900390625 1538.90039062 458.900390625 1538.90039062 485.540039062 1538.90039062 c 4,31,32
 507.860351562 1538.90039062 507.860351562 1538.90039062 557.180664062 1535.59960938 c 132,-1,33
 606.5 1532.29980469 606.5 1532.29980469 630.260742188 1532.29980469 c 4,34,35
 658.33984375 1532.29980469 658.33984375 1532.29980469 714.139648438 1535.59960938 c 132,-1,36
 769.939453125 1538.90039062 769.939453125 1538.90039062 796.580078125 1538.90039062 c 4,37,38
 817.459960938 1538.90039062 817.459960938 1538.90039062 817.459960938 1513.59960938 c 4,39,40
 817.459960938 1493.79980469 817.459960938 1493.79980469 811.700195312 1482.25 c 132,-1,41
 805.939453125 1470.70019531 805.939453125 1470.70019531 801.260742188 1469.59960938 c 132,-1,42
 796.580078125 1468.5 796.580078125 1468.5 787.939453125 1468.5 c 4,43,44
 723.139648438 1466.29980469 723.139648438 1466.29980469 703.33984375 1443.75 c 132,-1,45
 683.540039062 1421.20019531 683.540039062 1421.20019531 683.540039062 1386 c 4,46,47
 683.540039062 1372.79980469 683.540039062 1372.79980469 684.98046875 1369.5 c 6,48,-1
 717.379882812 261.799804688 l 5,49,-1
 1090.33984375 1311.20019531 l 6,50,51
 1106.90039062 1356.29980469 1106.90039062 1356.29980469 1106.18066406 1382.70019531 c 4,52,53
 1106.18066406 1461.90039062 1106.18066406 1461.90039062 1031.29980469 1468.5 c 4,54,55
 1007.54003906 1468.5 1007.54003906 1468.5 1007.54003906 1496 c 4,56,57
 1007.54003906 1538.90039062 1007.54003906 1538.90039062 1035.62011719 1538.90039062 c 4,58,59
 1059.37988281 1538.90039062 1059.37988281 1538.90039062 1108.70019531 1535.59960938 c 132,-1,60
 1158.01953125 1532.29980469 1158.01953125 1532.29980469 1181.78027344 1532.29980469 c 4,61,62
 1199.78027344 1532.29980469 1199.78027344 1532.29980469 1236.5 1535.59960938 c 132,-1,63
 1273.21972656 1538.90039062 1273.21972656 1538.90039062 1289.06054688 1538.90039062 c 4,64,65
 1307.06054688 1538.90039062 1307.06054688 1538.90039062 1307.06054688 1513.59960938 c 4,66,67
 1307.06054688 1470.70019531 1307.06054688 1470.70019531 1286.18066406 1468.5 c 4,68,69
 1231.45996094 1461.90039062 1231.45996094 1461.90039062 1199.06054688 1425.04980469 c 132,-1,70
 1166.66015625 1388.20019531 1166.66015625 1388.20019531 1129.93945312 1283.70019531 c 6,71,-1
 668.419921875 -8.7998046875 l 6,72,73
 654.01953125 -49.5 654.01953125 -49.5 630.260742188 -49.5 c 4,74,75
 612.260742188 -49.5 612.260742188 -49.5 608.66015625 -39.599609375 c 132,-1,76
 605.060546875 -29.7001953125 605.060546875 -29.7001953125 603.620117188 6.599609375 c 6,77,-1
 571.219726562 1128.59960938 l 5,78,-1
 165.860351562 -4.400390625 l 6,79,80
 155.780273438 -31.900390625 155.780273438 -31.900390625 149.66015625 -40.7001953125 c 132,-1,81
 143.540039062 -49.5 143.540039062 -49.5 127.33984375 -49.5 c 132,-1,82
 111.139648438 -49.5 111.139648438 -49.5 106.8203125 -39.599609375 c 132,-1,83
 102.5 -29.7001953125 102.5 -29.7001953125 101.060546875 6.599609375 c 6,84,-1
 59.2998046875 1397 l 6,85,86
 57.8603515625 1428.90039062 57.8603515625 1428.90039062 55.7001953125 1441 c 132,-1,87
 53.5400390625 1453.09960938 53.5400390625 1453.09960938 38.7802734375 1460.79980469 c 132,-1,88
 24.01953125 1468.5 24.01953125 1468.5 -8.3798828125 1468.5 c 4,89,90
 -43.66015625 1468.5 -43.66015625 1468.5 -43.66015625 1496 c 4,0,1
EndSplineSet
Validated: 545
Substitution2: "'fwid' Full Widths lookup 32 subtable" uniFF37
Substitution2: "'c2sc' Capitals to Small Capitals lookup 26 subtable" w.sc
AlternateSubs2: "'aalt' Access All Alternates lookup 1 subtable" w.sc uniFF37
EndChar

StartChar: X
Encoding: 88 88 23
Width: 1200
VWidth: 2048
GlyphClass: 2
Flags: W
LayerCount: 2
Fore
SplineSet
-41.419921875 27.5 m 4,0,1
 -41.419921875 68.2001953125 -41.419921875 68.2001953125 -21.169921875 69.2998046875 c 4,2,3
 20.1396484375 73.7001953125 20.1396484375 73.7001953125 47.6806640625 79.75 c 132,-1,4
 75.2197265625 85.7998046875 75.2197265625 85.7998046875 127.46484375 125.400390625 c 132,-1,5
 179.709960938 165 179.709960938 165 224.260742188 234.299804688 c 6,6,-1
 569.3203125 767.799804688 l 5,7,-1
 398.41015625 1397 l 6,8,9
 390.310546875 1426.70019531 390.310546875 1426.70019531 383.830078125 1438.79980469 c 132,-1,10
 377.349609375 1450.90039062 377.349609375 1450.90039062 354.669921875 1459.70019531 c 132,-1,11
 331.989257812 1468.5 331.989257812 1468.5 289.060546875 1468.5 c 4,12,13
 249.370117188 1468.5 249.370117188 1468.5 249.370117188 1496 c 4,14,15
 249.370117188 1538.90039062 249.370117188 1538.90039062 280.959960938 1538.90039062 c 4,16,17
 307.689453125 1538.90039062 307.689453125 1538.90039062 364.794921875 1535.59960938 c 132,-1,18
 421.900390625 1532.29980469 421.900390625 1532.29980469 450.25 1532.29980469 c 4,19,20
 483.459960938 1532.29980469 483.459960938 1532.29980469 547.85546875 1535.59960938 c 132,-1,21
 612.25 1538.90039062 612.25 1538.90039062 643.83984375 1538.90039062 c 4,22,23
 667.330078125 1538.90039062 667.330078125 1538.90039062 667.330078125 1509.20019531 c 4,24,25
 667.330078125 1468.5 667.330078125 1468.5 640.599609375 1468.5 c 4,26,27
 612.25 1466.29980469 612.25 1466.29980469 589.165039062 1453.09960938 c 132,-1,28
 566.080078125 1439.90039062 566.080078125 1439.90039062 555.955078125 1426.15039062 c 132,-1,29
 545.830078125 1412.40039062 545.830078125 1412.40039062 545.830078125 1403.59960938 c 4,30,31
 545.830078125 1401.40039062 545.830078125 1401.40039062 549.474609375 1389.84960938 c 132,-1,32
 553.120117188 1378.29980469 553.120117188 1378.29980469 553.120117188 1376.09960938 c 6,33,-1
 673.810546875 928.400390625 l 5,34,-1
 919.239257812 1311.20019531 l 6,35,36
 954.0703125 1365.09960938 954.0703125 1365.09960938 954.0703125 1401.40039062 c 4,37,38
 954.0703125 1457.5 954.0703125 1457.5 894.939453125 1468.5 c 4,39,40
 874.689453125 1468.5 874.689453125 1468.5 874.689453125 1496 c 4,41,42
 874.689453125 1538.90039062 874.689453125 1538.90039062 904.66015625 1538.90039062 c 4,43,44
 931.389648438 1538.90039062 931.389648438 1538.90039062 990.114257812 1535.59960938 c 132,-1,45
 1048.83984375 1532.29980469 1048.83984375 1532.29980469 1077.18945312 1532.29980469 c 4,46,47
 1102.29980469 1532.29980469 1102.29980469 1532.29980469 1150.08984375 1535.59960938 c 132,-1,48
 1197.87988281 1538.90039062 1197.87988281 1538.90039062 1221.37011719 1538.90039062 c 4,49,50
 1243.23925781 1538.90039062 1243.23925781 1538.90039062 1243.23925781 1511.95019531 c 132,-1,51
 1243.23925781 1485 1243.23925781 1485 1234.73535156 1477.84960938 c 132,-1,52
 1226.23046875 1470.70019531 1226.23046875 1470.70019531 1208.41015625 1468.5 c 4,53,54
 1150.08984375 1464.09960938 1150.08984375 1464.09960938 1100.27539062 1431.65039062 c 132,-1,55
 1050.45996094 1399.20019531 1050.45996094 1399.20019531 1030.61425781 1374.45019531 c 132,-1,56
 1010.76953125 1349.70019531 1010.76953125 1349.70019531 980.799804688 1306.79980469 c 5,57,-1
 960.549804688 1283.70019531 l 5,58,-1
 690.8203125 862.400390625 l 5,59,-1
 887.650390625 137.5 l 6,60,61
 894.129882812 110 894.129882812 110 901.014648438 99 c 132,-1,62
 907.900390625 88 907.900390625 88 930.174804688 78.650390625 c 132,-1,63
 952.450195312 69.2998046875 952.450195312 69.2998046875 995.379882812 69.2998046875 c 4,64,65
 1011.58007812 69.2998046875 1011.58007812 69.2998046875 1018.46484375 68.2001953125 c 132,-1,66
 1025.34960938 67.099609375 1025.34960938 67.099609375 1030.61425781 60.5 c 132,-1,67
 1035.87988281 53.900390625 1035.87988281 53.900390625 1035.87988281 40.7001953125 c 4,68,69
 1035.87988281 0 1035.87988281 0 1005.91015625 0 c 4,70,71
 979.180664062 0 979.180664062 0 921.264648438 3.2998046875 c 132,-1,72
 863.349609375 6.599609375 863.349609375 6.599609375 835 6.599609375 c 4,73,74
 803.41015625 6.599609375 803.41015625 6.599609375 738.610351562 3.2998046875 c 132,-1,75
 673.810546875 0 673.810546875 0 642.219726562 0 c 4,76,77
 617.110351562 0 617.110351562 0 617.919921875 27.5 c 4,78,79
 617.919921875 66 617.919921875 66 643.83984375 69.2998046875 c 4,80,81
 685.150390625 71.5 685.150390625 71.5 711.879882812 94.0498046875 c 132,-1,82
 738.610351562 116.599609375 738.610351562 116.599609375 738.610351562 137.5 c 5,83,-1
 733.75 165 l 5,84,-1
 587.950195312 702.900390625 l 5,85,-1
 268.810546875 209 l 5,86,-1
 267.189453125 204.599609375 l 6,87,88
 263.950195312 195.799804688 263.950195312 195.799804688 260.709960938 191.400390625 c 4,89,90
 247.75 166.099609375 247.75 166.099609375 247.75 137.5 c 4,91,92
 247.75 77 247.75 77 305.260742188 69.2998046875 c 4,93,94
 327.129882812 69.2998046875 327.129882812 69.2998046875 327.129882812 45.099609375 c 4,95,96
 327.129882812 0 327.129882812 0 295.540039062 0 c 4,97,98
 268.810546875 0 268.810546875 0 210.89453125 3.2998046875 c 132,-1,99
 152.98046875 6.599609375 152.98046875 6.599609375 124.629882812 6.599609375 c 4,100,101
 99.51953125 6.599609375 99.51953125 6.599609375 50.919921875 3.2998046875 c 132,-1,102
 2.3203125 0 2.3203125 0 -21.169921875 0 c 4,103,104
 -41.419921875 0 -41.419921875 0 -41.419921875 27.5 c 4,0,1
EndSplineSet
Validated: 513
Substitution2: "'fwid' Full Widths lookup 32 subtable" uniFF38
Substitution2: "'c2sc' Capitals to Small Capitals lookup 26 subtable" x.sc
AlternateSubs2: "'aalt' Access All Alternates lookup 1 subtable" x.sc uniFF38
EndChar

StartChar: Y
Encoding: 89 89 24
Width: 1200
VWidth: 2048
GlyphClass: 2
Flags: W
LayerCount: 2
Fore
SplineSet
-17.7998046875 1496 m 4,0,1
 -17.7998046875 1538.90039062 -17.7998046875 1538.90039062 17.2998046875 1538.90039062 c 4,2,3
 47 1538.90039062 47 1538.90039062 112.25 1535.59960938 c 132,-1,4
 177.5 1532.29980469 177.5 1532.29980469 209 1532.29980469 c 4,5,6
 245.900390625 1532.29980469 245.900390625 1532.29980469 317.450195312 1535.59960938 c 132,-1,7
 389 1538.90039062 389 1538.90039062 424.099609375 1538.90039062 c 4,8,9
 450.200195312 1538.90039062 450.200195312 1538.90039062 450.200195312 1511.40039062 c 4,10,11
 450.200195312 1481.70019531 450.200195312 1481.70019531 439.849609375 1475.09960938 c 132,-1,12
 429.5 1468.5 429.5 1468.5 409.700195312 1468.5 c 4,13,14
 306.200195312 1468.5 306.200195312 1468.5 306.200195312 1414.59960938 c 4,15,16
 306.200195312 1408 306.200195312 1408 313.400390625 1386 c 6,17,-1
 488.900390625 709.5 l 5,18,-1
 892.099609375 1311.20019531 l 5,19,-1
 898.400390625 1320 l 6,20,21
 903.799804688 1328.79980469 903.799804688 1328.79980469 910.099609375 1340.34960938 c 132,-1,22
 916.400390625 1351.90039062 916.400390625 1351.90039062 922.700195312 1365.09960938 c 132,-1,23
 929 1378.29980469 929 1378.29980469 933.950195312 1392.04980469 c 132,-1,24
 938.900390625 1405.79980469 938.900390625 1405.79980469 938.900390625 1416.79980469 c 4,25,26
 938.900390625 1464.09960938 938.900390625 1464.09960938 881.299804688 1468.5 c 4,27,28
 853.400390625 1468.5 853.400390625 1468.5 853.400390625 1496 c 4,29,30
 853.400390625 1538.90039062 853.400390625 1538.90039062 886.700195312 1538.90039062 c 4,31,32
 914.599609375 1538.90039062 914.599609375 1538.90039062 971.75 1535.59960938 c 132,-1,33
 1028.90039062 1532.29980469 1028.90039062 1532.29980469 1058.59960938 1532.29980469 c 4,34,35
 1082.90039062 1532.29980469 1082.90039062 1532.29980469 1129.70019531 1535.59960938 c 132,-1,36
 1176.5 1538.90039062 1176.5 1538.90039062 1198.54980469 1538.90039062 c 132,-1,37
 1220.59960938 1538.90039062 1220.59960938 1538.90039062 1220.59960938 1513.59960938 c 4,38,39
 1220.59960938 1483.90039062 1220.59960938 1483.90039062 1212.5 1477.29980469 c 132,-1,40
 1204.40039062 1470.70019531 1204.40039062 1470.70019531 1185.5 1468.5 c 4,41,42
 1117.09960938 1461.90039062 1117.09960938 1461.90039062 1059.95019531 1420.09960938 c 132,-1,43
 1002.79980469 1378.29980469 1002.79980469 1378.29980469 940.700195312 1283.70019531 c 6,44,-1
 505.099609375 638 l 6,45,46
 494.299804688 622.599609375 494.299804688 622.599609375 483.5 576.400390625 c 4,47,48
 472.700195312 522.5 472.700195312 522.5 452.900390625 427.900390625 c 132,-1,49
 433.099609375 333.299804688 433.099609375 333.299804688 425.900390625 299.200195312 c 4,50,51
 390.799804688 121 390.799804688 121 390.799804688 107.799804688 c 4,52,53
 390.799804688 82.5 390.799804688 82.5 416.900390625 75.900390625 c 132,-1,54
 443 69.2998046875 443 69.2998046875 497.900390625 69.2998046875 c 4,55,56
 518.599609375 69.2998046875 518.599609375 69.2998046875 526.700195312 68.2001953125 c 132,-1,57
 534.799804688 67.099609375 534.799804688 67.099609375 541.099609375 61.599609375 c 132,-1,58
 547.400390625 56.099609375 547.400390625 56.099609375 547.400390625 42.900390625 c 4,59,60
 547.400390625 0 547.400390625 0 512.75 0 c 132,-1,61
 478.099609375 0 478.099609375 0 404.299804688 3.2998046875 c 132,-1,62
 330.5 6.599609375 330.5 6.599609375 293.599609375 6.599609375 c 4,63,64
 258.5 6.599609375 258.5 6.599609375 186.5 3.2998046875 c 132,-1,65
 114.5 0 114.5 0 79.400390625 0 c 4,66,67
 53.2998046875 0 53.2998046875 0 54.2001953125 27.5 c 4,68,69
 54.2001953125 57.2001953125 54.2001953125 57.2001953125 65 63.25 c 132,-1,70
 75.7998046875 69.2998046875 75.7998046875 69.2998046875 100.099609375 69.2998046875 c 4,71,72
 201.799804688 71.5 201.799804688 71.5 222.950195312 89.650390625 c 132,-1,73
 244.099609375 107.799804688 244.099609375 107.799804688 262.099609375 202.400390625 c 4,74,75
 346.700195312 596.200195312 346.700195312 596.200195312 346.700195312 614.900390625 c 4,76,77
 346.700195312 625.900390625 346.700195312 625.900390625 339.5 649 c 6,78,-1
 144.200195312 1401.40039062 l 6,79,80
 135.200195312 1442.09960938 135.200195312 1442.09960938 111.799804688 1455.29980469 c 132,-1,81
 88.400390625 1468.5 88.400390625 1468.5 26.2998046875 1468.5 c 4,82,83
 -17.7998046875 1468.5 -17.7998046875 1468.5 -17.7998046875 1496 c 4,0,1
EndSplineSet
Validated: 513
Substitution2: "'fwid' Full Widths lookup 32 subtable" uniFF39
Substitution2: "'c2sc' Capitals to Small Capitals lookup 26 subtable" y.sc
AlternateSubs2: "'aalt' Access All Alternates lookup 1 subtable" y.sc uniFF39
EndChar

StartChar: Z
Encoding: 90 90 25
Width: 1200
VWidth: 2048
GlyphClass: 2
Flags: W
LayerCount: 2
Fore
SplineSet
20.2998046875 19.7998046875 m 4,0,1
 20.2998046875 47.2998046875 20.2998046875 47.2998046875 40.099609375 77 c 6,2,-1
 993.200195312 1468.5 l 5,3,-1
 734.900390625 1468.5 l 6,4,5
 629.599609375 1468.5 629.599609375 1468.5 555.349609375 1438.25 c 132,-1,6
 481.099609375 1408 481.099609375 1408 435.650390625 1344.75 c 132,-1,7
 390.200195312 1281.5 390.200195312 1281.5 365.450195312 1223.20019531 c 132,-1,8
 340.700195312 1164.90039062 340.700195312 1164.90039062 317.299804688 1072.5 c 4,9,10
 313.700195312 1057.09960938 313.700195312 1057.09960938 311.900390625 1052.15039062 c 132,-1,11
 310.099609375 1047.20019531 310.099609375 1047.20019531 306.049804688 1040.59960938 c 132,-1,12
 302 1034 302 1034 297.5 1032.90039062 c 132,-1,13
 293 1031.79980469 293 1031.79980469 284 1031.79980469 c 4,14,15
 256.099609375 1031.79980469 256.099609375 1031.79980469 256.099609375 1057.09960938 c 4,16,17
 256.099609375 1072.5 256.099609375 1072.5 261.5 1085.70019531 c 6,18,-1
 361.400390625 1493.79980469 l 6,19,20
 370.400390625 1525.70019531 370.400390625 1525.70019531 377.599609375 1532.29980469 c 132,-1,21
 384.799804688 1538.90039062 384.799804688 1538.90039062 414.5 1538.90039062 c 6,22,-1
 1128.20019531 1538.90039062 l 6,23,24
 1142.59960938 1538.90039062 1142.59960938 1538.90039062 1148 1538.90039062 c 132,-1,25
 1153.40039062 1538.90039062 1153.40039062 1538.90039062 1160.15039062 1536.70019531 c 132,-1,26
 1166.90039062 1534.5 1166.90039062 1534.5 1168.70019531 1529.54980469 c 132,-1,27
 1170.5 1524.59960938 1170.5 1524.59960938 1170.5 1518 c 4,28,29
 1170.5 1490.5 1170.5 1490.5 1148 1459.70019531 c 6,30,-1
 198.5 77 l 5,31,-1
 470.299804688 77 l 6,32,33
 563.900390625 77 563.900390625 77 634.099609375 102.849609375 c 132,-1,34
 704.299804688 128.700195312 704.299804688 128.700195312 747.5 164.450195312 c 132,-1,35
 790.700195312 200.200195312 790.700195312 200.200195312 825.799804688 270.049804688 c 132,-1,36
 860.900390625 339.900390625 860.900390625 339.900390625 878.450195312 394.349609375 c 132,-1,37
 896 448.799804688 896 448.799804688 921.200195312 545.599609375 c 4,38,39
 932 586.299804688 932 586.299804688 937.849609375 594 c 132,-1,40
 943.700195312 601.700195312 943.700195312 601.700195312 958.099609375 601.700195312 c 4,41,42
 987.799804688 601.700195312 987.799804688 601.700195312 987.799804688 574.200195312 c 4,43,44
 987.799804688 561 987.799804688 561 978.799804688 537.900390625 c 6,45,-1
 853.700195312 40.7001953125 l 6,46,47
 846.5 11 846.5 11 838.849609375 5.5 c 132,-1,48
 831.200195312 0 831.200195312 0 799.700195312 0 c 6,49,-1
 62.599609375 0 l 6,50,51
 20.2998046875 0 20.2998046875 0 20.2998046875 19.7998046875 c 4,0,1
EndSplineSet
Validated: 513
Substitution2: "'fwid' Full Widths lookup 32 subtable" uniFF3A
Substitution2: "'c2sc' Capitals to Small Capitals lookup 26 subtable" z.sc
AlternateSubs2: "'aalt' Access All Alternates lookup 1 subtable" z.sc uniFF3A
EndChar

StartChar: a
Encoding: 97 97 26
Width: 1200
VWidth: 2048
GlyphClass: 2
Flags: W
LayerCount: 2
Fore
SplineSet
56.48046875 365.799804688 m 4,0,1
 56.48046875 642.3203125 56.48046875 642.3203125 241.860351562 882.259765625 c 132,-1,2
 427.240234375 1122.20019531 427.240234375 1122.20019531 638.040039062 1122.20019531 c 4,3,4
 783.120117188 1122.20019531 783.120117188 1122.20019531 848.83984375 972.16015625 c 5,5,6
 868.6796875 1071.36035156 868.6796875 1071.36035156 950.51953125 1071.36035156 c 4,7,8
 1018.71972656 1071.36035156 1018.71972656 1071.36035156 1018.71972656 1005.63964844 c 4,9,10
 1018.71972656 988.280273438 1018.71972656 988.280273438 1008.79980469 952.3203125 c 6,11,-1
 836.440429688 261.639648438 l 6,12,13
 819.080078125 190.959960938 819.080078125 190.959960938 819.080078125 131.440429688 c 4,14,15
 819.080078125 28.51953125 819.080078125 28.51953125 883.559570312 28.51953125 c 6,16,17
 883.559570312 28.51953125 883.559570312 28.51953125 884.799804688 28.51953125 c 4,18,19
 979.040039062 28.51953125 979.040039062 28.51953125 1054.6796875 329.83984375 c 4,20,21
 1064.59960938 370.759765625 1064.59960938 370.759765625 1072.66015625 379.440429688 c 132,-1,22
 1080.71972656 388.120117188 1080.71972656 388.120117188 1103.04003906 388.120117188 c 4,23,24
 1141.48046875 388.120117188 1141.48046875 388.120117188 1141.48046875 363.3203125 c 4,25,26
 1141.48046875 358.360351562 1141.48046875 358.360351562 1132.1796875 318.6796875 c 132,-1,27
 1122.87988281 279 1122.87988281 279 1104.28027344 218.240234375 c 132,-1,28
 1085.6796875 157.48046875 1085.6796875 157.48046875 1064.59960938 114.080078125 c 4,29,30
 996.400390625 -28.51953125 996.400390625 -28.51953125 879.83984375 -28.51953125 c 4,31,32
 806.6796875 -28.51953125 806.6796875 -28.51953125 747.780273438 16.1201171875 c 132,-1,33
 688.879882812 60.759765625 688.879882812 60.759765625 669.040039062 150.040039062 c 5,34,35
 523.959960938 -27.2802734375 523.959960938 -27.2802734375 364 -28.51953125 c 4,36,37
 223.879882812 -28.51953125 223.879882812 -28.51953125 140.1796875 84.9404296875 c 132,-1,38
 56.48046875 198.400390625 56.48046875 198.400390625 56.48046875 365.799804688 c 4,0,1
228.83984375 254.200195312 m 4,39,40
 228.83984375 169.879882812 228.83984375 169.879882812 259.83984375 99.2001953125 c 132,-1,41
 290.83984375 28.51953125 290.83984375 28.51953125 368.959960938 28.51953125 c 4,42,43
 463.200195312 28.51953125 463.200195312 28.51953125 566.120117188 133.919921875 c 132,-1,44
 669.040039062 239.3203125 669.040039062 239.3203125 686.400390625 314.959960938 c 6,45,-1
 805.440429688 794.83984375 l 6,46,47
 812.879882812 817.16015625 812.879882812 817.16015625 812.879882812 828.3203125 c 4,48,49
 812.879882812 917.599609375 812.879882812 917.599609375 765.139648438 992 c 132,-1,50
 717.400390625 1066.40039062 717.400390625 1066.40039062 638.040039062 1066.40039062 c 4,51,52
 562.400390625 1066.40039062 562.400390625 1066.40039062 482.419921875 985.1796875 c 132,-1,53
 402.440429688 903.959960938 402.440429688 903.959960938 354.080078125 784.919921875 c 4,54,55
 315.639648438 695.639648438 315.639648438 695.639648438 272.240234375 519.559570312 c 132,-1,56
 228.83984375 343.48046875 228.83984375 343.48046875 228.83984375 254.200195312 c 4,39,40
EndSplineSet
Validated: 513
Substitution2: "Single Substitution lookup 63 subtable" ordfeminine
Substitution2: "'ss06' Style Set 6 lookup 46 subtable" a.alternate
Substitution2: "'fwid' Full Widths lookup 32 subtable" uniFF41
Substitution2: "'smcp' Lowercase to Small Capitals lookup 27 subtable" a.sc
Substitution2: "'sinf' Scientific Inferiors lookup 14 subtable" uni2090
Substitution2: "'subs' Subscript lookup 13 subtable" uni2090
AlternateSubs2: "'aalt' Access All Alternates lookup 1 subtable" uni2090 ordfeminine a.sc uniFF41 a.alternate
EndChar

StartChar: b
Encoding: 98 98 27
Width: 1200
VWidth: 2048
GlyphClass: 2
InSpiro: 1
Flags: W
LayerCount: 2
Fore
SplineSet
250.700195312 317.900390625 m 0,0,1
 250.700195312 427.900390625 250.700195312 427.900390625 274.900390625 502.700195312 c 1,2,-1
 498.200195312 1392.59960938 l 1,3,4
 498.200195312 1392.59960938 498.200195312 1392.59960938 500.400390625 1410.20019531 c 0,5,6
 504.799804688 1425.59960938 504.799804688 1425.59960938 504.799804688 1430 c 0,7,8
 504.799804688 1443.20019531 504.799804688 1443.20019531 500.400390625 1450.34960938 c 128,-1,9
 496 1457.5 496 1457.5 470.150390625 1463 c 128,-1,10
 444.299804688 1468.5 444.299804688 1468.5 392.599609375 1468.5 c 0,11,12
 338.700195312 1468.5 338.700195312 1468.5 337.599609375 1493.79980469 c 0,13,14
 337.599609375 1513.59960938 337.599609375 1513.59960938 345.849609375 1524.04980469 c 128,-1,15
 354.099609375 1534.5 354.099609375 1534.5 362.900390625 1536.70019531 c 128,-1,16
 371.700195312 1538.90039062 371.700195312 1538.90039062 389.299804688 1541.09960938 c 2,17,-1
 612.599609375 1558.70019531 l 2,18,19
 625.799804688 1563.09960938 625.799804688 1563.09960938 648.900390625 1563.09960938 c 0,20,21
 680.799804688 1563.09960938 680.799804688 1563.09960938 680.799804688 1536.70019531 c 0,22,23
 680.799804688 1527.90039062 680.799804688 1527.90039062 674.200195312 1507 c 2,24,-1
 515.799804688 876.700195312 l 1,25,26
 641.200195312 995.5 641.200195312 995.5 752.299804688 995.5 c 0,27,28
 753.400390625 995.5 753.400390625 995.5 754.5 995.5 c 0,29,30
 864.5 995.5 864.5 995.5 944.799804688 904.200195312 c 128,-1,31
 1025.09960938 812.900390625 1025.09960938 812.900390625 1025.09960938 644.599609375 c 0,32,33
 1025.09960938 397.099609375 1025.09960938 397.099609375 861.75 185.900390625 c 128,-1,34
 698.400390625 -25.2998046875 698.400390625 -25.2998046875 509.200195312 -25.2998046875 c 0,35,36
 389.299804688 -25.2998046875 389.299804688 -25.2998046875 320 73.150390625 c 128,-1,37
 250.700195312 171.599609375 250.700195312 171.599609375 250.700195312 317.900390625 c 0,0,1
378.299804688 240.900390625 m 0,38,39
 378.299804688 126.5 378.299804688 126.5 417.900390625 75.900390625 c 128,-1,40
 457.5 25.2998046875 457.5 25.2998046875 509.200195312 25.2998046875 c 0,41,42
 584 25.2998046875 584 25.2998046875 648.900390625 97.349609375 c 128,-1,43
 713.799804688 169.400390625 713.799804688 169.400390625 747.900390625 238.700195312 c 0,44,45
 795.200195312 342.099609375 795.200195312 342.099609375 834.799804688 506.549804688 c 128,-1,46
 874.400390625 671 874.400390625 671 874.400390625 745.25 c 128,-1,47
 874.400390625 819.5 874.400390625 819.5 846.349609375 882.75 c 128,-1,48
 818.299804688 946 818.299804688 946 750.099609375 946 c 0,49,50
 635.700195312 946 635.700195312 946 513.599609375 779.900390625 c 0,51,52
 481.700195312 737 481.700195312 737 464.099609375 675.400390625 c 0,53,54
 378.299804688 339.900390625 378.299804688 339.900390625 378.299804688 240.900390625 c 0,38,39
EndSplineSet
Validated: 513
Substitution2: "'fwid' Full Widths lookup 32 subtable" uniFF42
Substitution2: "'smcp' Lowercase to Small Capitals lookup 27 subtable" b.sc
AlternateSubs2: "'aalt' Access All Alternates lookup 1 subtable" b.sc uniFF42
EndChar

StartChar: c
Encoding: 99 99 28
Width: 1200
VWidth: 2048
GlyphClass: 2
InSpiro: 1
Flags: W
LayerCount: 2
Fore
SplineSet
156 378 m 0,0,1
 156 645.599609375 156 645.599609375 351.599609375 865.799804688 c 128,-1,2
 547.200195312 1086 547.200195312 1086 777.599609375 1086 c 0,3,4
 892.799804688 1086 892.799804688 1086 967.200195312 1026 c 128,-1,5
 1041.59960938 966 1041.59960938 966 1041.59960938 874.799804688 c 0,6,7
 1041.59960938 808.799804688 1041.59960938 808.799804688 1004.40039062 768 c 128,-1,8
 967.200195312 727.200195312 967.200195312 727.200195312 915.599609375 727.200195312 c 0,9,10
 876 727.200195312 876 727.200195312 853.799804688 750.599609375 c 128,-1,11
 831.599609375 774 831.599609375 774 831.599609375 806.400390625 c 0,12,13
 831.599609375 811.200195312 831.599609375 811.200195312 833.400390625 819.599609375 c 128,-1,14
 835.200195312 828 835.200195312 828 841.200195312 846.599609375 c 128,-1,15
 847.200195312 865.200195312 847.200195312 865.200195312 858 879.599609375 c 128,-1,16
 868.799804688 894 868.799804688 894 894.599609375 907.799804688 c 128,-1,17
 920.400390625 921.599609375 920.400390625 921.599609375 955.200195312 926.400390625 c 1,18,19
 915.599609375 1032 915.599609375 1032 780 1032 c 0,20,21
 693.599609375 1032 693.599609375 1032 607.799804688 968.400390625 c 128,-1,22
 522 904.799804688 522 904.799804688 458.400390625 786 c 0,23,24
 411.599609375 697.200195312 411.599609375 697.200195312 370.200195312 537.599609375 c 128,-1,25
 328.799804688 378 328.799804688 378 328.799804688 279.599609375 c 0,26,27
 328.799804688 166.799804688 328.799804688 166.799804688 378 97.2001953125 c 128,-1,28
 427.200195312 27.599609375 427.200195312 27.599609375 522 27.599609375 c 0,29,30
 564 27.599609375 564 27.599609375 616.799804688 36 c 128,-1,31
 669.599609375 44.400390625 669.599609375 44.400390625 776.400390625 104.400390625 c 128,-1,32
 883.200195312 164.400390625 883.200195312 164.400390625 964.799804688 267.599609375 c 0,33,34
 986.400390625 295.200195312 986.400390625 295.200195312 997.200195312 295.200195312 c 0,35,36
 1011.59960938 295.200195312 1011.59960938 295.200195312 1023.59960938 280.200195312 c 128,-1,37
 1035.59960938 265.200195312 1035.59960938 265.200195312 1035.59960938 255.599609375 c 0,38,39
 1035.59960938 231.599609375 1035.59960938 231.599609375 975.599609375 167.400390625 c 128,-1,40
 915.599609375 103.200195312 915.599609375 103.200195312 787.799804688 37.7998046875 c 128,-1,41
 660 -27.599609375 660 -27.599609375 517.200195312 -27.599609375 c 0,42,43
 355.200195312 -27.599609375 355.200195312 -27.599609375 255.599609375 84 c 128,-1,44
 156 195.599609375 156 195.599609375 156 378 c 0,0,1
EndSplineSet
Validated: 513
Substitution2: "'fwid' Full Widths lookup 32 subtable" uniFF43
Substitution2: "'smcp' Lowercase to Small Capitals lookup 27 subtable" c.sc
AlternateSubs2: "'aalt' Access All Alternates lookup 1 subtable" c.sc uniFF43
EndChar

StartChar: d
Encoding: 100 100 29
Width: 1200
VWidth: 2048
GlyphClass: 2
Flags: W
LayerCount: 2
Fore
SplineSet
105.099609375 324.5 m 4,0,1
 105.099609375 569.799804688 105.099609375 569.799804688 269.549804688 782.650390625 c 132,-1,2
 434 995.5 434 995.5 621 995.5 c 4,3,4
 747.5 995.5 747.5 995.5 810.200195312 864.599609375 c 5,5,-1
 941.099609375 1392.59960938 l 5,6,-1
 943.299804688 1410.20019531 l 6,7,8
 947.700195312 1425.59960938 947.700195312 1425.59960938 947.700195312 1430 c 4,9,10
 947.700195312 1443.20019531 947.700195312 1443.20019531 943.299804688 1450.34960938 c 132,-1,11
 938.900390625 1457.5 938.900390625 1457.5 913.049804688 1463 c 132,-1,12
 887.200195312 1468.5 887.200195312 1468.5 835.5 1468.5 c 4,13,14
 781.599609375 1468.5 781.599609375 1468.5 781.599609375 1493.79980469 c 4,15,16
 781.599609375 1513.59960938 781.599609375 1513.59960938 789.299804688 1524.04980469 c 132,-1,17
 797 1534.5 797 1534.5 805.799804688 1536.70019531 c 132,-1,18
 814.599609375 1538.90039062 814.599609375 1538.90039062 833.299804688 1541.09960938 c 6,19,-1
 1055.5 1558.70019531 l 6,20,21
 1068.70019531 1563.09960938 1068.70019531 1563.09960938 1091.79980469 1563.09960938 c 4,22,23
 1123.70019531 1563.09960938 1123.70019531 1563.09960938 1123.70019531 1536.70019531 c 4,24,25
 1123.70019531 1527.90039062 1123.70019531 1527.90039062 1117.09960938 1507 c 6,26,-1
 794.799804688 221.099609375 l 6,27,28
 781.599609375 167.200195312 781.599609375 167.200195312 781.599609375 116.599609375 c 4,29,30
 781.599609375 25.2998046875 781.599609375 25.2998046875 838.799804688 25.2998046875 c 6,31,32
 838.799804688 25.2998046875 838.799804688 25.2998046875 839.900390625 25.2998046875 c 4,33,34
 923.5 25.2998046875 923.5 25.2998046875 990.599609375 292.599609375 c 4,35,36
 999.400390625 328.900390625 999.400390625 328.900390625 1006.54980469 336.599609375 c 132,-1,37
 1013.70019531 344.299804688 1013.70019531 344.299804688 1033.5 344.299804688 c 4,38,39
 1067.59960938 344.299804688 1067.59960938 344.299804688 1067.59960938 322.299804688 c 4,40,41
 1067.59960938 317.900390625 1067.59960938 317.900390625 1059.34960938 282.700195312 c 132,-1,42
 1051.09960938 247.5 1051.09960938 247.5 1034.59960938 193.599609375 c 132,-1,43
 1018.09960938 139.700195312 1018.09960938 139.700195312 999.400390625 101.200195312 c 4,44,45
 938.900390625 -25.2998046875 938.900390625 -25.2998046875 835.5 -25.2998046875 c 4,46,47
 770.599609375 -25.2998046875 770.599609375 -25.2998046875 718.349609375 14.2998046875 c 132,-1,48
 666.099609375 53.900390625 666.099609375 53.900390625 648.5 133.099609375 c 5,49,50
 519.799804688 -24.2001953125 519.799804688 -24.2001953125 377.900390625 -25.2998046875 c 4,51,52
 253.599609375 -25.2998046875 253.599609375 -25.2998046875 179.349609375 75.349609375 c 132,-1,53
 105.099609375 176 105.099609375 176 105.099609375 324.5 c 4,0,1
258 225.5 m 4,54,55
 258 150.700195312 258 150.700195312 285.5 88 c 132,-1,56
 313 25.2998046875 313 25.2998046875 382.299804688 25.2998046875 c 4,57,58
 465.900390625 25.2998046875 465.900390625 25.2998046875 556.099609375 117.150390625 c 132,-1,59
 646.299804688 209 646.299804688 209 661.700195312 275 c 6,60,-1
 769.5 707.299804688 l 6,61,62
 776.099609375 727.099609375 776.099609375 727.099609375 776.099609375 737 c 4,63,64
 776.099609375 809.599609375 776.099609375 809.599609375 732.099609375 881.099609375 c 4,65,66
 689.200195312 946 689.200195312 946 621.549804688 946 c 132,-1,67
 553.900390625 946 553.900390625 946 482.950195312 873.950195312 c 132,-1,68
 412 801.900390625 412 801.900390625 369.099609375 696.299804688 c 4,69,70
 335 617.099609375 335 617.099609375 296.5 460.900390625 c 132,-1,71
 258 304.700195312 258 304.700195312 258 225.5 c 4,54,55
EndSplineSet
Validated: 513
Substitution2: "'fwid' Full Widths lookup 32 subtable" uniFF44
Substitution2: "'smcp' Lowercase to Small Capitals lookup 27 subtable" d.sc
AlternateSubs2: "'aalt' Access All Alternates lookup 1 subtable" d.sc uniFF44
EndChar

StartChar: e
Encoding: 101 101 30
Width: 1200
VWidth: 2048
GlyphClass: 2
Flags: W
LayerCount: 2
Fore
SplineSet
162.599609375 403.200195312 m 4,0,1
 162.599609375 705.599609375 162.599609375 705.599609375 359.400390625 895.799804688 c 132,-1,2
 556.200195312 1086 556.200195312 1086 772.200195312 1086 c 4,3,4
 885 1086 885 1086 952.799804688 1026 c 132,-1,5
 1020.59960938 966 1020.59960938 966 1020.59960938 877.200195312 c 4,6,7
 1020.59960938 865.200195312 1020.59960938 865.200195312 1019.40039062 851.400390625 c 132,-1,8
 1018.20019531 837.599609375 1018.20019531 837.599609375 1008.59960938 803.400390625 c 132,-1,9
 999 769.200195312 999 769.200195312 980.400390625 739.799804688 c 132,-1,10
 961.799804688 710.400390625 961.799804688 710.400390625 921 677.400390625 c 132,-1,11
 880.200195312 644.400390625 880.200195312 644.400390625 826.200195312 621.599609375 c 4,12,13
 688.200195312 567.599609375 688.200195312 567.599609375 469.799804688 567.599609375 c 6,14,-1
 375 567.599609375 l 5,15,16
 333 405.599609375 333 405.599609375 333 297.599609375 c 4,17,18
 333 236.400390625 333 236.400390625 345 181.799804688 c 132,-1,19
 357 127.200195312 357 127.200195312 401.400390625 77.400390625 c 132,-1,20
 445.799804688 27.599609375 445.799804688 27.599609375 519 27.599609375 c 4,21,22
 561 27.599609375 561 27.599609375 613.799804688 36 c 132,-1,23
 666.599609375 44.400390625 666.599609375 44.400390625 773.400390625 104.400390625 c 132,-1,24
 880.200195312 164.400390625 880.200195312 164.400390625 961.799804688 267.599609375 c 4,25,26
 983.400390625 295.200195312 983.400390625 295.200195312 994.200195312 295.200195312 c 4,27,28
 1008.59960938 295.200195312 1008.59960938 295.200195312 1020.59960938 280.200195312 c 132,-1,29
 1032.59960938 265.200195312 1032.59960938 265.200195312 1032.59960938 255.599609375 c 4,30,31
 1032.59960938 231.599609375 1032.59960938 231.599609375 972.599609375 167.400390625 c 132,-1,32
 912.599609375 103.200195312 912.599609375 103.200195312 784.799804688 37.7998046875 c 132,-1,33
 657 -27.599609375 657 -27.599609375 514.200195312 -27.599609375 c 4,34,35
 347.400390625 -27.599609375 347.400390625 -27.599609375 255 99.599609375 c 132,-1,36
 162.599609375 226.799804688 162.599609375 226.799804688 162.599609375 403.200195312 c 4,0,1
389.400390625 621.599609375 m 5,37,-1
 441 621.599609375 l 6,38,39
 478.200195312 621.599609375 478.200195312 621.599609375 507.599609375 622.799804688 c 132,-1,40
 537 624 537 624 601.799804688 630 c 132,-1,41
 666.599609375 636 666.599609375 636 715.799804688 653.400390625 c 132,-1,42
 765 670.799804688 765 670.799804688 817.799804688 697.799804688 c 132,-1,43
 870.599609375 724.799804688 870.599609375 724.799804688 898.799804688 772.799804688 c 132,-1,44
 927 820.799804688 927 820.799804688 927 882 c 4,45,46
 927 945.599609375 927 945.599609375 885.599609375 988.799804688 c 132,-1,47
 844.200195312 1032 844.200195312 1032 772.200195312 1032 c 4,48,49
 755.400390625 1032 755.400390625 1032 733.200195312 1028.40039062 c 132,-1,50
 711 1024.79980469 711 1024.79980469 658.200195312 1002.59960938 c 132,-1,51
 605.400390625 980.400390625 605.400390625 980.400390625 561 941.400390625 c 132,-1,52
 516.599609375 902.400390625 516.599609375 902.400390625 468 818.400390625 c 132,-1,53
 419.400390625 734.400390625 419.400390625 734.400390625 389.400390625 621.599609375 c 5,37,-1
EndSplineSet
Validated: 513
Substitution2: "'fwid' Full Widths lookup 32 subtable" uniFF45
Substitution2: "'smcp' Lowercase to Small Capitals lookup 27 subtable" e.sc
Substitution2: "'sinf' Scientific Inferiors lookup 14 subtable" uni2091
Substitution2: "'subs' Subscript lookup 13 subtable" uni2091
AlternateSubs2: "'aalt' Access All Alternates lookup 1 subtable" uni2091 e.sc uniFF45
EndChar

StartChar: f
Encoding: 102 102 31
Width: 1200
VWidth: 2048
GlyphClass: 2
Flags: W
LayerCount: 2
Fore
SplineSet
19.830078125 -313.5 m 4,0,1
 19.830078125 -257.400390625 19.830078125 -257.400390625 55.5146484375 -223.299804688 c 132,-1,2
 91.2001953125 -189.200195312 91.2001953125 -189.200195312 139.169921875 -189.200195312 c 4,3,4
 170.760742188 -189.200195312 170.760742188 -189.200195312 195.915039062 -208.450195312 c 132,-1,5
 221.0703125 -227.700195312 221.0703125 -227.700195312 221.0703125 -261.799804688 c 4,6,7
 221.0703125 -300.299804688 221.0703125 -300.299804688 193.575195312 -331.650390625 c 132,-1,8
 166.080078125 -363 166.080078125 -363 115.76953125 -371.799804688 c 5,9,10
 147.360351562 -412.5 147.360351562 -412.5 211.709960938 -412.5 c 4,11,12
 300.629882812 -412.5 300.629882812 -412.5 347.430664062 -218.900390625 c 5,13,14
 376.680664062 -122.099609375 376.680664062 -122.099609375 415.290039062 60.5 c 6,15,-1
 589.620117188 900.900390625 l 5,16,-1
 441.030273438 900.900390625 l 6,17,18
 381.360351562 900.900390625 381.360351562 900.900390625 381.360351562 926.200195312 c 4,19,20
 381.360351562 958.099609375 381.360351562 958.099609375 395.985351562 964.700195312 c 132,-1,21
 410.610351562 971.299804688 410.610351562 971.299804688 445.709960938 971.299804688 c 6,22,-1
 604.830078125 971.299804688 l 5,23,-1
 655.139648438 1218.79980469 l 5,24,25
 737.040039062 1588.40039062 737.040039062 1588.40039062 966.360351562 1588.40039062 c 4,26,27
 1045.91992188 1588.40039062 1045.91992188 1588.40039062 1104.41992188 1548.79980469 c 132,-1,28
 1162.91992188 1509.20019531 1162.91992188 1509.20019531 1162.91992188 1439.90039062 c 4,29,30
 1162.91992188 1383.79980469 1162.91992188 1383.79980469 1126.65039062 1349.70019531 c 132,-1,31
 1090.37988281 1315.59960938 1090.37988281 1315.59960938 1042.41015625 1315.59960938 c 4,32,33
 1010.8203125 1315.59960938 1010.8203125 1315.59960938 986.25 1334.84960938 c 132,-1,34
 961.680664062 1354.09960938 961.680664062 1354.09960938 961.680664062 1388.20019531 c 4,35,36
 961.680664062 1426.70019531 961.680664062 1426.70019531 989.174804688 1458.04980469 c 132,-1,37
 1016.66992188 1489.40039062 1016.66992188 1489.40039062 1066.98046875 1498.20019531 c 5,38,39
 1030.70996094 1538.90039062 1030.70996094 1538.90039062 966.360351562 1538.90039062 c 4,40,41
 925.41015625 1538.90039062 925.41015625 1538.90039062 896.745117188 1500.40039062 c 132,-1,42
 868.080078125 1461.90039062 868.080078125 1461.90039062 858.135742188 1429.45019531 c 132,-1,43
 848.189453125 1397 848.189453125 1397 834.150390625 1335.40039062 c 4,44,45
 804.900390625 1213.29980469 804.900390625 1213.29980469 758.099609375 971.299804688 c 5,46,-1
 944.129882812 971.299804688 l 6,47,48
 967.530273438 971.299804688 967.530273438 971.299804688 978.64453125 970.200195312 c 132,-1,49
 989.760742188 969.099609375 989.760742188 969.099609375 997.364257812 961.950195312 c 132,-1,50
 1004.96972656 954.799804688 1004.96972656 954.799804688 1004.96972656 941.599609375 c 4,51,52
 1004.96972656 914.099609375 1004.96972656 914.099609375 990.344726562 907.5 c 132,-1,53
 975.719726562 900.900390625 975.719726562 900.900390625 939.450195312 900.900390625 c 6,54,-1
 742.889648438 900.900390625 l 5,55,-1
 575.580078125 92.400390625 l 6,56,57
 561.540039062 27.5 561.540039062 27.5 543.405273438 -34.650390625 c 132,-1,58
 525.26953125 -96.7998046875 525.26953125 -96.7998046875 481.98046875 -209.549804688 c 132,-1,59
 438.689453125 -322.299804688 438.689453125 -322.299804688 367.905273438 -392.150390625 c 132,-1,60
 297.120117188 -462 297.120117188 -462 211.709960938 -462 c 4,61,62
 138 -462 138 -462 78.9150390625 -422.400390625 c 132,-1,63
 19.830078125 -382.799804688 19.830078125 -382.799804688 19.830078125 -313.5 c 4,0,1
EndSplineSet
Validated: 513
Substitution2: "Single Substitution lookup 73 subtable" f.alternate
Substitution2: "'fwid' Full Widths lookup 32 subtable" uniFF46
Substitution2: "'smcp' Lowercase to Small Capitals lookup 27 subtable" f.sc
AlternateSubs2: "'aalt' Access All Alternates lookup 1 subtable" f.sc uniFF46 f.alternate
EndChar

StartChar: g
Encoding: 103 103 32
Width: 1200
VWidth: 2048
GlyphClass: 2
Flags: W
LayerCount: 2
Fore
SplineSet
65.7998046875 -361.200195312 m 4,0,1
 65.7998046875 -297.599609375 65.7998046875 -297.599609375 104.799804688 -264.599609375 c 132,-1,2
 143.799804688 -231.599609375 143.799804688 -231.599609375 185.799804688 -231.599609375 c 4,3,4
 230.200195312 -231.599609375 230.200195312 -231.599609375 251.200195312 -255.599609375 c 132,-1,5
 272.200195312 -279.599609375 272.200195312 -279.599609375 272.200195312 -309.599609375 c 4,6,7
 272.200195312 -342 272.200195312 -342 250 -375 c 132,-1,8
 227.799804688 -408 227.799804688 -408 193 -422.400390625 c 5,9,10
 259 -450 259 -450 367 -450 c 4,11,12
 502.599609375 -450 502.599609375 -450 601 -334.799804688 c 4,13,14
 650.200195312 -276 650.200195312 -276 670 -226.200195312 c 132,-1,15
 689.799804688 -176.400390625 689.799804688 -176.400390625 713.799804688 -75.599609375 c 6,16,-1
 765.400390625 130.799804688 l 5,17,18
 634.599609375 0 634.599609375 0 505 0 c 4,19,20
 369.400390625 0 369.400390625 0 287.200195312 108 c 132,-1,21
 205 216 205 216 205 375.599609375 c 4,22,23
 205 636 205 636 380.799804688 861 c 132,-1,24
 556.599609375 1086 556.599609375 1086 763 1086 c 4,25,26
 901 1086 901 1086 969.400390625 945.599609375 c 5,27,28
 976.599609375 992.400390625 976.599609375 992.400390625 1006.59960938 1014.59960938 c 132,-1,29
 1036.59960938 1036.79980469 1036.59960938 1036.79980469 1065.40039062 1036.79980469 c 4,30,31
 1131.40039062 1036.79980469 1131.40039062 1036.79980469 1131.40039062 973.200195312 c 4,32,33
 1131.40039062 958.799804688 1131.40039062 958.799804688 1121.79980469 921.599609375 c 6,34,-1
 854.200195312 -154.799804688 l 6,35,36
 817 -302.400390625 817 -302.400390625 683.200195312 -403.200195312 c 132,-1,37
 549.400390625 -504 549.400390625 -504 362.200195312 -504 c 4,38,39
 65.7998046875 -504 65.7998046875 -504 65.7998046875 -361.200195312 c 4,0,1
373 267.599609375 m 4,40,41
 373 246 373 246 376.599609375 221.400390625 c 132,-1,42
 380.200195312 196.799804688 380.200195312 196.799804688 391 153.599609375 c 132,-1,43
 401.799804688 110.400390625 401.799804688 110.400390625 432.400390625 82.2001953125 c 132,-1,44
 463 54 463 54 509.799804688 54 c 4,45,46
 601 54 601 54 699.400390625 153.599609375 c 132,-1,47
 797.799804688 253.200195312 797.799804688 253.200195312 814.599609375 324 c 6,48,-1
 925 771.599609375 l 5,49,-1
 932.200195312 806.400390625 l 6,50,51
 932.200195312 820.799804688 932.200195312 820.799804688 926.200195312 851.400390625 c 132,-1,52
 920.200195312 882 920.200195312 882 904.599609375 925.200195312 c 132,-1,53
 889 968.400390625 889 968.400390625 851.799804688 1000.20019531 c 132,-1,54
 814.599609375 1032 814.599609375 1032 763 1032 c 4,55,56
 694.599609375 1032 694.599609375 1032 619.599609375 961.799804688 c 132,-1,57
 544.599609375 891.599609375 544.599609375 891.599609375 497.799804688 788.400390625 c 4,58,59
 458.200195312 697.200195312 458.200195312 697.200195312 415.599609375 525.599609375 c 132,-1,60
 373 354 373 354 373 267.599609375 c 4,40,41
EndSplineSet
Validated: 513
Substitution2: "'ss01' Style Set 1 lookup 41 subtable" g.alt
Substitution2: "'fwid' Full Widths lookup 32 subtable" uniFF47
Substitution2: "'smcp' Lowercase to Small Capitals lookup 27 subtable" g.sc
AlternateSubs2: "'aalt' Access All Alternates lookup 1 subtable" g.sc uniFF47 g.alt
EndChar

StartChar: h
Encoding: 104 104 33
Width: 1200
VWidth: 2048
GlyphClass: 2
Flags: W
LayerCount: 2
Fore
SplineSet
80.400390625 34.099609375 m 4,0,1
 80.400390625 53.900390625 80.400390625 53.900390625 84.7998046875 62.7001953125 c 6,2,-1
 418.099609375 1392.59960938 l 5,3,4
 418.099609375 1392.59960938 418.099609375 1392.59960938 420.299804688 1410.20019531 c 4,5,6
 424.700195312 1425.59960938 424.700195312 1425.59960938 424.700195312 1430 c 4,7,8
 424.700195312 1443.20019531 424.700195312 1443.20019531 420.299804688 1450.34960938 c 132,-1,9
 415.900390625 1457.5 415.900390625 1457.5 390.049804688 1463 c 132,-1,10
 364.200195312 1468.5 364.200195312 1468.5 312.5 1468.5 c 4,11,12
 258.599609375 1468.5 258.599609375 1468.5 257.5 1493.79980469 c 4,13,14
 257.5 1513.59960938 257.5 1513.59960938 265.75 1524.04980469 c 132,-1,15
 274 1534.5 274 1534.5 282.799804688 1536.70019531 c 132,-1,16
 291.599609375 1538.90039062 291.599609375 1538.90039062 309.200195312 1541.09960938 c 6,17,-1
 532.5 1558.70019531 l 6,18,19
 545.700195312 1563.09960938 545.700195312 1563.09960938 568.799804688 1563.09960938 c 4,20,21
 600.700195312 1563.09960938 600.700195312 1563.09960938 600.700195312 1536.70019531 c 4,22,23
 600.700195312 1527.90039062 600.700195312 1527.90039062 594.099609375 1507 c 6,24,-1
 429.099609375 849.200195312 l 5,25,26
 478.599609375 896.5 478.599609375 896.5 506.650390625 920.150390625 c 132,-1,27
 534.700195312 943.799804688 534.700195312 943.799804688 596.849609375 969.650390625 c 132,-1,28
 659 995.5 659 995.5 728.299804688 995.5 c 4,29,30
 827.299804688 995.5 827.299804688 995.5 894.950195312 941.599609375 c 132,-1,31
 962.599609375 887.700195312 962.599609375 887.700195312 962.599609375 761.200195312 c 4,32,33
 962.599609375 623.700195312 962.599609375 623.700195312 825.099609375 259.599609375 c 5,34,35
 784.400390625 137.5 784.400390625 137.5 785.5 90.2001953125 c 4,36,37
 785.5 25.2998046875 785.5 25.2998046875 835 25.2998046875 c 4,38,39
 961.5 25.2998046875 961.5 25.2998046875 1044 306.900390625 c 4,40,41
 1050.59960938 334.400390625 1050.59960938 334.400390625 1056.65039062 339.349609375 c 132,-1,42
 1062.70019531 344.299804688 1062.70019531 344.299804688 1082.5 344.299804688 c 4,43,44
 1116.59960938 344.299804688 1116.59960938 344.299804688 1116.59960938 322.299804688 c 4,45,46
 1116.59960938 315.700195312 1116.59960938 315.700195312 1107.25 281.599609375 c 132,-1,47
 1097.90039062 247.5 1097.90039062 247.5 1075.34960938 194.700195312 c 132,-1,48
 1052.79980469 141.900390625 1052.79980469 141.900390625 1021.45019531 93.5 c 132,-1,49
 990.099609375 45.099609375 990.099609375 45.099609375 939.5 9.900390625 c 132,-1,50
 888.900390625 -25.2998046875 888.900390625 -25.2998046875 830.599609375 -25.2998046875 c 4,51,52
 751.400390625 -25.2998046875 751.400390625 -25.2998046875 705.200195312 26.9501953125 c 132,-1,53
 659 79.2001953125 659 79.2001953125 659 155.099609375 c 4,54,55
 659 204.599609375 659 204.599609375 695.299804688 299.200195312 c 4,56,57
 826.200195312 673.200195312 826.200195312 673.200195312 825.099609375 797.5 c 4,58,59
 825.099609375 946 825.099609375 946 721.700195312 946 c 4,60,61
 554.5 946 554.5 946 422.5 732.599609375 c 4,62,63
 379.599609375 655.599609375 379.599609375 655.599609375 359.799804688 574.200195312 c 4,64,65
 353.200195312 548.900390625 353.200195312 548.900390625 341.650390625 501.049804688 c 132,-1,66
 330.099609375 453.200195312 330.099609375 453.200195312 323.5 427.900390625 c 4,67,68
 319.099609375 408.099609375 319.099609375 408.099609375 295.450195312 312.400390625 c 132,-1,69
 271.799804688 216.700195312 271.799804688 216.700195312 251.450195312 135.299804688 c 132,-1,70
 231.099609375 53.900390625 231.099609375 53.900390625 226.700195312 38.5 c 4,71,72
 220.099609375 16.5 220.099609375 16.5 197.549804688 -4.400390625 c 132,-1,73
 175 -25.2998046875 175 -25.2998046875 143.099609375 -25.2998046875 c 4,74,75
 113.400390625 -25.2998046875 113.400390625 -25.2998046875 96.900390625 -6.599609375 c 132,-1,76
 80.400390625 12.099609375 80.400390625 12.099609375 80.400390625 34.099609375 c 4,0,1
EndSplineSet
Validated: 545
Substitution2: "'fwid' Full Widths lookup 32 subtable" uniFF48
Substitution2: "'smcp' Lowercase to Small Capitals lookup 27 subtable" h.sc
Substitution2: "'sinf' Scientific Inferiors lookup 14 subtable" uni2095
Substitution2: "'subs' Subscript lookup 13 subtable" uni2095
AlternateSubs2: "'aalt' Access All Alternates lookup 1 subtable" uni2095 h.sc uniFF48
EndChar

StartChar: i
Encoding: 105 105 34
Width: 1200
VWidth: 2048
GlyphClass: 2
Flags: W
LayerCount: 2
Fore
SplineSet
322 649 m 4,0,1
 322 655.599609375 322 655.599609375 330.799804688 689.150390625 c 132,-1,2
 339.599609375 722.700195312 339.599609375 722.700195312 362.150390625 776.049804688 c 132,-1,3
 384.700195312 829.400390625 384.700195312 829.400390625 416.599609375 877.799804688 c 132,-1,4
 448.5 926.200195312 448.5 926.200195312 500.200195312 960.849609375 c 132,-1,5
 551.900390625 995.5 551.900390625 995.5 610.200195312 995.5 c 4,6,7
 679.5 995.5 679.5 995.5 729.549804688 949.299804688 c 132,-1,8
 779.599609375 903.099609375 779.599609375 903.099609375 779.599609375 815.099609375 c 4,9,10
 779.599609375 767.799804688 779.599609375 767.799804688 752.099609375 689.700195312 c 6,11,-1
 608 303.599609375 l 6,12,13
 549.700195312 136.400390625 549.700195312 136.400390625 549.700195312 88 c 4,14,15
 549.700195312 25.2998046875 549.700195312 25.2998046875 599.200195312 25.2998046875 c 4,16,17
 732.299804688 25.2998046875 732.299804688 25.2998046875 808.200195312 306.900390625 c 4,18,19
 814.799804688 334.400390625 814.799804688 334.400390625 820.849609375 339.349609375 c 132,-1,20
 826.900390625 344.299804688 826.900390625 344.299804688 846.700195312 344.299804688 c 4,21,22
 880.799804688 344.299804688 880.799804688 344.299804688 880.799804688 322.299804688 c 4,23,24
 880.799804688 315.700195312 880.799804688 315.700195312 872 282.700195312 c 132,-1,25
 863.200195312 249.700195312 863.200195312 249.700195312 840.650390625 196.900390625 c 132,-1,26
 818.099609375 144.099609375 818.099609375 144.099609375 787.299804688 94.599609375 c 132,-1,27
 756.5 45.099609375 756.5 45.099609375 704.799804688 9.900390625 c 132,-1,28
 653.099609375 -25.2998046875 653.099609375 -25.2998046875 594.799804688 -25.2998046875 c 4,29,30
 511.200195312 -25.2998046875 511.200195312 -25.2998046875 467.200195312 29.150390625 c 132,-1,31
 423.200195312 83.599609375 423.200195312 83.599609375 423.200195312 155.099609375 c 4,32,33
 423.200195312 200.200195312 423.200195312 200.200195312 463.900390625 311.299804688 c 4,34,35
 517.799804688 459.799804688 517.799804688 459.799804688 547.5 533.5 c 6,36,-1
 614.599609375 720.5 l 6,37,38
 655.299804688 830.5 655.299804688 830.5 655.299804688 883.299804688 c 4,39,40
 655.299804688 946 655.299804688 946 605.799804688 946 c 4,41,42
 472.700195312 946 472.700195312 946 396.799804688 662.200195312 c 4,43,44
 390.200195312 636.900390625 390.200195312 636.900390625 383.049804688 631.400390625 c 132,-1,45
 375.900390625 625.900390625 375.900390625 625.900390625 356.099609375 625.900390625 c 4,46,47
 322 627 322 627 322 649 c 4,0,1
685 1369.5 m 4,48,49
 685 1414.59960938 685 1414.59960938 719.650390625 1445.95019531 c 132,-1,50
 754.299804688 1477.29980469 754.299804688 1477.29980469 792.799804688 1477.29980469 c 4,51,52
 822.5 1477.29980469 822.5 1477.29980469 846.150390625 1459.70019531 c 132,-1,53
 869.799804688 1442.09960938 869.799804688 1442.09960938 869.799804688 1403.59960938 c 4,54,55
 869.799804688 1358.5 869.799804688 1358.5 834.599609375 1327.15039062 c 132,-1,56
 799.400390625 1295.79980469 799.400390625 1295.79980469 760.900390625 1295.79980469 c 4,57,58
 731.200195312 1295.79980469 731.200195312 1295.79980469 708.099609375 1313.40039062 c 132,-1,59
 685 1331 685 1331 685 1369.5 c 4,48,49
EndSplineSet
Validated: 513
Substitution2: "Single Substitution lookup 61 subtable" dotlessi
Substitution2: "'fwid' Full Widths lookup 32 subtable" uniFF49
Substitution2: "'smcp' Lowercase to Small Capitals lookup 27 subtable" i.sc
Substitution2: "'locl' Localized Forms in Latin lookup 7 per glyph data 4" i.loclTRK
Substitution2: "'locl' Localized Forms in Latin lookup 7 per glyph data 3" i.loclTRK
Substitution2: "'locl' Localized Forms in Latin lookup 7 per glyph data 2" i.loclTRK
Substitution2: "'locl' Localized Forms in Latin lookup 7 per glyph data 1" i.loclTRK
Substitution2: "'locl' Localized Forms in Latin lookup 7 per glyph data 0" i.loclTRK
AlternateSubs2: "'aalt' Access All Alternates lookup 1 subtable" i.loclTRK i.sc uniFF49
EndChar

StartChar: j
Encoding: 106 106 35
Width: 1200
VWidth: 2048
GlyphClass: 2
Flags: W
LayerCount: 2
Fore
SplineSet
125.799804688 -331.099609375 m 4,0,1
 125.799804688 -272.799804688 125.799804688 -272.799804688 162.099609375 -242.549804688 c 132,-1,2
 198.400390625 -212.299804688 198.400390625 -212.299804688 236.900390625 -212.299804688 c 4,3,4
 277.599609375 -212.299804688 277.599609375 -212.299804688 296.299804688 -234.299804688 c 132,-1,5
 315 -256.299804688 315 -256.299804688 315 -283.799804688 c 4,6,7
 315 -294.799804688 315 -294.799804688 310.599609375 -311.849609375 c 132,-1,8
 306.200195312 -328.900390625 306.200195312 -328.900390625 285.849609375 -354.75 c 132,-1,9
 265.5 -380.599609375 265.5 -380.599609375 230.299804688 -391.599609375 c 5,10,11
 271 -411.400390625 271 -411.400390625 306.200195312 -412.5 c 4,12,13
 400.799804688 -412.5 400.799804688 -412.5 468.450195312 -320.099609375 c 132,-1,14
 536.099609375 -227.700195312 536.099609375 -227.700195312 563.599609375 -116.599609375 c 6,15,-1
 777 741.400390625 l 6,16,17
 792.400390625 804.099609375 792.400390625 804.099609375 793.5 855.799804688 c 4,18,19
 793.5 946 793.5 946 731.900390625 946 c 4,20,21
 581.200195312 946 581.200195312 946 469 664.400390625 c 4,22,23
 462.400390625 644.599609375 462.400390625 644.599609375 457.450195312 637.450195312 c 132,-1,24
 452.5 630.299804688 452.5 630.299804688 447 628.099609375 c 132,-1,25
 441.5 625.900390625 441.5 625.900390625 426.099609375 625.900390625 c 4,26,27
 392 625.900390625 392 625.900390625 392 649 c 4,28,29
 392 655.599609375 392 655.599609375 405.75 690.25 c 132,-1,30
 419.5 724.900390625 419.5 724.900390625 448.650390625 777.150390625 c 132,-1,31
 477.799804688 829.400390625 477.799804688 829.400390625 516.849609375 877.799804688 c 132,-1,32
 555.900390625 926.200195312 555.900390625 926.200195312 613.650390625 960.849609375 c 132,-1,33
 671.400390625 995.5 671.400390625 995.5 734.099609375 995.5 c 4,34,35
 824.299804688 995.5 824.299804688 995.5 876 936.099609375 c 132,-1,36
 927.700195312 876.700195312 927.700195312 876.700195312 927.700195312 793.099609375 c 4,37,38
 927.700195312 752.400390625 927.700195312 752.400390625 916.700195312 718.299804688 c 6,39,-1
 707.700195312 -124.299804688 l 6,40,41
 671.400390625 -266.200195312 671.400390625 -266.200195312 555.349609375 -364.099609375 c 132,-1,42
 439.299804688 -462 439.299804688 -462 308.400390625 -462 c 4,43,44
 231.400390625 -462 231.400390625 -462 178.599609375 -426.799804688 c 132,-1,45
 125.799804688 -391.599609375 125.799804688 -391.599609375 125.799804688 -331.099609375 c 4,0,1
822.099609375 1369.5 m 4,46,47
 822.099609375 1410.20019531 822.099609375 1410.20019531 856.200195312 1443.75 c 132,-1,48
 890.299804688 1477.29980469 890.299804688 1477.29980469 933.200195312 1477.29980469 c 4,49,50
 960.700195312 1477.29980469 960.700195312 1477.29980469 984.900390625 1460.79980469 c 132,-1,51
 1009.09960938 1444.29980469 1009.09960938 1444.29980469 1009.09960938 1401.40039062 c 4,52,53
 1009.09960938 1360.70019531 1009.09960938 1360.70019531 974.450195312 1328.25 c 132,-1,54
 939.799804688 1295.79980469 939.799804688 1295.79980469 899.099609375 1295.79980469 c 4,55,56
 862.799804688 1295.79980469 862.799804688 1295.79980469 842.450195312 1318.90039062 c 132,-1,57
 822.099609375 1342 822.099609375 1342 822.099609375 1369.5 c 4,46,47
EndSplineSet
Validated: 513
Substitution2: "Single Substitution lookup 61 subtable" uni0237
Substitution2: "'ss03' Style Set 3 lookup 43 subtable" j.alt
Substitution2: "'fwid' Full Widths lookup 32 subtable" uniFF4A
Substitution2: "'smcp' Lowercase to Small Capitals lookup 27 subtable" j.sc
AlternateSubs2: "'aalt' Access All Alternates lookup 1 subtable" j.sc uniFF4A j.alt
EndChar

StartChar: k
Encoding: 107 107 36
Width: 1200
VWidth: 2048
GlyphClass: 2
Flags: W
LayerCount: 2
Fore
SplineSet
123.400390625 34.099609375 m 4,0,1
 123.400390625 53.900390625 123.400390625 53.900390625 127.799804688 62.7001953125 c 6,2,-1
 461.099609375 1392.59960938 l 5,3,4
 461.099609375 1392.59960938 461.099609375 1392.59960938 463.299804688 1410.20019531 c 4,5,6
 467.700195312 1425.59960938 467.700195312 1425.59960938 467.700195312 1430 c 4,7,8
 467.700195312 1443.20019531 467.700195312 1443.20019531 463.299804688 1450.34960938 c 132,-1,9
 458.900390625 1457.5 458.900390625 1457.5 433.049804688 1463 c 132,-1,10
 407.200195312 1468.5 407.200195312 1468.5 355.5 1468.5 c 4,11,12
 301.599609375 1468.5 301.599609375 1468.5 300.5 1493.79980469 c 4,13,14
 300.5 1513.59960938 300.5 1513.59960938 308.75 1524.04980469 c 132,-1,15
 317 1534.5 317 1534.5 325.799804688 1536.70019531 c 132,-1,16
 334.599609375 1538.90039062 334.599609375 1538.90039062 352.200195312 1541.09960938 c 6,17,-1
 575.5 1558.70019531 l 6,18,19
 588.700195312 1563.09960938 588.700195312 1563.09960938 611.799804688 1563.09960938 c 4,20,21
 643.700195312 1563.09960938 643.700195312 1563.09960938 643.700195312 1536.70019531 c 4,22,23
 643.700195312 1527.90039062 643.700195312 1527.90039062 637.099609375 1507 c 6,24,-1
 407.200195312 588.5 l 5,25,26
 465.5 616 465.5 616 508.400390625 656.150390625 c 132,-1,27
 551.299804688 696.299804688 551.299804688 696.299804688 650.299804688 810.700195312 c 4,28,29
 807.599609375 995.5 807.599609375 995.5 942.900390625 995.5 c 4,30,31
 1012.20019531 995.5 1012.20019531 995.5 1048.5 953.700195312 c 132,-1,32
 1084.79980469 911.900390625 1084.79980469 911.900390625 1084.79980469 860.200195312 c 4,33,34
 1084.79980469 801.900390625 1084.79980469 801.900390625 1050.15039062 768.349609375 c 132,-1,35
 1015.5 734.799804688 1015.5 734.799804688 972.599609375 734.799804688 c 4,36,37
 931.900390625 734.799804688 931.900390625 734.799804688 912.650390625 757.349609375 c 132,-1,38
 893.400390625 779.900390625 893.400390625 779.900390625 893.400390625 806.299804688 c 4,39,40
 893.400390625 821.700195312 893.400390625 821.700195312 898.900390625 840.950195312 c 132,-1,41
 904.400390625 860.200195312 904.400390625 860.200195312 930.25 886.049804688 c 132,-1,42
 956.099609375 911.900390625 956.099609375 911.900390625 999 919.599609375 c 5,43,44
 971.5 947.099609375 971.5 947.099609375 938.5 946 c 4,45,46
 884.599609375 946 884.599609375 946 826.849609375 909.150390625 c 132,-1,47
 769.099609375 872.299804688 769.099609375 872.299804688 734.450195312 836 c 132,-1,48
 699.799804688 799.700195312 699.799804688 799.700195312 620.599609375 709.5 c 4,49,50
 526 601.700195312 526 601.700195312 461.099609375 561 c 5,51,52
 760.299804688 518.099609375 760.299804688 518.099609375 760.299804688 326.700195312 c 4,53,54
 760.299804688 294.799804688 760.299804688 294.799804688 749.299804688 247.5 c 4,55,56
 731.700195312 157.299804688 731.700195312 157.299804688 731.700195312 122.099609375 c 4,57,58
 731.700195312 25.2998046875 731.700195312 25.2998046875 796.599609375 25.2998046875 c 4,59,60
 832.900390625 25.2998046875 832.900390625 25.2998046875 860.950195312 48.9501953125 c 132,-1,61
 889 72.599609375 889 72.599609375 909.349609375 118.799804688 c 132,-1,62
 929.700195312 165 929.700195312 165 941.799804688 200.75 c 132,-1,63
 953.900390625 236.5 953.900390625 236.5 968.200195312 292.599609375 c 4,64,65
 977 328.900390625 977 328.900390625 983.599609375 336.599609375 c 132,-1,66
 990.200195312 344.299804688 990.200195312 344.299804688 1011.09960938 344.299804688 c 4,67,68
 1045.20019531 344.299804688 1045.20019531 344.299804688 1044.09960938 322.299804688 c 4,69,70
 1044.09960938 315.700195312 1044.09960938 315.700195312 1035.29980469 279.400390625 c 132,-1,71
 1026.5 243.099609375 1026.5 243.099609375 1006.15039062 187 c 132,-1,72
 985.799804688 130.900390625 985.799804688 130.900390625 963.799804688 92.400390625 c 4,73,74
 896.700195312 -24.2001953125 896.700195312 -24.2001953125 790 -25.2998046875 c 4,75,76
 715.200195312 -25.2998046875 715.200195312 -25.2998046875 658 29.150390625 c 132,-1,77
 600.799804688 83.599609375 600.799804688 83.599609375 600.799804688 193.599609375 c 4,78,79
 600.799804688 232.099609375 600.799804688 232.099609375 609.599609375 270.599609375 c 4,80,81
 616.200195312 302.5 616.200195312 302.5 616.200195312 326.700195312 c 4,82,83
 616.200195312 387.200195312 616.200195312 387.200195312 574.400390625 430.099609375 c 132,-1,84
 532.599609375 473 532.599609375 473 486.400390625 491.150390625 c 132,-1,85
 440.200195312 509.299804688 440.200195312 509.299804688 388.5 515.900390625 c 5,86,-1
 274.099609375 58.2998046875 l 6,87,88
 256.5 -25.2998046875 256.5 -25.2998046875 186.099609375 -25.2998046875 c 4,89,90
 156.400390625 -25.2998046875 156.400390625 -25.2998046875 139.900390625 -6.599609375 c 132,-1,91
 123.400390625 12.099609375 123.400390625 12.099609375 123.400390625 34.099609375 c 4,0,1
EndSplineSet
Validated: 545
Substitution2: "'fwid' Full Widths lookup 32 subtable" uniFF4B
Substitution2: "'smcp' Lowercase to Small Capitals lookup 27 subtable" k.sc
Substitution2: "'sinf' Scientific Inferiors lookup 14 subtable" uni2096
Substitution2: "'subs' Subscript lookup 13 subtable" uni2096
AlternateSubs2: "'aalt' Access All Alternates lookup 1 subtable" uni2096 k.sc uniFF4B
EndChar

StartChar: l
Encoding: 108 108 37
Width: 1200
VWidth: 2048
GlyphClass: 2
Flags: W
LayerCount: 2
Fore
SplineSet
363.299804688 178.200195312 m 4,0,1
 363.299804688 212.299804688 363.299804688 212.299804688 376.5 266.200195312 c 6,2,-1
 658.099609375 1392.59960938 l 5,3,4
 658.099609375 1392.59960938 658.099609375 1392.59960938 660.299804688 1410.20019531 c 4,5,6
 664.700195312 1425.59960938 664.700195312 1425.59960938 664.700195312 1430 c 4,7,8
 664.700195312 1443.20019531 664.700195312 1443.20019531 660.299804688 1450.34960938 c 132,-1,9
 655.900390625 1457.5 655.900390625 1457.5 630.049804688 1463 c 132,-1,10
 604.200195312 1468.5 604.200195312 1468.5 552.5 1468.5 c 4,11,12
 498.599609375 1468.5 498.599609375 1468.5 497.5 1493.79980469 c 4,13,14
 497.5 1513.59960938 497.5 1513.59960938 505.75 1524.04980469 c 132,-1,15
 514 1534.5 514 1534.5 522.799804688 1536.70019531 c 132,-1,16
 531.599609375 1538.90039062 531.599609375 1538.90039062 549.200195312 1541.09960938 c 6,17,-1
 772.5 1558.70019531 l 6,18,19
 785.700195312 1563.09960938 785.700195312 1563.09960938 808.799804688 1563.09960938 c 4,20,21
 840.700195312 1563.09960938 840.700195312 1563.09960938 840.700195312 1536.70019531 c 4,22,23
 840.700195312 1527.90039062 840.700195312 1527.90039062 834.099609375 1507 c 6,24,-1
 511.799804688 221.099609375 l 6,25,26
 498.599609375 167.200195312 498.599609375 167.200195312 497.5 116.599609375 c 4,27,28
 497.5 25.2998046875 497.5 25.2998046875 555.799804688 25.2998046875 c 6,29,30
 555.799804688 25.2998046875 555.799804688 25.2998046875 556.900390625 25.2998046875 c 4,31,32
 640.5 25.2998046875 640.5 25.2998046875 701 277.200195312 c 5,33,-1
 716.400390625 333.299804688 l 6,34,35
 723 344.299804688 723 344.299804688 748.299804688 344.299804688 c 4,36,37
 782.400390625 344.299804688 782.400390625 344.299804688 781.299804688 322.299804688 c 4,38,39
 781.299804688 317.900390625 781.299804688 317.900390625 772.5 279.400390625 c 132,-1,40
 763.700195312 240.900390625 763.700195312 240.900390625 746.650390625 184.799804688 c 132,-1,41
 729.599609375 128.700195312 729.599609375 128.700195312 712 92.400390625 c 4,42,43
 651.5 -24.2001953125 651.5 -24.2001953125 552.5 -25.2998046875 c 4,44,45
 471.099609375 -25.2998046875 471.099609375 -25.2998046875 417.200195312 32.4501953125 c 132,-1,46
 363.299804688 90.2001953125 363.299804688 90.2001953125 363.299804688 178.200195312 c 4,0,1
EndSplineSet
Validated: 513
Substitution2: "'fwid' Full Widths lookup 32 subtable" uniFF4C
Substitution2: "'smcp' Lowercase to Small Capitals lookup 27 subtable" l.sc
Substitution2: "'sinf' Scientific Inferiors lookup 14 subtable" uni2097
Substitution2: "'subs' Subscript lookup 13 subtable" uni2097
AlternateSubs2: "'aalt' Access All Alternates lookup 1 subtable" uni2097 l.sc uniFF4C
EndChar

StartChar: m
Encoding: 109 109 38
Width: 1200
VWidth: 2048
GlyphClass: 2
Flags: W
LayerCount: 2
Fore
SplineSet
-11.048828125 709.736328125 m 4,0,1
 -11.0478515625 714.77734375 -11.0478515625 714.77734375 -4.888671875 752.3359375 c 132,-1,2
 1.1640625 789.796875 1.1640625 789.796875 13.9765625 851.936523438 c 4,3,4
 34.857421875 946.32421875 34.857421875 946.32421875 39.7724609375 958.137695312 c 4,5,6
 70.8193359375 1029.34082031 70.8193359375 1029.34082031 94.21875 1052.63085938 c 4,7,8
 128.739257812 1087.16113281 128.739257812 1087.16113281 162.809570312 1086 c 4,9,10
 215.516601562 1084.04492188 215.516601562 1084.04492188 251.359375 1033.20019531 c 4,11,12
 287.536132812 979.958007812 287.536132812 979.958007812 295.25 891.599609375 c 5,13,14
 386.521484375 1086.38574219 386.521484375 1086.38574219 520.859375 1086 c 4,15,16
 584.462890625 1086.0078125 584.462890625 1086.0078125 631.354492188 1035.59960938 c 132,-1,17
 678.37890625 985.16796875 678.37890625 985.16796875 686.409179688 870 c 5,18,19
 781.418945312 1085.80371094 781.418945312 1085.80371094 922.799804688 1086 c 4,20,21
 990.71484375 1086.46972656 990.71484375 1086.46972656 1039.45507812 1028.40039062 c 4,22,23
 1117.3671875 935.178710938 1117.3671875 935.178710938 1117.89355469 825.190429688 c 4,24,25
 1119.25878906 663.7265625 1119.25878906 663.7265625 1028.82617188 294.825195312 c 5,26,27
 1028.19335938 262.443359375 1028.19335938 262.443359375 990.487304688 111.76171875 c 4,28,29
 973.365234375 43.6396484375 973.365234375 43.6396484375 1025.15332031 43.6474609375 c 4,30,31
 1101.27148438 43.42578125 1101.27148438 43.42578125 1145.33007812 334.799804688 c 4,32,33
 1149.82910156 364.877929688 1149.82910156 364.877929688 1153.82519531 370.265625 c 132,-1,34
 1157.82128906 375.653320312 1157.82128906 375.653320312 1172.28027344 375.599609375 c 4,35,36
 1206.30761719 374.211914062 1206.30761719 374.211914062 1205.22753906 351.063476562 c 4,37,38
 1204.86425781 342.98828125 1204.86425781 342.98828125 1199.06835938 305.463867188 c 4,39,40
 1192.65136719 267.969726562 1192.65136719 267.969726562 1177.12402344 210.6640625 c 4,41,42
 1161.15429688 152.6875 1161.15429688 152.6875 1139.39355469 100.263671875 c 4,43,44
 1127.50976562 71.29296875 1127.50976562 71.29296875 1072.1796875 10.7998046875 c 4,45,46
 1036.98046875 -27.4873046875 1036.98046875 -27.4873046875 995.1796875 -27.599609375 c 4,47,48
 913.013671875 -27.9677734375 913.013671875 -27.9677734375 878.240234375 34.6103515625 c 4,49,50
 845.278320312 94.6572265625 845.278320312 94.6572265625 846.28515625 174.409179688 c 4,51,52
 846.651367188 223.374023438 846.651367188 223.374023438 870.92578125 331.609375 c 4,53,54
 981.657226562 822.025390625 981.657226562 822.025390625 982.250976562 871.736328125 c 4,55,56
 982.1484375 1032.13183594 982.1484375 1032.13183594 919.720703125 1032 c 4,57,58
 829.739257812 1031.58984375 829.739257812 1031.58984375 726.734375 761.58984375 c 4,59,60
 705.006835938 704.276367188 705.006835938 704.276367188 687.463867188 585.19140625 c 4,61,62
 683.24609375 557.830078125 683.24609375 557.830078125 674.759765625 504.791015625 c 4,63,64
 673.1171875 494.62890625 673.1171875 494.62890625 662.0546875 424.389648438 c 6,65,-1
 598.915039062 31.990234375 l 5,66,67
 584.211914062 -26.85546875 584.211914062 -26.85546875 513.158203125 -27.599609375 c 4,68,69
 473.395507812 -27.6240234375 473.395507812 -27.6240234375 459.96875 -4.3271484375 c 4,70,71
 451.724609375 10.7216796875 451.724609375 10.7216796875 448.803710938 40.6728515625 c 4,72,73
 445.749023438 74.7314453125 445.749023438 74.7314453125 443.575195312 76.009765625 c 6,74,-1
 546.755859375 715.610351562 l 6,75,76
 560.578125 800.823242188 560.578125 800.823242188 560.614257812 875.208984375 c 4,77,78
 560.77734375 1032.3046875 560.77734375 1032.3046875 517.780273438 1032 c 4,79,80
 407.3828125 1031.93652344 407.3828125 1031.93652344 305.098632812 765.063476562 c 4,81,82
 287.051757812 718.063476562 287.051757812 718.063476562 265.827148438 588.663085938 c 4,83,84
 253.88671875 512.702148438 253.88671875 512.702148438 253.123046875 508.263671875 c 4,85,86
 243.815429688 455.583007812 243.815429688 455.583007812 240.41796875 427.86328125 c 6,87,-1
 177.278320312 35.4638671875 l 5,88,89
 161.85546875 -26.5087890625 161.85546875 -26.5087890625 110.450195312 -27.599609375 c 4,90,91
 51.6767578125 -29.4208984375 51.6767578125 -29.4208984375 47.796875 -2.58984375 c 4,92,93
 43.791015625 23.7568359375 43.791015625 23.7568359375 37.015625 42.41015625 c 4,94,95
 36.4658203125 43.8369140625 36.4658203125 43.8369140625 41.634765625 76.0087890625 c 6,96,-1
 160.215820312 814.009765625 l 6,97,98
 171.107421875 885.102539062 171.107421875 885.102539062 170.99609375 938.80859375 c 4,99,100
 170.802734375 1032.01855469 170.802734375 1032.01855469 159.729492188 1032 c 4,101,102
 135.29296875 1032.1875 135.29296875 1032.1875 110.288085938 956.463867188 c 4,103,104
 85.5537109375 882.551757812 85.5537109375 882.551757812 62.548828125 737.463867188 c 4,105,106
 56.03515625 697.872070312 56.03515625 697.872070312 51.7685546875 689.463867188 c 4,107,108
 47.0009765625 681.1875 47.0009765625 681.1875 32.5185546875 681.063476562 c 4,109,110
 -11.5068359375 683.379882812 -11.5068359375 683.379882812 -11.048828125 709.736328125 c 4,0,1
EndSplineSet
Validated: 545
Substitution2: "'fwid' Full Widths lookup 32 subtable" uniFF4D
Substitution2: "'smcp' Lowercase to Small Capitals lookup 27 subtable" m.sc
Substitution2: "'sinf' Scientific Inferiors lookup 14 subtable" uni2098
Substitution2: "'subs' Subscript lookup 13 subtable" uni2098
AlternateSubs2: "'aalt' Access All Alternates lookup 1 subtable" uni2098 m.sc uniFF4D
EndChar

StartChar: n
Encoding: 110 110 39
Width: 1200
VWidth: 2048
GlyphClass: 2
Flags: W
LayerCount: 2
Fore
SplineSet
36 708 m 4,0,1
 36 712.799804688 36 712.799804688 44.7998046875 750.599609375 c 132,-1,2
 53.599609375 788.400390625 53.599609375 788.400390625 71.75 850.200195312 c 132,-1,3
 89.900390625 912 89.900390625 912 108.599609375 956.400390625 c 4,4,5
 170.200195312 1086 170.200195312 1086 268.099609375 1086 c 4,6,7
 269.200195312 1086 269.200195312 1086 270.299804688 1086 c 4,8,9
 345.099609375 1086 345.099609375 1086 396.799804688 1033.20019531 c 132,-1,10
 448.5 980.400390625 448.5 980.400390625 459.5 891.599609375 c 5,11,12
 481.5 928.799804688 481.5 928.799804688 514.5 966 c 132,-1,13
 547.5 1003.20019531 547.5 1003.20019531 622.849609375 1044.59960938 c 132,-1,14
 698.200195312 1086 698.200195312 1086 781.799804688 1086 c 4,15,16
 880.799804688 1086 880.799804688 1086 948.450195312 1027.20019531 c 132,-1,17
 1016.09960938 968.400390625 1016.09960938 968.400390625 1016.09960938 830.400390625 c 4,18,19
 1016.09960938 680.400390625 1016.09960938 680.400390625 878.599609375 283.200195312 c 5,20,21
 837.900390625 150 837.900390625 150 837.900390625 98.400390625 c 4,22,23
 837.900390625 27.599609375 837.900390625 27.599609375 887.400390625 27.599609375 c 4,24,25
 1013.90039062 27.599609375 1013.90039062 27.599609375 1097.5 334.799804688 c 4,26,27
 1104.09960938 364.799804688 1104.09960938 364.799804688 1109.59960938 370.200195312 c 132,-1,28
 1115.09960938 375.599609375 1115.09960938 375.599609375 1134.90039062 375.599609375 c 4,29,30
 1169 375.599609375 1169 375.599609375 1169 351.599609375 c 4,31,32
 1169 344.400390625 1169 344.400390625 1160.20019531 307.200195312 c 132,-1,33
 1151.40039062 270 1151.40039062 270 1128.84960938 212.400390625 c 132,-1,34
 1106.29980469 154.799804688 1106.29980469 154.799804688 1074.40039062 102 c 132,-1,35
 1042.5 49.2001953125 1042.5 49.2001953125 991.900390625 10.7998046875 c 132,-1,36
 941.299804688 -27.599609375 941.299804688 -27.599609375 883 -27.599609375 c 4,37,38
 803.799804688 -27.599609375 803.799804688 -27.599609375 757.599609375 29.400390625 c 132,-1,39
 711.400390625 86.400390625 711.400390625 86.400390625 711.400390625 169.200195312 c 4,40,41
 711.400390625 223.200195312 711.400390625 223.200195312 747.700195312 326.400390625 c 4,42,43
 878.599609375 734.400390625 878.599609375 734.400390625 878.599609375 870 c 4,44,45
 878.599609375 1032 878.599609375 1032 775.200195312 1032 c 4,46,47
 601.400390625 1032 601.400390625 1032 470.5 788.400390625 c 4,48,49
 432 720 432 720 403.400390625 590.400390625 c 4,50,51
 399 562.799804688 399 562.799804688 385.25 510 c 132,-1,52
 371.5 457.200195312 371.5 457.200195312 367.099609375 429.599609375 c 6,53,-1
 276.900390625 37.2001953125 l 5,54,55
 254.900390625 -26.400390625 254.900390625 -26.400390625 195.5 -27.599609375 c 4,56,57
 163.599609375 -27.599609375 163.599609375 -27.599609375 148.200195312 -7.7998046875 c 132,-1,58
 132.799804688 12 132.799804688 12 132.799804688 37.2001953125 c 4,59,60
 132.799804688 49.2001953125 132.799804688 49.2001953125 139.400390625 70.7998046875 c 6,61,-1
 308.799804688 808.799804688 l 6,62,63
 324.200195312 877.200195312 324.200195312 877.200195312 324.200195312 933.599609375 c 4,64,65
 324.200195312 1032 324.200195312 1032 265.900390625 1032 c 4,66,67
 216.400390625 1032 216.400390625 1032 181.200195312 958.200195312 c 132,-1,68
 146 884.400390625 146 884.400390625 113 739.200195312 c 4,69,70
 104.200195312 699.599609375 104.200195312 699.599609375 97.599609375 691.200195312 c 132,-1,71
 91 682.799804688 91 682.799804688 70.099609375 682.799804688 c 4,72,73
 36 684 36 684 36 708 c 4,0,1
EndSplineSet
Validated: 513
Substitution2: "'fwid' Full Widths lookup 32 subtable" uniFF4E
Substitution2: "'smcp' Lowercase to Small Capitals lookup 27 subtable" n.sc
Substitution2: "'sinf' Scientific Inferiors lookup 14 subtable" uni2099
Substitution2: "'subs' Subscript lookup 13 subtable" uni2099
AlternateSubs2: "'aalt' Access All Alternates lookup 1 subtable" uni2099 n.sc uniFF4E
EndChar

StartChar: o
Encoding: 111 111 40
Width: 1200
VWidth: 2048
GlyphClass: 2
Flags: W
LayerCount: 2
Fore
SplineSet
121 378 m 4,0,1
 121 645.599609375 121 645.599609375 316.599609375 865.799804688 c 132,-1,2
 512.200195312 1086 512.200195312 1086 742.599609375 1086 c 4,3,4
 902.200195312 1086 902.200195312 1086 1001.79980469 973.200195312 c 132,-1,5
 1101.40039062 860.400390625 1101.40039062 860.400390625 1101.40039062 682.799804688 c 4,6,7
 1101.40039062 415.200195312 1101.40039062 415.200195312 906.400390625 193.799804688 c 132,-1,8
 711.400390625 -27.599609375 711.400390625 -27.599609375 479.799804688 -27.599609375 c 4,9,10
 322.599609375 -27.599609375 322.599609375 -27.599609375 221.799804688 81.599609375 c 132,-1,11
 121 190.799804688 121 190.799804688 121 378 c 4,0,1
293.799804688 279.599609375 m 4,12,13
 293.799804688 154.799804688 293.799804688 154.799804688 347.799804688 91.2001953125 c 132,-1,14
 401.799804688 27.599609375 401.799804688 27.599609375 479.799804688 27.599609375 c 4,15,16
 568.599609375 27.599609375 568.599609375 27.599609375 654.400390625 97.2001953125 c 132,-1,17
 740.200195312 166.799804688 740.200195312 166.799804688 796.599609375 272.400390625 c 4,18,19
 850.599609375 375.599609375 850.599609375 375.599609375 890.200195312 532.799804688 c 132,-1,20
 929.799804688 690 929.799804688 690 929.799804688 778.799804688 c 4,21,22
 929.799804688 889.200195312 929.799804688 889.200195312 879.400390625 960.599609375 c 132,-1,23
 829 1032 829 1032 740.200195312 1032 c 4,24,25
 664.599609375 1032 664.599609375 1032 583.599609375 974.400390625 c 132,-1,26
 502.599609375 916.799804688 502.599609375 916.799804688 435.400390625 808.799804688 c 4,27,28
 379 712.799804688 379 712.799804688 336.400390625 545.400390625 c 132,-1,29
 293.799804688 378 293.799804688 378 293.799804688 279.599609375 c 4,12,13
EndSplineSet
Validated: 513
Substitution2: "Single Substitution lookup 63 subtable" ordmasculine
Substitution2: "'fwid' Full Widths lookup 32 subtable" uniFF4F
Substitution2: "'smcp' Lowercase to Small Capitals lookup 27 subtable" o.sc
Substitution2: "'sinf' Scientific Inferiors lookup 14 subtable" uni2092
Substitution2: "'subs' Subscript lookup 13 subtable" uni2092
AlternateSubs2: "'aalt' Access All Alternates lookup 1 subtable" uni2092 ordmasculine o.sc uniFF4F
EndChar

StartChar: p
Encoding: 112 112 41
Width: 1200
VWidth: 2048
GlyphClass: 2
Flags: W
LayerCount: 2
Fore
SplineSet
6.009765625 -447.599609375 m 4,0,1
 6.009765625 -400.799804688 6.009765625 -400.799804688 55.0302734375 -400.799804688 c 4,2,3
 124.569335938 -398.400390625 124.569335938 -398.400390625 146.799804688 -384.599609375 c 132,-1,4
 169.030273438 -370.799804688 169.030273438 -370.799804688 182.709960938 -314.400390625 c 6,5,-1
 449.469726562 811.200195312 l 6,6,7
 465.430664062 879.599609375 465.430664062 879.599609375 465.430664062 933.599609375 c 4,8,9
 465.430664062 1032 465.430664062 1032 405.009765625 1032 c 4,10,11
 353.709960938 1032 353.709960938 1032 317.23046875 958.200195312 c 132,-1,12
 280.75 884.400390625 280.75 884.400390625 246.549804688 739.200195312 c 4,13,14
 237.430664062 699.599609375 237.430664062 699.599609375 231.16015625 691.200195312 c 132,-1,15
 224.890625 682.799804688 224.890625 682.799804688 202.08984375 682.799804688 c 4,16,17
 166.75 682.799804688 166.75 682.799804688 166.75 708 c 4,18,19
 166.75 712.799804688 166.75 712.799804688 175.869140625 750.599609375 c 132,-1,20
 184.990234375 788.400390625 184.990234375 788.400390625 203.799804688 850.200195312 c 132,-1,21
 222.609375 912 222.609375 912 241.990234375 956.400390625 c 4,22,23
 305.830078125 1086 305.830078125 1086 407.290039062 1086 c 4,24,25
 408.430664062 1086 408.430664062 1086 409.569335938 1086 c 4,26,27
 467.709960938 1086 467.709960938 1086 525.280273438 1048.20019531 c 132,-1,28
 582.849609375 1010.40039062 582.849609375 1010.40039062 601.08984375 914.400390625 c 5,29,30
 741.309570312 1086 741.309570312 1086 883.809570312 1086 c 4,31,32
 997.809570312 1086 997.809570312 1086 1080.45996094 986.400390625 c 132,-1,33
 1163.109375 886.799804688 1163.109375 886.799804688 1163.109375 703.200195312 c 4,34,35
 1163.109375 430.799804688 1163.109375 430.799804688 994.390625 201.599609375 c 132,-1,36
 825.669921875 -27.599609375 825.669921875 -27.599609375 631.869140625 -27.599609375 c 4,37,38
 552.069335938 -27.599609375 552.069335938 -27.599609375 503.049804688 19.2001953125 c 132,-1,39
 454.030273438 66 454.030273438 66 435.790039062 115.200195312 c 5,40,-1
 351.430664062 -243.599609375 l 6,41,42
 325.209960938 -351.599609375 325.209960938 -351.599609375 325.209960938 -361.200195312 c 4,43,44
 325.209960938 -375.599609375 325.209960938 -375.599609375 329.76953125 -383.400390625 c 132,-1,45
 334.330078125 -391.200195312 334.330078125 -391.200195312 361.690429688 -396 c 132,-1,46
 389.049804688 -400.799804688 389.049804688 -400.799804688 444.91015625 -400.799804688 c 132,-1,47
 500.76953125 -400.799804688 500.76953125 -400.799804688 500.76953125 -429.599609375 c 4,48,49
 500.76953125 -476.400390625 500.76953125 -476.400390625 456.309570312 -476.400390625 c 4,50,51
 420.969726562 -476.400390625 420.969726562 -476.400390625 344.01953125 -472.799804688 c 132,-1,52
 267.069335938 -469.200195312 267.069335938 -469.200195312 229.450195312 -469.200195312 c 4,53,54
 196.390625 -469.200195312 196.390625 -469.200195312 130.26953125 -472.799804688 c 132,-1,55
 64.150390625 -476.400390625 64.150390625 -476.400390625 33.369140625 -476.400390625 c 4,56,57
 32.23046875 -476.400390625 32.23046875 -476.400390625 31.08984375 -476.400390625 c 4,58,59
 6.009765625 -476.400390625 6.009765625 -476.400390625 6.009765625 -447.599609375 c 4,0,1
469.990234375 255.599609375 m 4,60,61
 469.990234375 231.599609375 469.990234375 231.599609375 479.680664062 186 c 132,-1,62
 489.369140625 140.400390625 489.369140625 140.400390625 528.700195312 84 c 132,-1,63
 568.030273438 27.599609375 568.030273438 27.599609375 628.450195312 27.599609375 c 4,64,65
 705.969726562 27.599609375 705.969726562 27.599609375 773.799804688 106.200195312 c 132,-1,66
 841.629882812 184.799804688 841.629882812 184.799804688 876.969726562 260.400390625 c 4,67,68
 925.990234375 373.200195312 925.990234375 373.200195312 966.459960938 552.599609375 c 132,-1,69
 1006.93066406 732 1006.93066406 732 1006.93066406 813 c 132,-1,70
 1006.93066406 894 1006.93066406 894 977.859375 963 c 132,-1,71
 948.790039062 1032 948.790039062 1032 879.25 1032 c 4,72,73
 790.330078125 1032 790.330078125 1032 696.849609375 931.200195312 c 132,-1,74
 603.369140625 830.400390625 603.369140625 830.400390625 587.41015625 754.799804688 c 6,75,-1
 476.830078125 290.400390625 l 6,76,77
 469.990234375 260.400390625 469.990234375 260.400390625 469.990234375 255.599609375 c 4,60,61
EndSplineSet
Validated: 513
Substitution2: "'fwid' Full Widths lookup 32 subtable" uniFF50
Substitution2: "'smcp' Lowercase to Small Capitals lookup 27 subtable" p.sc
Substitution2: "'sinf' Scientific Inferiors lookup 14 subtable" uni209A
Substitution2: "'subs' Subscript lookup 13 subtable" uni209A
AlternateSubs2: "'aalt' Access All Alternates lookup 1 subtable" uni209A p.sc uniFF50
EndChar

StartChar: q
Encoding: 113 113 42
Width: 1200
VWidth: 2048
GlyphClass: 2
Flags: W
LayerCount: 2
Fore
SplineSet
134.200195312 354 m 4,0,1
 134.200195312 621.599609375 134.200195312 621.599609375 313.599609375 853.799804688 c 132,-1,2
 493 1086 493 1086 697 1086 c 4,3,4
 844.599609375 1086 844.599609375 1086 908.200195312 928.799804688 c 5,5,6
 938.200195312 980.400390625 938.200195312 980.400390625 991 1032 c 132,-1,7
 1043.79980469 1083.59960938 1043.79980469 1083.59960938 1063 1083.59960938 c 4,8,9
 1090.59960938 1083.59960938 1090.59960938 1083.59960938 1090.59960938 1057.20019531 c 4,10,11
 1090.59960938 1047.59960938 1090.59960938 1047.59960938 1083.40039062 1024.79980469 c 6,12,-1
 746.200195312 -316.799804688 l 5,13,-1
 743.799804688 -334.799804688 l 6,14,15
 739 -351.599609375 739 -351.599609375 739 -361.200195312 c 4,16,17
 739 -375.599609375 739 -375.599609375 743.799804688 -383.400390625 c 132,-1,18
 748.599609375 -391.200195312 748.599609375 -391.200195312 776.799804688 -396 c 132,-1,19
 805 -400.799804688 805 -400.799804688 864.400390625 -400.799804688 c 132,-1,20
 923.799804688 -400.799804688 923.799804688 -400.799804688 923.799804688 -429.599609375 c 4,21,22
 923.799804688 -476.400390625 923.799804688 -476.400390625 877 -476.400390625 c 4,23,24
 837.400390625 -476.400390625 837.400390625 -476.400390625 754 -472.799804688 c 132,-1,25
 670.599609375 -469.200195312 670.599609375 -469.200195312 628.599609375 -469.200195312 c 132,-1,26
 586.599609375 -469.200195312 586.599609375 -469.200195312 504.400390625 -472.799804688 c 132,-1,27
 422.200195312 -476.400390625 422.200195312 -476.400390625 382.599609375 -476.400390625 c 4,28,29
 350.200195312 -476.400390625 350.200195312 -476.400390625 350.200195312 -447.599609375 c 4,30,31
 350.200195312 -415.200195312 350.200195312 -415.200195312 365.200195312 -408 c 132,-1,32
 380.200195312 -400.799804688 380.200195312 -400.799804688 410.200195312 -400.799804688 c 4,33,34
 525.400390625 -398.400390625 525.400390625 -398.400390625 550 -381 c 132,-1,35
 574.599609375 -363.599609375 574.599609375 -363.599609375 596.200195312 -283.200195312 c 6,36,-1
 692.200195312 103.200195312 l 5,37,38
 556.599609375 -27.599609375 556.599609375 -27.599609375 431.799804688 -27.599609375 c 4,39,40
 296.200195312 -27.599609375 296.200195312 -27.599609375 215.200195312 82.2001953125 c 132,-1,41
 134.200195312 192 134.200195312 192 134.200195312 354 c 4,0,1
301 246 m 4,42,43
 301 164.400390625 301 164.400390625 331 96 c 132,-1,44
 361 27.599609375 361 27.599609375 436.599609375 27.599609375 c 4,45,46
 527.799804688 27.599609375 527.799804688 27.599609375 626.200195312 127.799804688 c 132,-1,47
 724.599609375 228 724.599609375 228 741.400390625 300 c 6,48,-1
 859 771.599609375 l 6,49,50
 866.200195312 793.200195312 866.200195312 793.200195312 866.200195312 804 c 4,51,52
 866.200195312 883.200195312 866.200195312 883.200195312 818.200195312 961.200195312 c 4,53,54
 771.400390625 1032 771.400390625 1032 697.599609375 1032 c 132,-1,55
 623.799804688 1032 623.799804688 1032 546.400390625 953.400390625 c 132,-1,56
 469 874.799804688 469 874.799804688 422.200195312 759.599609375 c 4,57,58
 385 673.200195312 385 673.200195312 343 502.799804688 c 132,-1,59
 301 332.400390625 301 332.400390625 301 246 c 4,42,43
EndSplineSet
Validated: 513
Substitution2: "'fwid' Full Widths lookup 32 subtable" uniFF51
Substitution2: "'smcp' Lowercase to Small Capitals lookup 27 subtable" q.sc
AlternateSubs2: "'aalt' Access All Alternates lookup 1 subtable" q.sc uniFF51
EndChar

StartChar: r
Encoding: 114 114 43
Width: 1200
VWidth: 2048
GlyphClass: 2
Flags: W
LayerCount: 2
Fore
SplineSet
113 708 m 4,0,1
 113 712.799804688 113 712.799804688 122.599609375 750.599609375 c 132,-1,2
 132.200195312 788.400390625 132.200195312 788.400390625 152 850.200195312 c 132,-1,3
 171.799804688 912 171.799804688 912 192.200195312 956.400390625 c 4,4,5
 259.400390625 1086 259.400390625 1086 366.200195312 1086 c 4,6,7
 367.400390625 1086 367.400390625 1086 368.599609375 1086 c 4,8,9
 437 1086 437 1086 495.200195312 1043.40039062 c 132,-1,10
 553.400390625 1000.79980469 553.400390625 1000.79980469 572.599609375 909.599609375 c 5,11,12
 699.799804688 1086 699.799804688 1086 870.200195312 1086 c 4,13,14
 956.599609375 1086 956.599609375 1086 1033.40039062 1050.59960938 c 132,-1,15
 1110.20019531 1015.20019531 1110.20019531 1015.20019531 1110.20019531 931.200195312 c 4,16,17
 1110.20019531 867.599609375 1110.20019531 867.599609375 1071.20019531 834.599609375 c 132,-1,18
 1032.20019531 801.599609375 1032.20019531 801.599609375 990.200195312 801.599609375 c 4,19,20
 945.799804688 801.599609375 945.799804688 801.599609375 924.799804688 826.200195312 c 132,-1,21
 903.799804688 850.799804688 903.799804688 850.799804688 903.799804688 879.599609375 c 4,22,23
 903.799804688 891.599609375 903.799804688 891.599609375 909.200195312 910.200195312 c 132,-1,24
 914.599609375 928.799804688 914.599609375 928.799804688 936.200195312 957 c 132,-1,25
 957.799804688 985.200195312 957.799804688 985.200195312 997.400390625 997.200195312 c 5,26,27
 948.200195312 1032 948.200195312 1032 867.799804688 1032 c 4,28,29
 809 1032 809 1032 753.200195312 997.799804688 c 132,-1,30
 697.400390625 963.599609375 697.400390625 963.599609375 662 920.400390625 c 132,-1,31
 626.599609375 877.200195312 626.599609375 877.200195312 597.200195312 823.200195312 c 132,-1,32
 567.799804688 769.200195312 567.799804688 769.200195312 557.599609375 744.599609375 c 132,-1,33
 547.400390625 720 547.400390625 720 542.599609375 708 c 6,34,-1
 383 63.599609375 l 6,35,36
 361.400390625 -27.599609375 361.400390625 -27.599609375 287 -27.599609375 c 4,37,38
 252.200195312 -27.599609375 252.200195312 -27.599609375 235.400390625 -7.7998046875 c 132,-1,39
 218.599609375 12 218.599609375 12 218.599609375 37.2001953125 c 4,40,41
 218.599609375 49.2001953125 218.599609375 49.2001953125 225.799804688 70.7998046875 c 6,42,-1
 410.599609375 808.799804688 l 6,43,44
 427.400390625 877.200195312 427.400390625 877.200195312 427.400390625 933.599609375 c 4,45,46
 427.400390625 1032 427.400390625 1032 363.799804688 1032 c 4,47,48
 309.799804688 1032 309.799804688 1032 271.400390625 958.200195312 c 132,-1,49
 233 884.400390625 233 884.400390625 197 739.200195312 c 4,50,51
 187.400390625 699.599609375 187.400390625 699.599609375 180.200195312 691.200195312 c 132,-1,52
 173 682.799804688 173 682.799804688 150.200195312 682.799804688 c 4,53,54
 113 684 113 684 113 708 c 4,0,1
EndSplineSet
Validated: 513
Substitution2: "Single Substitution lookup 74 subtable" r.alternate
Substitution2: "'fwid' Full Widths lookup 32 subtable" uniFF52
Substitution2: "'smcp' Lowercase to Small Capitals lookup 27 subtable" r.sc
AlternateSubs2: "'aalt' Access All Alternates lookup 1 subtable" r.sc uniFF52 r.alternate
EndChar

StartChar: s
Encoding: 115 115 44
Width: 1200
VWidth: 2048
GlyphClass: 2
Flags: W
LayerCount: 2
Fore
SplineSet
187.200195312 211.200195312 m 4,0,1
 187.200195312 286.799804688 187.200195312 286.799804688 225 325.200195312 c 132,-1,2
 262.799804688 363.599609375 262.799804688 363.599609375 312 363.599609375 c 4,3,4
 351.599609375 363.599609375 351.599609375 363.599609375 373.799804688 341.400390625 c 132,-1,5
 396 319.200195312 396 319.200195312 396 285.599609375 c 4,6,7
 396 271.200195312 396 271.200195312 392.400390625 252.599609375 c 132,-1,8
 388.799804688 234 388.799804688 234 357.599609375 201.599609375 c 132,-1,9
 326.400390625 169.200195312 326.400390625 169.200195312 270 164.400390625 c 5,10,11
 314.400390625 27.599609375 314.400390625 27.599609375 502.799804688 27.599609375 c 4,12,13
 504 27.599609375 504 27.599609375 506.400390625 27.599609375 c 4,14,15
 577.200195312 27.599609375 577.200195312 27.599609375 636.599609375 48 c 132,-1,16
 696 68.400390625 696 68.400390625 729 100.799804688 c 132,-1,17
 762 133.200195312 762 133.200195312 785.400390625 172.200195312 c 132,-1,18
 808.799804688 211.200195312 808.799804688 211.200195312 817.200195312 243 c 132,-1,19
 825.599609375 274.799804688 825.599609375 274.799804688 825.599609375 302.400390625 c 4,20,21
 825.599609375 349.200195312 825.599609375 349.200195312 808.200195312 382.200195312 c 132,-1,22
 790.799804688 415.200195312 790.799804688 415.200195312 754.200195312 435 c 132,-1,23
 717.599609375 454.799804688 717.599609375 454.799804688 689.400390625 463.200195312 c 132,-1,24
 661.200195312 471.599609375 661.200195312 471.599609375 607.200195312 483.599609375 c 4,25,26
 574.799804688 490.799804688 574.799804688 490.799804688 555 496.200195312 c 132,-1,27
 535.200195312 501.599609375 535.200195312 501.599609375 497.400390625 520.200195312 c 132,-1,28
 459.599609375 538.799804688 459.599609375 538.799804688 437.400390625 561.599609375 c 132,-1,29
 415.200195312 584.400390625 415.200195312 584.400390625 396.599609375 626.400390625 c 132,-1,30
 378 668.400390625 378 668.400390625 378 722.400390625 c 4,31,32
 378 844.799804688 378 844.799804688 476.400390625 965.400390625 c 132,-1,33
 574.799804688 1086 574.799804688 1086 766.799804688 1086 c 4,34,35
 884.400390625 1086 884.400390625 1086 957 1026 c 132,-1,36
 1029.59960938 966 1029.59960938 966 1029.59960938 877.200195312 c 4,37,38
 1029.59960938 806.400390625 1029.59960938 806.400390625 996.599609375 774 c 132,-1,39
 963.599609375 741.599609375 963.599609375 741.599609375 924 741.599609375 c 132,-1,40
 884.400390625 741.599609375 884.400390625 741.599609375 867.599609375 762.599609375 c 132,-1,41
 850.799804688 783.599609375 850.799804688 783.599609375 850.799804688 810.599609375 c 132,-1,42
 850.799804688 837.599609375 850.799804688 837.599609375 874.200195312 871.200195312 c 132,-1,43
 897.599609375 904.799804688 897.599609375 904.799804688 949.200195312 912 c 5,44,45
 914.400390625 1032 914.400390625 1032 764.400390625 1032 c 4,46,47
 637.200195312 1032 637.200195312 1032 576.599609375 953.400390625 c 132,-1,48
 516 874.799804688 516 874.799804688 516 806.400390625 c 4,49,50
 516 757.200195312 516 757.200195312 544.200195312 726.599609375 c 132,-1,51
 572.400390625 696 572.400390625 696 599.400390625 685.799804688 c 132,-1,52
 626.400390625 675.599609375 626.400390625 675.599609375 673.200195312 666 c 4,53,54
 715.200195312 656.400390625 715.200195312 656.400390625 743.400390625 649.200195312 c 132,-1,55
 771.599609375 642 771.599609375 642 818.400390625 619.799804688 c 132,-1,56
 865.200195312 597.599609375 865.200195312 597.599609375 893.400390625 570.599609375 c 132,-1,57
 921.599609375 543.599609375 921.599609375 543.599609375 943.799804688 495.599609375 c 132,-1,58
 966 447.599609375 966 447.599609375 966 386.400390625 c 4,59,60
 966 346.799804688 966 346.799804688 953.400390625 298.799804688 c 132,-1,61
 940.799804688 250.799804688 940.799804688 250.799804688 907.799804688 192 c 132,-1,62
 874.799804688 133.200195312 874.799804688 133.200195312 825.599609375 85.2001953125 c 132,-1,63
 776.400390625 37.2001953125 776.400390625 37.2001953125 693 4.7998046875 c 132,-1,64
 609.599609375 -27.599609375 609.599609375 -27.599609375 504 -27.599609375 c 4,65,66
 368.400390625 -27.599609375 368.400390625 -27.599609375 277.799804688 37.7998046875 c 132,-1,67
 187.200195312 103.200195312 187.200195312 103.200195312 187.200195312 211.200195312 c 4,0,1
EndSplineSet
Validated: 513
Substitution2: "'fwid' Full Widths lookup 32 subtable" uniFF53
Substitution2: "'smcp' Lowercase to Small Capitals lookup 27 subtable" s.sc
Substitution2: "'sinf' Scientific Inferiors lookup 14 subtable" uni209B
Substitution2: "'subs' Subscript lookup 13 subtable" uni209B
AlternateSubs2: "'aalt' Access All Alternates lookup 1 subtable" uni209B s.sc uniFF53
EndChar

StartChar: t
Encoding: 116 116 45
Width: 1200
VWidth: 2048
GlyphClass: 2
Flags: W
LayerCount: 2
Fore
SplineSet
253.240234375 1046.55957031 m 4,0,1
 253.240234375 1080.04003906 253.240234375 1080.04003906 269.98046875 1087.48046875 c 132,-1,2
 286.719726562 1094.91992188 286.719726562 1094.91992188 325.16015625 1094.91992188 c 6,3,-1
 540.919921875 1094.91992188 l 5,4,-1
 640.120117188 1497.91992188 l 6,5,6
 664.919921875 1589.6796875 664.919921875 1589.6796875 739.3203125 1589.6796875 c 4,7,8
 807.51953125 1589.6796875 807.51953125 1589.6796875 807.51953125 1523.95996094 c 4,9,10
 807.51953125 1506.59960938 807.51953125 1506.59960938 797.599609375 1470.63964844 c 6,11,-1
 703.360351562 1094.91992188 l 5,12,-1
 906.719726562 1094.91992188 l 6,13,14
 931.51953125 1094.91992188 931.51953125 1094.91992188 942.059570312 1093.6796875 c 132,-1,15
 952.599609375 1092.44042969 952.599609375 1092.44042969 961.280273438 1085.62011719 c 132,-1,16
 969.959960938 1078.79980469 969.959960938 1078.79980469 969.959960938 1063.91992188 c 4,17,18
 969.959960938 1030.44042969 969.959960938 1030.44042969 953.219726562 1023 c 132,-1,19
 936.48046875 1015.55957031 936.48046875 1015.55957031 899.280273438 1015.55957031 c 6,20,-1
 682.280273438 1015.55957031 l 5,21,-1
 495.040039062 261.639648438 l 6,22,23
 477.6796875 190.959960938 477.6796875 190.959960938 477.6796875 131.440429688 c 4,24,25
 477.6796875 28.51953125 477.6796875 28.51953125 544.639648438 28.51953125 c 6,26,27
 544.639648438 28.51953125 544.639648438 28.51953125 545.879882812 28.51953125 c 4,28,29
 642.599609375 28.51953125 642.599609375 28.51953125 717.620117188 124.620117188 c 132,-1,30
 792.639648438 220.719726562 792.639648438 220.719726562 837.280273438 339.759765625 c 4,31,32
 852.16015625 375.719726562 852.16015625 375.719726562 858.98046875 381.919921875 c 132,-1,33
 865.799804688 388.120117188 865.799804688 388.120117188 888.120117188 388.120117188 c 4,34,35
 926.559570312 388.120117188 926.559570312 388.120117188 926.559570312 363.3203125 c 4,36,37
 926.559570312 355.879882812 926.559570312 355.879882812 911.6796875 317.440429688 c 132,-1,38
 896.799804688 279 896.799804688 279 863.3203125 219.48046875 c 132,-1,39
 829.83984375 159.959960938 829.83984375 159.959960938 787.059570312 105.400390625 c 132,-1,40
 744.280273438 50.83984375 744.280273438 50.83984375 677.940429688 11.16015625 c 132,-1,41
 611.599609375 -28.51953125 611.599609375 -28.51953125 540.919921875 -28.51953125 c 4,42,43
 444.200195312 -28.51953125 444.200195312 -28.51953125 384.6796875 37.8203125 c 132,-1,44
 325.16015625 104.16015625 325.16015625 104.16015625 325.16015625 200.879882812 c 4,45,46
 325.16015625 236.83984375 325.16015625 236.83984375 337.559570312 286.440429688 c 6,47,-1
 519.83984375 1015.55957031 l 5,48,-1
 317.719726562 1015.55957031 l 6,49,50
 292.919921875 1015.55957031 292.919921875 1015.55957031 282.379882812 1016.79980469 c 132,-1,51
 271.83984375 1018.04003906 271.83984375 1018.04003906 262.540039062 1024.86035156 c 132,-1,52
 253.240234375 1031.6796875 253.240234375 1031.6796875 253.240234375 1046.55957031 c 4,0,1
EndSplineSet
Validated: 513
Substitution2: "'fwid' Full Widths lookup 32 subtable" uniFF54
Substitution2: "'smcp' Lowercase to Small Capitals lookup 27 subtable" t.sc
Substitution2: "'sinf' Scientific Inferiors lookup 14 subtable" uni209C
Substitution2: "'subs' Subscript lookup 13 subtable" uni209C
AlternateSubs2: "'aalt' Access All Alternates lookup 1 subtable" uni209C t.sc uniFF54
EndChar

StartChar: u
Encoding: 117 117 46
Width: 1200
VWidth: 2048
GlyphClass: 2
Flags: W
LayerCount: 2
Fore
SplineSet
10 708 m 4,0,1
 10 715.200195312 10 715.200195312 19.599609375 751.799804688 c 132,-1,2
 29.2001953125 788.400390625 29.2001953125 788.400390625 55 846.599609375 c 132,-1,3
 80.7998046875 904.799804688 80.7998046875 904.799804688 114.400390625 957.599609375 c 132,-1,4
 148 1010.40039062 148 1010.40039062 204.400390625 1048.20019531 c 132,-1,5
 260.799804688 1086 260.799804688 1086 324.400390625 1086 c 4,6,7
 406 1086 406 1086 458.799804688 1032 c 132,-1,8
 511.599609375 978 511.599609375 978 511.599609375 886.799804688 c 4,9,10
 511.599609375 837.599609375 511.599609375 837.599609375 479.200195312 754.799804688 c 4,11,12
 336.400390625 366 336.400390625 366 336.400390625 216 c 4,13,14
 336.400390625 27.599609375 336.400390625 27.599609375 468.400390625 27.599609375 c 6,15,16
 468.400390625 27.599609375 468.400390625 27.599609375 469.599609375 27.599609375 c 4,17,18
 600.400390625 27.599609375 600.400390625 27.599609375 695.200195312 169.200195312 c 4,19,20
 714.400390625 199.200195312 714.400390625 199.200195312 730 250.799804688 c 6,21,-1
 910 968.400390625 l 6,22,23
 931.599609375 1059.59960938 931.599609375 1059.59960938 1004.79980469 1059.59960938 c 4,24,25
 1039.59960938 1059.59960938 1039.59960938 1059.59960938 1057 1039.79980469 c 132,-1,26
 1074.40039062 1020 1074.40039062 1020 1074.40039062 994.799804688 c 4,27,28
 1074.40039062 982.799804688 1074.40039062 982.799804688 1067.20019531 961.200195312 c 6,29,-1
 889.599609375 253.200195312 l 6,30,31
 872.799804688 184.799804688 872.799804688 184.799804688 872.799804688 127.200195312 c 4,32,33
 872.799804688 27.599609375 872.799804688 27.599609375 935.200195312 27.599609375 c 6,34,35
 935.200195312 27.599609375 935.200195312 27.599609375 936.400390625 27.599609375 c 4,36,37
 1027.59960938 27.599609375 1027.59960938 27.599609375 1100.79980469 319.200195312 c 4,38,39
 1110.40039062 358.799804688 1110.40039062 358.799804688 1118.20019531 367.200195312 c 132,-1,40
 1126 375.599609375 1126 375.599609375 1147.59960938 375.599609375 c 4,41,42
 1184.79980469 375.599609375 1184.79980469 375.599609375 1184.79980469 351.599609375 c 4,43,44
 1184.79980469 346.799804688 1184.79980469 346.799804688 1176.40039062 308.400390625 c 132,-1,45
 1168 270 1168 270 1149.40039062 211.200195312 c 132,-1,46
 1130.79980469 152.400390625 1130.79980469 152.400390625 1110.40039062 110.400390625 c 4,47,48
 1044.40039062 -27.599609375 1044.40039062 -27.599609375 931.599609375 -27.599609375 c 4,49,50
 784 -27.599609375 784 -27.599609375 734.799804688 120 c 5,51,52
 617.200195312 -27.599609375 617.200195312 -27.599609375 462.400390625 -27.599609375 c 4,53,54
 347.200195312 -27.599609375 347.200195312 -27.599609375 266.799804688 41.400390625 c 132,-1,55
 186.400390625 110.400390625 186.400390625 110.400390625 186.400390625 258 c 4,56,57
 186.400390625 396 186.400390625 396 314.799804688 739.200195312 c 4,58,59
 373.599609375 903.599609375 373.599609375 903.599609375 373.599609375 961.200195312 c 4,60,61
 373.599609375 1032 373.599609375 1032 319.599609375 1032 c 4,62,63
 172 1032 172 1032 91.599609375 722.400390625 c 4,64,65
 84.400390625 694.799804688 84.400390625 694.799804688 76.599609375 688.799804688 c 132,-1,66
 68.7998046875 682.799804688 68.7998046875 682.799804688 47.2001953125 682.799804688 c 4,67,68
 10 684 10 684 10 708 c 4,0,1
EndSplineSet
Validated: 513
Substitution2: "'fwid' Full Widths lookup 32 subtable" uniFF55
Substitution2: "'smcp' Lowercase to Small Capitals lookup 27 subtable" u.sc
AlternateSubs2: "'aalt' Access All Alternates lookup 1 subtable" u.sc uniFF55
EndChar

StartChar: v
Encoding: 118 118 47
Width: 1200
VWidth: 2048
GlyphClass: 2
Flags: W
LayerCount: 2
Fore
SplineSet
90.7998046875 708 m 4,0,1
 90.7998046875 715.200195312 90.7998046875 715.200195312 100.400390625 751.799804688 c 132,-1,2
 110 788.400390625 110 788.400390625 135.799804688 846.599609375 c 132,-1,3
 161.599609375 904.799804688 161.599609375 904.799804688 195.200195312 957.599609375 c 132,-1,4
 228.799804688 1010.40039062 228.799804688 1010.40039062 285.200195312 1048.20019531 c 132,-1,5
 341.599609375 1086 341.599609375 1086 405.200195312 1086 c 4,6,7
 486.799804688 1086 486.799804688 1086 539.599609375 1032 c 132,-1,8
 592.400390625 978 592.400390625 978 592.400390625 886.799804688 c 4,9,10
 592.400390625 849.599609375 592.400390625 849.599609375 564.799804688 764.400390625 c 4,11,12
 419.599609375 378 419.599609375 378 419.599609375 231.599609375 c 4,13,14
 419.599609375 152.400390625 419.599609375 152.400390625 455.599609375 90 c 132,-1,15
 491.599609375 27.599609375 491.599609375 27.599609375 580.400390625 27.599609375 c 4,16,17
 678.799804688 27.599609375 678.799804688 27.599609375 761 123 c 132,-1,18
 843.200195312 218.400390625 843.200195312 218.400390625 887 346.200195312 c 132,-1,19
 930.799804688 474 930.799804688 474 954.200195312 574.799804688 c 132,-1,20
 977.599609375 675.599609375 977.599609375 675.599609375 977.599609375 712.799804688 c 4,21,22
 977.599609375 835.200195312 977.599609375 835.200195312 911.599609375 907.200195312 c 4,23,24
 879.200195312 944.400390625 879.200195312 944.400390625 879.200195312 973.200195312 c 4,25,26
 879.200195312 1015.20019531 879.200195312 1015.20019531 917.599609375 1050.59960938 c 132,-1,27
 956 1086 956 1086 998 1086 c 4,28,29
 1049.59960938 1086 1049.59960938 1086 1074.20019531 1040.40039062 c 132,-1,30
 1098.79980469 994.799804688 1098.79980469 994.799804688 1098.79980469 924 c 4,31,32
 1098.79980469 894 1098.79980469 894 1083.79980469 801 c 132,-1,33
 1068.79980469 708 1068.79980469 708 1031 562.799804688 c 132,-1,34
 993.200195312 417.599609375 993.200195312 417.599609375 937.400390625 288.599609375 c 132,-1,35
 881.599609375 159.599609375 881.599609375 159.599609375 785 66 c 132,-1,36
 688.400390625 -27.599609375 688.400390625 -27.599609375 572 -27.599609375 c 4,37,38
 447.200195312 -27.599609375 447.200195312 -27.599609375 358.400390625 42.599609375 c 132,-1,39
 269.599609375 112.799804688 269.599609375 112.799804688 269.599609375 267.599609375 c 4,40,41
 269.599609375 394.799804688 269.599609375 394.799804688 395.599609375 739.200195312 c 4,42,43
 454.400390625 903.599609375 454.400390625 903.599609375 454.400390625 961.200195312 c 4,44,45
 454.400390625 1032 454.400390625 1032 400.400390625 1032 c 4,46,47
 252.799804688 1032 252.799804688 1032 172.400390625 722.400390625 c 4,48,49
 165.200195312 694.799804688 165.200195312 694.799804688 157.400390625 688.799804688 c 132,-1,50
 149.599609375 682.799804688 149.599609375 682.799804688 128 682.799804688 c 4,51,52
 90.7998046875 684 90.7998046875 684 90.7998046875 708 c 4,0,1
EndSplineSet
Validated: 513
Substitution2: "'fwid' Full Widths lookup 32 subtable" uniFF56
Substitution2: "'smcp' Lowercase to Small Capitals lookup 27 subtable" v.sc
AlternateSubs2: "'aalt' Access All Alternates lookup 1 subtable" v.sc uniFF56
EndChar

